ISO-10303-21;
HEADER;
/* Generated by software containing ST-Developer
 * from STEP Tools, Inc. (www.steptools.com) 
 */

FILE_DESCRIPTION(
/* description */ (''),
/* implementation_level */ '2;1');

FILE_NAME(
/* name */ 'MagGrid O.step',
/* time_stamp */ '2026-08-06T10:15:53-07:00',
/* author */ (''),
/* organization */ (''),
/* preprocessor_version */ 'ST-DEVELOPER v20.1',
/* originating_system */ 'Autodesk Translation Framework v15.8.0.0',
/* authorisation */ '');

FILE_SCHEMA (('AUTOMOTIVE_DESIGN { 1 0 10303 214 3 1 1 }'));
ENDSEC;

DATA;
#10=MECHANICAL_DESIGN_GEOMETRIC_PRESENTATION_REPRESENTATION('',(#13),#1861);
#11=SHAPE_REPRESENTATION_RELATIONSHIP('SRR','None',#1868,#12);
#12=ADVANCED_BREP_SHAPE_REPRESENTATION('',(#1093),#1860);
#13=STYLED_ITEM('',(#1877),#1093);
#14=FACE_BOUND('',#370,.T.);
#15=FACE_BOUND('',#373,.T.);
#16=FACE_BOUND('',#376,.T.);
#17=FACE_BOUND('',#379,.T.);
#18=FACE_BOUND('',#387,.T.);
#19=CONICAL_SURFACE('',#1162,4.49999999999999,0.785398163397449);
#20=CONICAL_SURFACE('',#1166,4.5,0.785398163397449);
#21=CONICAL_SURFACE('',#1170,4.5,0.785398163397449);
#22=CONICAL_SURFACE('',#1174,4.5,0.785398163397449);
#23=ORIENTED_CLOSED_SHELL('',*,#1088,.F.);
#24=ORIENTED_CLOSED_SHELL('',*,#1089,.F.);
#25=ORIENTED_CLOSED_SHELL('',*,#1091,.F.);
#26=ORIENTED_CLOSED_SHELL('',*,#1092,.F.);
#27=LINE('',#1553,#131);
#28=LINE('',#1561,#132);
#29=LINE('',#1566,#133);
#30=LINE('',#1568,#134);
#31=LINE('',#1570,#135);
#32=LINE('',#1571,#136);
#33=LINE('',#1574,#137);
#34=LINE('',#1576,#138);
#35=LINE('',#1577,#139);
#36=LINE('',#1582,#140);
#37=LINE('',#1586,#141);
#38=LINE('',#1588,#142);
#39=LINE('',#1589,#143);
#40=LINE('',#1592,#144);
#41=LINE('',#1594,#145);
#42=LINE('',#1595,#146);
#43=LINE('',#1603,#147);
#44=LINE('',#1605,#148);
#45=LINE('',#1607,#149);
#46=LINE('',#1608,#150);
#47=LINE('',#1611,#151);
#48=LINE('',#1613,#152);
#49=LINE('',#1614,#153);
#50=LINE('',#1619,#154);
#51=LINE('',#1623,#155);
#52=LINE('',#1625,#156);
#53=LINE('',#1626,#157);
#54=LINE('',#1629,#158);
#55=LINE('',#1631,#159);
#56=LINE('',#1632,#160);
#57=LINE('',#1640,#161);
#58=LINE('',#1642,#162);
#59=LINE('',#1644,#163);
#60=LINE('',#1645,#164);
#61=LINE('',#1648,#165);
#62=LINE('',#1650,#166);
#63=LINE('',#1651,#167);
#64=LINE('',#1656,#168);
#65=LINE('',#1660,#169);
#66=LINE('',#1662,#170);
#67=LINE('',#1663,#171);
#68=LINE('',#1666,#172);
#69=LINE('',#1668,#173);
#70=LINE('',#1669,#174);
#71=LINE('',#1677,#175);
#72=LINE('',#1679,#176);
#73=LINE('',#1681,#177);
#74=LINE('',#1682,#178);
#75=LINE('',#1685,#179);
#76=LINE('',#1687,#180);
#77=LINE('',#1688,#181);
#78=LINE('',#1693,#182);
#79=LINE('',#1697,#183);
#80=LINE('',#1699,#184);
#81=LINE('',#1700,#185);
#82=LINE('',#1703,#186);
#83=LINE('',#1705,#187);
#84=LINE('',#1706,#188);
#85=LINE('',#1714,#189);
#86=LINE('',#1716,#190);
#87=LINE('',#1718,#191);
#88=LINE('',#1719,#192);
#89=LINE('',#1723,#193);
#90=LINE('',#1729,#194);
#91=LINE('',#1730,#195);
#92=LINE('',#1731,#196);
#93=LINE('',#1735,#197);
#94=LINE('',#1741,#198);
#95=LINE('',#1742,#199);
#96=LINE('',#1743,#200);
#97=LINE('',#1747,#201);
#98=LINE('',#1753,#202);
#99=LINE('',#1754,#203);
#100=LINE('',#1755,#204);
#101=LINE('',#1761,#205);
#102=LINE('',#1764,#206);
#103=LINE('',#1767,#207);
#104=LINE('',#1768,#208);
#105=LINE('',#1771,#209);
#106=LINE('',#1775,#210);
#107=LINE('',#1776,#211);
#108=LINE('',#1781,#212);
#109=LINE('',#1783,#213);
#110=LINE('',#1785,#214);
#111=LINE('',#1786,#215);
#112=LINE('',#1791,#216);
#113=LINE('',#1795,#217);
#114=LINE('',#1797,#218);
#115=LINE('',#1798,#219);
#116=LINE('',#1803,#220);
#117=LINE('',#1807,#221);
#118=LINE('',#1809,#222);
#119=LINE('',#1810,#223);
#120=LINE('',#1815,#224);
#121=LINE('',#1819,#225);
#122=LINE('',#1821,#226);
#123=LINE('',#1822,#227);
#124=LINE('',#1829,#228);
#125=LINE('',#1830,#229);
#126=LINE('',#1834,#230);
#127=LINE('',#1837,#231);
#128=LINE('',#1838,#232);
#129=LINE('',#1848,#233);
#130=LINE('',#1856,#234);
#131=VECTOR('',#1228,4.1);
#132=VECTOR('',#1239,4.1);
#133=VECTOR('',#1244,10.);
#134=VECTOR('',#1245,10.);
#135=VECTOR('',#1246,10.);
#136=VECTOR('',#1247,10.);
#137=VECTOR('',#1250,10.);
#138=VECTOR('',#1251,10.);
#139=VECTOR('',#1252,10.);
#140=VECTOR('',#1257,10.);
#141=VECTOR('',#1262,10.);
#142=VECTOR('',#1263,10.);
#143=VECTOR('',#1264,10.);
#144=VECTOR('',#1267,10.);
#145=VECTOR('',#1268,10.);
#146=VECTOR('',#1269,10.);
#147=VECTOR('',#1280,10.);
#148=VECTOR('',#1281,10.);
#149=VECTOR('',#1282,10.);
#150=VECTOR('',#1283,10.);
#151=VECTOR('',#1286,10.);
#152=VECTOR('',#1287,10.);
#153=VECTOR('',#1288,10.);
#154=VECTOR('',#1293,10.);
#155=VECTOR('',#1298,10.);
#156=VECTOR('',#1299,10.);
#157=VECTOR('',#1300,10.);
#158=VECTOR('',#1303,10.);
#159=VECTOR('',#1304,10.);
#160=VECTOR('',#1305,10.);
#161=VECTOR('',#1316,10.);
#162=VECTOR('',#1317,10.);
#163=VECTOR('',#1318,10.);
#164=VECTOR('',#1319,10.);
#165=VECTOR('',#1322,10.);
#166=VECTOR('',#1323,10.);
#167=VECTOR('',#1324,10.);
#168=VECTOR('',#1329,10.);
#169=VECTOR('',#1334,10.);
#170=VECTOR('',#1335,10.);
#171=VECTOR('',#1336,10.);
#172=VECTOR('',#1339,10.);
#173=VECTOR('',#1340,10.);
#174=VECTOR('',#1341,10.);
#175=VECTOR('',#1352,10.);
#176=VECTOR('',#1353,10.);
#177=VECTOR('',#1354,10.);
#178=VECTOR('',#1355,10.);
#179=VECTOR('',#1358,10.);
#180=VECTOR('',#1359,10.);
#181=VECTOR('',#1360,10.);
#182=VECTOR('',#1365,10.);
#183=VECTOR('',#1370,10.);
#184=VECTOR('',#1371,10.);
#185=VECTOR('',#1372,10.);
#186=VECTOR('',#1375,10.);
#187=VECTOR('',#1376,10.);
#188=VECTOR('',#1377,10.);
#189=VECTOR('',#1388,10.);
#190=VECTOR('',#1389,10.);
#191=VECTOR('',#1390,10.);
#192=VECTOR('',#1391,10.);
#193=VECTOR('',#1394,10.);
#194=VECTOR('',#1401,10.);
#195=VECTOR('',#1402,10.);
#196=VECTOR('',#1403,10.);
#197=VECTOR('',#1406,10.);
#198=VECTOR('',#1413,10.);
#199=VECTOR('',#1414,10.);
#200=VECTOR('',#1415,10.);
#201=VECTOR('',#1418,10.);
#202=VECTOR('',#1425,10.);
#203=VECTOR('',#1426,10.);
#204=VECTOR('',#1427,10.);
#205=VECTOR('',#1436,10.);
#206=VECTOR('',#1439,10.);
#207=VECTOR('',#1442,10.);
#208=VECTOR('',#1443,10.);
#209=VECTOR('',#1446,10.);
#210=VECTOR('',#1451,10.);
#211=VECTOR('',#1452,10.);
#212=VECTOR('',#1457,10.);
#213=VECTOR('',#1458,10.);
#214=VECTOR('',#1459,10.);
#215=VECTOR('',#1460,10.);
#216=VECTOR('',#1465,10.);
#217=VECTOR('',#1470,10.);
#218=VECTOR('',#1471,10.);
#219=VECTOR('',#1472,10.);
#220=VECTOR('',#1477,10.);
#221=VECTOR('',#1482,10.);
#222=VECTOR('',#1483,10.);
#223=VECTOR('',#1484,10.);
#224=VECTOR('',#1489,10.);
#225=VECTOR('',#1494,10.);
#226=VECTOR('',#1495,10.);
#227=VECTOR('',#1496,10.);
#228=VECTOR('',#1507,10.);
#229=VECTOR('',#1508,10.);
#230=VECTOR('',#1513,10.);
#231=VECTOR('',#1516,10.);
#232=VECTOR('',#1517,10.);
#233=VECTOR('',#1532,4.1);
#234=VECTOR('',#1543,4.1);
#235=CYLINDRICAL_SURFACE('',#1109,4.1);
#236=CYLINDRICAL_SURFACE('',#1114,4.1);
#237=CYLINDRICAL_SURFACE('',#1119,4.1);
#238=CYLINDRICAL_SURFACE('',#1124,4.1);
#239=CYLINDRICAL_SURFACE('',#1130,4.1);
#240=CYLINDRICAL_SURFACE('',#1135,4.1);
#241=CYLINDRICAL_SURFACE('',#1141,4.1);
#242=CYLINDRICAL_SURFACE('',#1146,4.1);
#243=CYLINDRICAL_SURFACE('',#1152,4.1);
#244=CYLINDRICAL_SURFACE('',#1157,4.1);
#245=CYLINDRICAL_SURFACE('',#1177,5.);
#246=CYLINDRICAL_SURFACE('',#1180,5.);
#247=CYLINDRICAL_SURFACE('',#1185,2.5);
#248=CYLINDRICAL_SURFACE('',#1189,2.49999999999999);
#249=CYLINDRICAL_SURFACE('',#1193,2.5);
#250=CYLINDRICAL_SURFACE('',#1197,2.5);
#251=CYLINDRICAL_SURFACE('',#1202,5.);
#252=CYLINDRICAL_SURFACE('',#1205,4.99999999999999);
#253=CYLINDRICAL_SURFACE('',#1210,4.1);
#254=CYLINDRICAL_SURFACE('',#1215,4.1);
#255=FACE_OUTER_BOUND('',#322,.T.);
#256=FACE_OUTER_BOUND('',#323,.T.);
#257=FACE_OUTER_BOUND('',#324,.T.);
#258=FACE_OUTER_BOUND('',#325,.T.);
#259=FACE_OUTER_BOUND('',#326,.T.);
#260=FACE_OUTER_BOUND('',#327,.T.);
#261=FACE_OUTER_BOUND('',#328,.T.);
#262=FACE_OUTER_BOUND('',#329,.T.);
#263=FACE_OUTER_BOUND('',#330,.T.);
#264=FACE_OUTER_BOUND('',#331,.T.);
#265=FACE_OUTER_BOUND('',#332,.T.);
#266=FACE_OUTER_BOUND('',#333,.T.);
#267=FACE_OUTER_BOUND('',#334,.T.);
#268=FACE_OUTER_BOUND('',#335,.T.);
#269=FACE_OUTER_BOUND('',#336,.T.);
#270=FACE_OUTER_BOUND('',#337,.T.);
#271=FACE_OUTER_BOUND('',#338,.T.);
#272=FACE_OUTER_BOUND('',#339,.T.);
#273=FACE_OUTER_BOUND('',#340,.T.);
#274=FACE_OUTER_BOUND('',#341,.T.);
#275=FACE_OUTER_BOUND('',#342,.T.);
#276=FACE_OUTER_BOUND('',#343,.T.);
#277=FACE_OUTER_BOUND('',#344,.T.);
#278=FACE_OUTER_BOUND('',#345,.T.);
#279=FACE_OUTER_BOUND('',#346,.T.);
#280=FACE_OUTER_BOUND('',#347,.T.);
#281=FACE_OUTER_BOUND('',#348,.T.);
#282=FACE_OUTER_BOUND('',#349,.T.);
#283=FACE_OUTER_BOUND('',#350,.T.);
#284=FACE_OUTER_BOUND('',#351,.T.);
#285=FACE_OUTER_BOUND('',#352,.T.);
#286=FACE_OUTER_BOUND('',#353,.T.);
#287=FACE_OUTER_BOUND('',#354,.T.);
#288=FACE_OUTER_BOUND('',#355,.T.);
#289=FACE_OUTER_BOUND('',#356,.T.);
#290=FACE_OUTER_BOUND('',#357,.T.);
#291=FACE_OUTER_BOUND('',#358,.T.);
#292=FACE_OUTER_BOUND('',#359,.T.);
#293=FACE_OUTER_BOUND('',#360,.T.);
#294=FACE_OUTER_BOUND('',#361,.T.);
#295=FACE_OUTER_BOUND('',#362,.T.);
#296=FACE_OUTER_BOUND('',#363,.T.);
#297=FACE_OUTER_BOUND('',#364,.T.);
#298=FACE_OUTER_BOUND('',#365,.T.);
#299=FACE_OUTER_BOUND('',#366,.T.);
#300=FACE_OUTER_BOUND('',#367,.T.);
#301=FACE_OUTER_BOUND('',#368,.T.);
#302=FACE_OUTER_BOUND('',#369,.T.);
#303=FACE_OUTER_BOUND('',#371,.T.);
#304=FACE_OUTER_BOUND('',#372,.T.);
#305=FACE_OUTER_BOUND('',#374,.T.);
#306=FACE_OUTER_BOUND('',#375,.T.);
#307=FACE_OUTER_BOUND('',#377,.T.);
#308=FACE_OUTER_BOUND('',#378,.T.);
#309=FACE_OUTER_BOUND('',#380,.T.);
#310=FACE_OUTER_BOUND('',#381,.T.);
#311=FACE_OUTER_BOUND('',#382,.T.);
#312=FACE_OUTER_BOUND('',#383,.T.);
#313=FACE_OUTER_BOUND('',#384,.T.);
#314=FACE_OUTER_BOUND('',#385,.T.);
#315=FACE_OUTER_BOUND('',#386,.T.);
#316=FACE_OUTER_BOUND('',#388,.T.);
#317=FACE_OUTER_BOUND('',#389,.T.);
#318=FACE_OUTER_BOUND('',#390,.T.);
#319=FACE_OUTER_BOUND('',#391,.T.);
#320=FACE_OUTER_BOUND('',#392,.T.);
#321=FACE_OUTER_BOUND('',#393,.T.);
#322=EDGE_LOOP('',(#682));
#323=EDGE_LOOP('',(#683,#684,#685,#686));
#324=EDGE_LOOP('',(#687));
#325=EDGE_LOOP('',(#688));
#326=EDGE_LOOP('',(#689,#690,#691,#692));
#327=EDGE_LOOP('',(#693));
#328=EDGE_LOOP('',(#694,#695,#696,#697));
#329=EDGE_LOOP('',(#698,#699,#700,#701));
#330=EDGE_LOOP('',(#702,#703,#704,#705));
#331=EDGE_LOOP('',(#706,#707,#708,#709));
#332=EDGE_LOOP('',(#710,#711,#712,#713));
#333=EDGE_LOOP('',(#714,#715,#716,#717));
#334=EDGE_LOOP('',(#718,#719,#720,#721,#722,#723));
#335=EDGE_LOOP('',(#724,#725,#726,#727));
#336=EDGE_LOOP('',(#728,#729,#730,#731));
#337=EDGE_LOOP('',(#732,#733,#734,#735));
#338=EDGE_LOOP('',(#736,#737,#738,#739));
#339=EDGE_LOOP('',(#740,#741,#742,#743));
#340=EDGE_LOOP('',(#744,#745,#746,#747));
#341=EDGE_LOOP('',(#748,#749,#750,#751,#752,#753));
#342=EDGE_LOOP('',(#754,#755,#756,#757));
#343=EDGE_LOOP('',(#758,#759,#760,#761));
#344=EDGE_LOOP('',(#762,#763,#764,#765));
#345=EDGE_LOOP('',(#766,#767,#768,#769));
#346=EDGE_LOOP('',(#770,#771,#772,#773));
#347=EDGE_LOOP('',(#774,#775,#776,#777));
#348=EDGE_LOOP('',(#778,#779,#780,#781,#782,#783));
#349=EDGE_LOOP('',(#784,#785,#786,#787));
#350=EDGE_LOOP('',(#788,#789,#790,#791));
#351=EDGE_LOOP('',(#792,#793,#794,#795));
#352=EDGE_LOOP('',(#796,#797,#798,#799));
#353=EDGE_LOOP('',(#800,#801,#802,#803));
#354=EDGE_LOOP('',(#804,#805,#806,#807));
#355=EDGE_LOOP('',(#808,#809,#810,#811,#812,#813));
#356=EDGE_LOOP('',(#814,#815,#816,#817));
#357=EDGE_LOOP('',(#818,#819,#820,#821));
#358=EDGE_LOOP('',(#822,#823,#824,#825));
#359=EDGE_LOOP('',(#826,#827,#828,#829));
#360=EDGE_LOOP('',(#830,#831,#832,#833));
#361=EDGE_LOOP('',(#834,#835,#836,#837));
#362=EDGE_LOOP('',(#838,#839,#840,#841));
#363=EDGE_LOOP('',(#842,#843,#844,#845));
#364=EDGE_LOOP('',(#846,#847,#848,#849));
#365=EDGE_LOOP('',(#850,#851,#852,#853));
#366=EDGE_LOOP('',(#854,#855,#856,#857));
#367=EDGE_LOOP('',(#858,#859,#860,#861));
#368=EDGE_LOOP('',(#862,#863,#864,#865,#866,#867,#868,#869));
#369=EDGE_LOOP('',(#870,#871,#872,#873));
#370=EDGE_LOOP('',(#874,#875,#876,#877,#878,#879));
#371=EDGE_LOOP('',(#880,#881,#882,#883));
#372=EDGE_LOOP('',(#884,#885,#886,#887));
#373=EDGE_LOOP('',(#888,#889,#890,#891,#892,#893));
#374=EDGE_LOOP('',(#894,#895,#896,#897));
#375=EDGE_LOOP('',(#898,#899,#900,#901));
#376=EDGE_LOOP('',(#902,#903,#904,#905,#906,#907));
#377=EDGE_LOOP('',(#908,#909,#910,#911));
#378=EDGE_LOOP('',(#912,#913,#914,#915));
#379=EDGE_LOOP('',(#916,#917,#918,#919,#920,#921));
#380=EDGE_LOOP('',(#922,#923,#924,#925));
#381=EDGE_LOOP('',(#926,#927,#928,#929,#930,#931,#932,#933));
#382=EDGE_LOOP('',(#934,#935,#936,#937));
#383=EDGE_LOOP('',(#938,#939,#940,#941));
#384=EDGE_LOOP('',(#942,#943,#944,#945));
#385=EDGE_LOOP('',(#946,#947,#948,#949));
#386=EDGE_LOOP('',(#950,#951,#952,#953,#954,#955,#956,#957));
#387=EDGE_LOOP('',(#958,#959,#960,#961,#962,#963,#964,#965));
#388=EDGE_LOOP('',(#966));
#389=EDGE_LOOP('',(#967,#968,#969,#970));
#390=EDGE_LOOP('',(#971));
#391=EDGE_LOOP('',(#972));
#392=EDGE_LOOP('',(#973,#974,#975,#976));
#393=EDGE_LOOP('',(#977));
#394=CIRCLE('',#1108,4.1);
#395=CIRCLE('',#1110,4.1);
#396=CIRCLE('',#1113,4.1);
#397=CIRCLE('',#1115,4.1);
#398=CIRCLE('',#1120,4.1);
#399=CIRCLE('',#1121,4.1);
#400=CIRCLE('',#1125,4.1);
#401=CIRCLE('',#1126,4.1);
#402=CIRCLE('',#1131,4.1);
#403=CIRCLE('',#1132,4.1);
#404=CIRCLE('',#1136,4.1);
#405=CIRCLE('',#1137,4.1);
#406=CIRCLE('',#1142,4.1);
#407=CIRCLE('',#1143,4.1);
#408=CIRCLE('',#1147,4.1);
#409=CIRCLE('',#1148,4.1);
#410=CIRCLE('',#1153,4.1);
#411=CIRCLE('',#1154,4.1);
#412=CIRCLE('',#1158,4.1);
#413=CIRCLE('',#1159,4.1);
#414=CIRCLE('',#1163,4.99999999999999);
#415=CIRCLE('',#1164,3.99999999999999);
#416=CIRCLE('',#1167,5.);
#417=CIRCLE('',#1168,4.);
#418=CIRCLE('',#1171,5.);
#419=CIRCLE('',#1172,4.);
#420=CIRCLE('',#1175,5.);
#421=CIRCLE('',#1176,4.);
#422=CIRCLE('',#1178,5.);
#423=CIRCLE('',#1181,5.);
#424=CIRCLE('',#1186,2.5);
#425=CIRCLE('',#1187,2.5);
#426=CIRCLE('',#1190,2.49999999999999);
#427=CIRCLE('',#1191,2.49999999999999);
#428=CIRCLE('',#1194,2.5);
#429=CIRCLE('',#1195,2.5);
#430=CIRCLE('',#1198,2.5);
#431=CIRCLE('',#1199,2.5);
#432=CIRCLE('',#1203,5.);
#433=CIRCLE('',#1206,4.99999999999999);
#434=CIRCLE('',#1209,4.1);
#435=CIRCLE('',#1211,4.1);
#436=CIRCLE('',#1214,4.1);
#437=CIRCLE('',#1216,4.1);
#438=VERTEX_POINT('',#1548);
#439=VERTEX_POINT('',#1551);
#440=VERTEX_POINT('',#1556);
#441=VERTEX_POINT('',#1559);
#442=VERTEX_POINT('',#1564);
#443=VERTEX_POINT('',#1565);
#444=VERTEX_POINT('',#1567);
#445=VERTEX_POINT('',#1569);
#446=VERTEX_POINT('',#1573);
#447=VERTEX_POINT('',#1575);
#448=VERTEX_POINT('',#1579);
#449=VERTEX_POINT('',#1581);
#450=VERTEX_POINT('',#1585);
#451=VERTEX_POINT('',#1587);
#452=VERTEX_POINT('',#1591);
#453=VERTEX_POINT('',#1593);
#454=VERTEX_POINT('',#1601);
#455=VERTEX_POINT('',#1602);
#456=VERTEX_POINT('',#1604);
#457=VERTEX_POINT('',#1606);
#458=VERTEX_POINT('',#1610);
#459=VERTEX_POINT('',#1612);
#460=VERTEX_POINT('',#1616);
#461=VERTEX_POINT('',#1618);
#462=VERTEX_POINT('',#1622);
#463=VERTEX_POINT('',#1624);
#464=VERTEX_POINT('',#1628);
#465=VERTEX_POINT('',#1630);
#466=VERTEX_POINT('',#1638);
#467=VERTEX_POINT('',#1639);
#468=VERTEX_POINT('',#1641);
#469=VERTEX_POINT('',#1643);
#470=VERTEX_POINT('',#1647);
#471=VERTEX_POINT('',#1649);
#472=VERTEX_POINT('',#1653);
#473=VERTEX_POINT('',#1655);
#474=VERTEX_POINT('',#1659);
#475=VERTEX_POINT('',#1661);
#476=VERTEX_POINT('',#1665);
#477=VERTEX_POINT('',#1667);
#478=VERTEX_POINT('',#1675);
#479=VERTEX_POINT('',#1676);
#480=VERTEX_POINT('',#1678);
#481=VERTEX_POINT('',#1680);
#482=VERTEX_POINT('',#1684);
#483=VERTEX_POINT('',#1686);
#484=VERTEX_POINT('',#1690);
#485=VERTEX_POINT('',#1692);
#486=VERTEX_POINT('',#1696);
#487=VERTEX_POINT('',#1698);
#488=VERTEX_POINT('',#1702);
#489=VERTEX_POINT('',#1704);
#490=VERTEX_POINT('',#1712);
#491=VERTEX_POINT('',#1713);
#492=VERTEX_POINT('',#1715);
#493=VERTEX_POINT('',#1717);
#494=VERTEX_POINT('',#1721);
#495=VERTEX_POINT('',#1722);
#496=VERTEX_POINT('',#1727);
#497=VERTEX_POINT('',#1728);
#498=VERTEX_POINT('',#1733);
#499=VERTEX_POINT('',#1734);
#500=VERTEX_POINT('',#1739);
#501=VERTEX_POINT('',#1740);
#502=VERTEX_POINT('',#1745);
#503=VERTEX_POINT('',#1746);
#504=VERTEX_POINT('',#1751);
#505=VERTEX_POINT('',#1752);
#506=VERTEX_POINT('',#1760);
#507=VERTEX_POINT('',#1762);
#508=VERTEX_POINT('',#1766);
#509=VERTEX_POINT('',#1770);
#510=VERTEX_POINT('',#1774);
#511=VERTEX_POINT('',#1779);
#512=VERTEX_POINT('',#1780);
#513=VERTEX_POINT('',#1782);
#514=VERTEX_POINT('',#1784);
#515=VERTEX_POINT('',#1788);
#516=VERTEX_POINT('',#1790);
#517=VERTEX_POINT('',#1794);
#518=VERTEX_POINT('',#1796);
#519=VERTEX_POINT('',#1800);
#520=VERTEX_POINT('',#1802);
#521=VERTEX_POINT('',#1806);
#522=VERTEX_POINT('',#1808);
#523=VERTEX_POINT('',#1812);
#524=VERTEX_POINT('',#1814);
#525=VERTEX_POINT('',#1818);
#526=VERTEX_POINT('',#1820);
#527=VERTEX_POINT('',#1828);
#528=VERTEX_POINT('',#1832);
#529=VERTEX_POINT('',#1836);
#530=VERTEX_POINT('',#1843);
#531=VERTEX_POINT('',#1846);
#532=VERTEX_POINT('',#1851);
#533=VERTEX_POINT('',#1854);
#534=EDGE_CURVE('',#438,#438,#394,.T.);
#535=EDGE_CURVE('',#439,#439,#395,.T.);
#536=EDGE_CURVE('',#439,#438,#27,.T.);
#537=EDGE_CURVE('',#440,#440,#396,.T.);
#538=EDGE_CURVE('',#441,#441,#397,.T.);
#539=EDGE_CURVE('',#441,#440,#28,.T.);
#540=EDGE_CURVE('',#442,#443,#29,.T.);
#541=EDGE_CURVE('',#442,#444,#30,.T.);
#542=EDGE_CURVE('',#444,#445,#31,.T.);
#543=EDGE_CURVE('',#443,#445,#32,.T.);
#544=EDGE_CURVE('',#446,#442,#33,.T.);
#545=EDGE_CURVE('',#446,#447,#34,.T.);
#546=EDGE_CURVE('',#447,#444,#35,.T.);
#547=EDGE_CURVE('',#448,#446,#398,.T.);
#548=EDGE_CURVE('',#448,#449,#36,.T.);
#549=EDGE_CURVE('',#449,#447,#399,.T.);
#550=EDGE_CURVE('',#450,#448,#37,.T.);
#551=EDGE_CURVE('',#450,#451,#38,.T.);
#552=EDGE_CURVE('',#451,#449,#39,.T.);
#553=EDGE_CURVE('',#452,#450,#40,.T.);
#554=EDGE_CURVE('',#452,#453,#41,.T.);
#555=EDGE_CURVE('',#453,#451,#42,.T.);
#556=EDGE_CURVE('',#443,#452,#400,.T.);
#557=EDGE_CURVE('',#445,#453,#401,.T.);
#558=EDGE_CURVE('',#454,#455,#43,.T.);
#559=EDGE_CURVE('',#454,#456,#44,.T.);
#560=EDGE_CURVE('',#456,#457,#45,.T.);
#561=EDGE_CURVE('',#455,#457,#46,.T.);
#562=EDGE_CURVE('',#458,#454,#47,.T.);
#563=EDGE_CURVE('',#458,#459,#48,.T.);
#564=EDGE_CURVE('',#459,#456,#49,.T.);
#565=EDGE_CURVE('',#460,#458,#402,.T.);
#566=EDGE_CURVE('',#460,#461,#50,.T.);
#567=EDGE_CURVE('',#461,#459,#403,.T.);
#568=EDGE_CURVE('',#462,#460,#51,.T.);
#569=EDGE_CURVE('',#462,#463,#52,.T.);
#570=EDGE_CURVE('',#463,#461,#53,.T.);
#571=EDGE_CURVE('',#464,#462,#54,.T.);
#572=EDGE_CURVE('',#464,#465,#55,.T.);
#573=EDGE_CURVE('',#465,#463,#56,.T.);
#574=EDGE_CURVE('',#455,#464,#404,.T.);
#575=EDGE_CURVE('',#457,#465,#405,.T.);
#576=EDGE_CURVE('',#466,#467,#57,.T.);
#577=EDGE_CURVE('',#466,#468,#58,.T.);
#578=EDGE_CURVE('',#468,#469,#59,.T.);
#579=EDGE_CURVE('',#467,#469,#60,.T.);
#580=EDGE_CURVE('',#470,#466,#61,.T.);
#581=EDGE_CURVE('',#470,#471,#62,.T.);
#582=EDGE_CURVE('',#471,#468,#63,.T.);
#583=EDGE_CURVE('',#472,#470,#406,.T.);
#584=EDGE_CURVE('',#472,#473,#64,.T.);
#585=EDGE_CURVE('',#473,#471,#407,.T.);
#586=EDGE_CURVE('',#474,#472,#65,.T.);
#587=EDGE_CURVE('',#474,#475,#66,.T.);
#588=EDGE_CURVE('',#475,#473,#67,.T.);
#589=EDGE_CURVE('',#476,#474,#68,.T.);
#590=EDGE_CURVE('',#476,#477,#69,.T.);
#591=EDGE_CURVE('',#477,#475,#70,.T.);
#592=EDGE_CURVE('',#467,#476,#408,.T.);
#593=EDGE_CURVE('',#469,#477,#409,.T.);
#594=EDGE_CURVE('',#478,#479,#71,.T.);
#595=EDGE_CURVE('',#478,#480,#72,.T.);
#596=EDGE_CURVE('',#480,#481,#73,.T.);
#597=EDGE_CURVE('',#479,#481,#74,.T.);
#598=EDGE_CURVE('',#482,#478,#75,.T.);
#599=EDGE_CURVE('',#482,#483,#76,.T.);
#600=EDGE_CURVE('',#483,#480,#77,.T.);
#601=EDGE_CURVE('',#484,#482,#410,.T.);
#602=EDGE_CURVE('',#484,#485,#78,.T.);
#603=EDGE_CURVE('',#485,#483,#411,.T.);
#604=EDGE_CURVE('',#486,#484,#79,.T.);
#605=EDGE_CURVE('',#486,#487,#80,.T.);
#606=EDGE_CURVE('',#487,#485,#81,.T.);
#607=EDGE_CURVE('',#488,#486,#82,.T.);
#608=EDGE_CURVE('',#488,#489,#83,.T.);
#609=EDGE_CURVE('',#489,#487,#84,.T.);
#610=EDGE_CURVE('',#479,#488,#412,.T.);
#611=EDGE_CURVE('',#481,#489,#413,.T.);
#612=EDGE_CURVE('',#490,#491,#85,.T.);
#613=EDGE_CURVE('',#491,#492,#86,.T.);
#614=EDGE_CURVE('',#492,#493,#87,.T.);
#615=EDGE_CURVE('',#493,#490,#88,.T.);
#616=EDGE_CURVE('',#494,#495,#89,.T.);
#617=EDGE_CURVE('',#495,#491,#414,.T.);
#618=EDGE_CURVE('',#490,#494,#415,.T.);
#619=EDGE_CURVE('',#496,#497,#90,.T.);
#620=EDGE_CURVE('',#497,#495,#91,.T.);
#621=EDGE_CURVE('',#494,#496,#92,.T.);
#622=EDGE_CURVE('',#498,#499,#93,.T.);
#623=EDGE_CURVE('',#499,#497,#416,.T.);
#624=EDGE_CURVE('',#496,#498,#417,.T.);
#625=EDGE_CURVE('',#500,#501,#94,.T.);
#626=EDGE_CURVE('',#501,#499,#95,.T.);
#627=EDGE_CURVE('',#498,#500,#96,.T.);
#628=EDGE_CURVE('',#502,#503,#97,.T.);
#629=EDGE_CURVE('',#503,#501,#418,.T.);
#630=EDGE_CURVE('',#500,#502,#419,.T.);
#631=EDGE_CURVE('',#504,#505,#98,.T.);
#632=EDGE_CURVE('',#505,#503,#99,.T.);
#633=EDGE_CURVE('',#502,#504,#100,.T.);
#634=EDGE_CURVE('',#492,#505,#420,.T.);
#635=EDGE_CURVE('',#504,#493,#421,.T.);
#636=EDGE_CURVE('',#503,#506,#101,.T.);
#637=EDGE_CURVE('',#507,#506,#422,.T.);
#638=EDGE_CURVE('',#501,#507,#102,.T.);
#639=EDGE_CURVE('',#505,#508,#103,.T.);
#640=EDGE_CURVE('',#506,#508,#104,.T.);
#641=EDGE_CURVE('',#492,#509,#105,.T.);
#642=EDGE_CURVE('',#508,#509,#423,.T.);
#643=EDGE_CURVE('',#491,#510,#106,.T.);
#644=EDGE_CURVE('',#509,#510,#107,.T.);
#645=EDGE_CURVE('',#511,#512,#108,.F.);
#646=EDGE_CURVE('',#511,#513,#109,.T.);
#647=EDGE_CURVE('',#514,#513,#110,.T.);
#648=EDGE_CURVE('',#512,#514,#111,.T.);
#649=EDGE_CURVE('',#515,#511,#424,.F.);
#650=EDGE_CURVE('',#515,#516,#112,.T.);
#651=EDGE_CURVE('',#513,#516,#425,.T.);
#652=EDGE_CURVE('',#517,#515,#113,.F.);
#653=EDGE_CURVE('',#517,#518,#114,.T.);
#654=EDGE_CURVE('',#516,#518,#115,.T.);
#655=EDGE_CURVE('',#519,#517,#426,.F.);
#656=EDGE_CURVE('',#519,#520,#116,.T.);
#657=EDGE_CURVE('',#518,#520,#427,.T.);
#658=EDGE_CURVE('',#521,#519,#117,.F.);
#659=EDGE_CURVE('',#521,#522,#118,.T.);
#660=EDGE_CURVE('',#520,#522,#119,.T.);
#661=EDGE_CURVE('',#523,#521,#428,.F.);
#662=EDGE_CURVE('',#523,#524,#120,.T.);
#663=EDGE_CURVE('',#522,#524,#429,.T.);
#664=EDGE_CURVE('',#525,#523,#121,.F.);
#665=EDGE_CURVE('',#525,#526,#122,.T.);
#666=EDGE_CURVE('',#524,#526,#123,.T.);
#667=EDGE_CURVE('',#512,#525,#430,.F.);
#668=EDGE_CURVE('',#526,#514,#431,.T.);
#669=EDGE_CURVE('',#527,#507,#124,.T.);
#670=EDGE_CURVE('',#499,#527,#125,.T.);
#671=EDGE_CURVE('',#528,#527,#432,.T.);
#672=EDGE_CURVE('',#497,#528,#126,.T.);
#673=EDGE_CURVE('',#529,#528,#127,.T.);
#674=EDGE_CURVE('',#495,#529,#128,.T.);
#675=EDGE_CURVE('',#510,#529,#433,.T.);
#676=EDGE_CURVE('',#530,#530,#434,.T.);
#677=EDGE_CURVE('',#531,#531,#435,.T.);
#678=EDGE_CURVE('',#531,#530,#129,.T.);
#679=EDGE_CURVE('',#532,#532,#436,.T.);
#680=EDGE_CURVE('',#533,#533,#437,.T.);
#681=EDGE_CURVE('',#533,#532,#130,.T.);
#682=ORIENTED_EDGE('',*,*,#534,.F.);
#683=ORIENTED_EDGE('',*,*,#535,.T.);
#684=ORIENTED_EDGE('',*,*,#536,.T.);
#685=ORIENTED_EDGE('',*,*,#534,.T.);
#686=ORIENTED_EDGE('',*,*,#536,.F.);
#687=ORIENTED_EDGE('',*,*,#535,.F.);
#688=ORIENTED_EDGE('',*,*,#537,.F.);
#689=ORIENTED_EDGE('',*,*,#538,.T.);
#690=ORIENTED_EDGE('',*,*,#539,.T.);
#691=ORIENTED_EDGE('',*,*,#537,.T.);
#692=ORIENTED_EDGE('',*,*,#539,.F.);
#693=ORIENTED_EDGE('',*,*,#538,.F.);
#694=ORIENTED_EDGE('',*,*,#540,.F.);
#695=ORIENTED_EDGE('',*,*,#541,.T.);
#696=ORIENTED_EDGE('',*,*,#542,.T.);
#697=ORIENTED_EDGE('',*,*,#543,.F.);
#698=ORIENTED_EDGE('',*,*,#544,.F.);
#699=ORIENTED_EDGE('',*,*,#545,.T.);
#700=ORIENTED_EDGE('',*,*,#546,.T.);
#701=ORIENTED_EDGE('',*,*,#541,.F.);
#702=ORIENTED_EDGE('',*,*,#547,.F.);
#703=ORIENTED_EDGE('',*,*,#548,.T.);
#704=ORIENTED_EDGE('',*,*,#549,.T.);
#705=ORIENTED_EDGE('',*,*,#545,.F.);
#706=ORIENTED_EDGE('',*,*,#550,.F.);
#707=ORIENTED_EDGE('',*,*,#551,.T.);
#708=ORIENTED_EDGE('',*,*,#552,.T.);
#709=ORIENTED_EDGE('',*,*,#548,.F.);
#710=ORIENTED_EDGE('',*,*,#553,.F.);
#711=ORIENTED_EDGE('',*,*,#554,.T.);
#712=ORIENTED_EDGE('',*,*,#555,.T.);
#713=ORIENTED_EDGE('',*,*,#551,.F.);
#714=ORIENTED_EDGE('',*,*,#556,.F.);
#715=ORIENTED_EDGE('',*,*,#543,.T.);
#716=ORIENTED_EDGE('',*,*,#557,.T.);
#717=ORIENTED_EDGE('',*,*,#554,.F.);
#718=ORIENTED_EDGE('',*,*,#557,.F.);
#719=ORIENTED_EDGE('',*,*,#542,.F.);
#720=ORIENTED_EDGE('',*,*,#546,.F.);
#721=ORIENTED_EDGE('',*,*,#549,.F.);
#722=ORIENTED_EDGE('',*,*,#552,.F.);
#723=ORIENTED_EDGE('',*,*,#555,.F.);
#724=ORIENTED_EDGE('',*,*,#558,.F.);
#725=ORIENTED_EDGE('',*,*,#559,.T.);
#726=ORIENTED_EDGE('',*,*,#560,.T.);
#727=ORIENTED_EDGE('',*,*,#561,.F.);
#728=ORIENTED_EDGE('',*,*,#562,.F.);
#729=ORIENTED_EDGE('',*,*,#563,.T.);
#730=ORIENTED_EDGE('',*,*,#564,.T.);
#731=ORIENTED_EDGE('',*,*,#559,.F.);
#732=ORIENTED_EDGE('',*,*,#565,.F.);
#733=ORIENTED_EDGE('',*,*,#566,.T.);
#734=ORIENTED_EDGE('',*,*,#567,.T.);
#735=ORIENTED_EDGE('',*,*,#563,.F.);
#736=ORIENTED_EDGE('',*,*,#568,.F.);
#737=ORIENTED_EDGE('',*,*,#569,.T.);
#738=ORIENTED_EDGE('',*,*,#570,.T.);
#739=ORIENTED_EDGE('',*,*,#566,.F.);
#740=ORIENTED_EDGE('',*,*,#571,.F.);
#741=ORIENTED_EDGE('',*,*,#572,.T.);
#742=ORIENTED_EDGE('',*,*,#573,.T.);
#743=ORIENTED_EDGE('',*,*,#569,.F.);
#744=ORIENTED_EDGE('',*,*,#574,.F.);
#745=ORIENTED_EDGE('',*,*,#561,.T.);
#746=ORIENTED_EDGE('',*,*,#575,.T.);
#747=ORIENTED_EDGE('',*,*,#572,.F.);
#748=ORIENTED_EDGE('',*,*,#575,.F.);
#749=ORIENTED_EDGE('',*,*,#560,.F.);
#750=ORIENTED_EDGE('',*,*,#564,.F.);
#751=ORIENTED_EDGE('',*,*,#567,.F.);
#752=ORIENTED_EDGE('',*,*,#570,.F.);
#753=ORIENTED_EDGE('',*,*,#573,.F.);
#754=ORIENTED_EDGE('',*,*,#576,.F.);
#755=ORIENTED_EDGE('',*,*,#577,.T.);
#756=ORIENTED_EDGE('',*,*,#578,.T.);
#757=ORIENTED_EDGE('',*,*,#579,.F.);
#758=ORIENTED_EDGE('',*,*,#580,.F.);
#759=ORIENTED_EDGE('',*,*,#581,.T.);
#760=ORIENTED_EDGE('',*,*,#582,.T.);
#761=ORIENTED_EDGE('',*,*,#577,.F.);
#762=ORIENTED_EDGE('',*,*,#583,.F.);
#763=ORIENTED_EDGE('',*,*,#584,.T.);
#764=ORIENTED_EDGE('',*,*,#585,.T.);
#765=ORIENTED_EDGE('',*,*,#581,.F.);
#766=ORIENTED_EDGE('',*,*,#586,.F.);
#767=ORIENTED_EDGE('',*,*,#587,.T.);
#768=ORIENTED_EDGE('',*,*,#588,.T.);
#769=ORIENTED_EDGE('',*,*,#584,.F.);
#770=ORIENTED_EDGE('',*,*,#589,.F.);
#771=ORIENTED_EDGE('',*,*,#590,.T.);
#772=ORIENTED_EDGE('',*,*,#591,.T.);
#773=ORIENTED_EDGE('',*,*,#587,.F.);
#774=ORIENTED_EDGE('',*,*,#592,.F.);
#775=ORIENTED_EDGE('',*,*,#579,.T.);
#776=ORIENTED_EDGE('',*,*,#593,.T.);
#777=ORIENTED_EDGE('',*,*,#590,.F.);
#778=ORIENTED_EDGE('',*,*,#593,.F.);
#779=ORIENTED_EDGE('',*,*,#578,.F.);
#780=ORIENTED_EDGE('',*,*,#582,.F.);
#781=ORIENTED_EDGE('',*,*,#585,.F.);
#782=ORIENTED_EDGE('',*,*,#588,.F.);
#783=ORIENTED_EDGE('',*,*,#591,.F.);
#784=ORIENTED_EDGE('',*,*,#594,.F.);
#785=ORIENTED_EDGE('',*,*,#595,.T.);
#786=ORIENTED_EDGE('',*,*,#596,.T.);
#787=ORIENTED_EDGE('',*,*,#597,.F.);
#788=ORIENTED_EDGE('',*,*,#598,.F.);
#789=ORIENTED_EDGE('',*,*,#599,.T.);
#790=ORIENTED_EDGE('',*,*,#600,.T.);
#791=ORIENTED_EDGE('',*,*,#595,.F.);
#792=ORIENTED_EDGE('',*,*,#601,.F.);
#793=ORIENTED_EDGE('',*,*,#602,.T.);
#794=ORIENTED_EDGE('',*,*,#603,.T.);
#795=ORIENTED_EDGE('',*,*,#599,.F.);
#796=ORIENTED_EDGE('',*,*,#604,.F.);
#797=ORIENTED_EDGE('',*,*,#605,.T.);
#798=ORIENTED_EDGE('',*,*,#606,.T.);
#799=ORIENTED_EDGE('',*,*,#602,.F.);
#800=ORIENTED_EDGE('',*,*,#607,.F.);
#801=ORIENTED_EDGE('',*,*,#608,.T.);
#802=ORIENTED_EDGE('',*,*,#609,.T.);
#803=ORIENTED_EDGE('',*,*,#605,.F.);
#804=ORIENTED_EDGE('',*,*,#610,.F.);
#805=ORIENTED_EDGE('',*,*,#597,.T.);
#806=ORIENTED_EDGE('',*,*,#611,.T.);
#807=ORIENTED_EDGE('',*,*,#608,.F.);
#808=ORIENTED_EDGE('',*,*,#611,.F.);
#809=ORIENTED_EDGE('',*,*,#596,.F.);
#810=ORIENTED_EDGE('',*,*,#600,.F.);
#811=ORIENTED_EDGE('',*,*,#603,.F.);
#812=ORIENTED_EDGE('',*,*,#606,.F.);
#813=ORIENTED_EDGE('',*,*,#609,.F.);
#814=ORIENTED_EDGE('',*,*,#612,.T.);
#815=ORIENTED_EDGE('',*,*,#613,.T.);
#816=ORIENTED_EDGE('',*,*,#614,.T.);
#817=ORIENTED_EDGE('',*,*,#615,.T.);
#818=ORIENTED_EDGE('',*,*,#616,.T.);
#819=ORIENTED_EDGE('',*,*,#617,.T.);
#820=ORIENTED_EDGE('',*,*,#612,.F.);
#821=ORIENTED_EDGE('',*,*,#618,.T.);
#822=ORIENTED_EDGE('',*,*,#619,.T.);
#823=ORIENTED_EDGE('',*,*,#620,.T.);
#824=ORIENTED_EDGE('',*,*,#616,.F.);
#825=ORIENTED_EDGE('',*,*,#621,.T.);
#826=ORIENTED_EDGE('',*,*,#622,.T.);
#827=ORIENTED_EDGE('',*,*,#623,.T.);
#828=ORIENTED_EDGE('',*,*,#619,.F.);
#829=ORIENTED_EDGE('',*,*,#624,.T.);
#830=ORIENTED_EDGE('',*,*,#625,.T.);
#831=ORIENTED_EDGE('',*,*,#626,.T.);
#832=ORIENTED_EDGE('',*,*,#622,.F.);
#833=ORIENTED_EDGE('',*,*,#627,.T.);
#834=ORIENTED_EDGE('',*,*,#628,.T.);
#835=ORIENTED_EDGE('',*,*,#629,.T.);
#836=ORIENTED_EDGE('',*,*,#625,.F.);
#837=ORIENTED_EDGE('',*,*,#630,.T.);
#838=ORIENTED_EDGE('',*,*,#631,.T.);
#839=ORIENTED_EDGE('',*,*,#632,.T.);
#840=ORIENTED_EDGE('',*,*,#628,.F.);
#841=ORIENTED_EDGE('',*,*,#633,.T.);
#842=ORIENTED_EDGE('',*,*,#614,.F.);
#843=ORIENTED_EDGE('',*,*,#634,.T.);
#844=ORIENTED_EDGE('',*,*,#631,.F.);
#845=ORIENTED_EDGE('',*,*,#635,.T.);
#846=ORIENTED_EDGE('',*,*,#629,.F.);
#847=ORIENTED_EDGE('',*,*,#636,.T.);
#848=ORIENTED_EDGE('',*,*,#637,.F.);
#849=ORIENTED_EDGE('',*,*,#638,.F.);
#850=ORIENTED_EDGE('',*,*,#632,.F.);
#851=ORIENTED_EDGE('',*,*,#639,.T.);
#852=ORIENTED_EDGE('',*,*,#640,.F.);
#853=ORIENTED_EDGE('',*,*,#636,.F.);
#854=ORIENTED_EDGE('',*,*,#634,.F.);
#855=ORIENTED_EDGE('',*,*,#641,.T.);
#856=ORIENTED_EDGE('',*,*,#642,.F.);
#857=ORIENTED_EDGE('',*,*,#639,.F.);
#858=ORIENTED_EDGE('',*,*,#613,.F.);
#859=ORIENTED_EDGE('',*,*,#643,.T.);
#860=ORIENTED_EDGE('',*,*,#644,.F.);
#861=ORIENTED_EDGE('',*,*,#641,.F.);
#862=ORIENTED_EDGE('',*,*,#615,.F.);
#863=ORIENTED_EDGE('',*,*,#635,.F.);
#864=ORIENTED_EDGE('',*,*,#633,.F.);
#865=ORIENTED_EDGE('',*,*,#630,.F.);
#866=ORIENTED_EDGE('',*,*,#627,.F.);
#867=ORIENTED_EDGE('',*,*,#624,.F.);
#868=ORIENTED_EDGE('',*,*,#621,.F.);
#869=ORIENTED_EDGE('',*,*,#618,.F.);
#870=ORIENTED_EDGE('',*,*,#645,.F.);
#871=ORIENTED_EDGE('',*,*,#646,.T.);
#872=ORIENTED_EDGE('',*,*,#647,.F.);
#873=ORIENTED_EDGE('',*,*,#648,.F.);
#874=ORIENTED_EDGE('',*,*,#576,.T.);
#875=ORIENTED_EDGE('',*,*,#592,.T.);
#876=ORIENTED_EDGE('',*,*,#589,.T.);
#877=ORIENTED_EDGE('',*,*,#586,.T.);
#878=ORIENTED_EDGE('',*,*,#583,.T.);
#879=ORIENTED_EDGE('',*,*,#580,.T.);
#880=ORIENTED_EDGE('',*,*,#649,.F.);
#881=ORIENTED_EDGE('',*,*,#650,.T.);
#882=ORIENTED_EDGE('',*,*,#651,.F.);
#883=ORIENTED_EDGE('',*,*,#646,.F.);
#884=ORIENTED_EDGE('',*,*,#652,.F.);
#885=ORIENTED_EDGE('',*,*,#653,.T.);
#886=ORIENTED_EDGE('',*,*,#654,.F.);
#887=ORIENTED_EDGE('',*,*,#650,.F.);
#888=ORIENTED_EDGE('',*,*,#594,.T.);
#889=ORIENTED_EDGE('',*,*,#610,.T.);
#890=ORIENTED_EDGE('',*,*,#607,.T.);
#891=ORIENTED_EDGE('',*,*,#604,.T.);
#892=ORIENTED_EDGE('',*,*,#601,.T.);
#893=ORIENTED_EDGE('',*,*,#598,.T.);
#894=ORIENTED_EDGE('',*,*,#655,.F.);
#895=ORIENTED_EDGE('',*,*,#656,.T.);
#896=ORIENTED_EDGE('',*,*,#657,.F.);
#897=ORIENTED_EDGE('',*,*,#653,.F.);
#898=ORIENTED_EDGE('',*,*,#658,.F.);
#899=ORIENTED_EDGE('',*,*,#659,.T.);
#900=ORIENTED_EDGE('',*,*,#660,.F.);
#901=ORIENTED_EDGE('',*,*,#656,.F.);
#902=ORIENTED_EDGE('',*,*,#540,.T.);
#903=ORIENTED_EDGE('',*,*,#556,.T.);
#904=ORIENTED_EDGE('',*,*,#553,.T.);
#905=ORIENTED_EDGE('',*,*,#550,.T.);
#906=ORIENTED_EDGE('',*,*,#547,.T.);
#907=ORIENTED_EDGE('',*,*,#544,.T.);
#908=ORIENTED_EDGE('',*,*,#661,.F.);
#909=ORIENTED_EDGE('',*,*,#662,.T.);
#910=ORIENTED_EDGE('',*,*,#663,.F.);
#911=ORIENTED_EDGE('',*,*,#659,.F.);
#912=ORIENTED_EDGE('',*,*,#664,.F.);
#913=ORIENTED_EDGE('',*,*,#665,.T.);
#914=ORIENTED_EDGE('',*,*,#666,.F.);
#915=ORIENTED_EDGE('',*,*,#662,.F.);
#916=ORIENTED_EDGE('',*,*,#558,.T.);
#917=ORIENTED_EDGE('',*,*,#574,.T.);
#918=ORIENTED_EDGE('',*,*,#571,.T.);
#919=ORIENTED_EDGE('',*,*,#568,.T.);
#920=ORIENTED_EDGE('',*,*,#565,.T.);
#921=ORIENTED_EDGE('',*,*,#562,.T.);
#922=ORIENTED_EDGE('',*,*,#667,.F.);
#923=ORIENTED_EDGE('',*,*,#648,.T.);
#924=ORIENTED_EDGE('',*,*,#668,.F.);
#925=ORIENTED_EDGE('',*,*,#665,.F.);
#926=ORIENTED_EDGE('',*,*,#667,.T.);
#927=ORIENTED_EDGE('',*,*,#664,.T.);
#928=ORIENTED_EDGE('',*,*,#661,.T.);
#929=ORIENTED_EDGE('',*,*,#658,.T.);
#930=ORIENTED_EDGE('',*,*,#655,.T.);
#931=ORIENTED_EDGE('',*,*,#652,.T.);
#932=ORIENTED_EDGE('',*,*,#649,.T.);
#933=ORIENTED_EDGE('',*,*,#645,.T.);
#934=ORIENTED_EDGE('',*,*,#626,.F.);
#935=ORIENTED_EDGE('',*,*,#638,.T.);
#936=ORIENTED_EDGE('',*,*,#669,.F.);
#937=ORIENTED_EDGE('',*,*,#670,.F.);
#938=ORIENTED_EDGE('',*,*,#623,.F.);
#939=ORIENTED_EDGE('',*,*,#670,.T.);
#940=ORIENTED_EDGE('',*,*,#671,.F.);
#941=ORIENTED_EDGE('',*,*,#672,.F.);
#942=ORIENTED_EDGE('',*,*,#620,.F.);
#943=ORIENTED_EDGE('',*,*,#672,.T.);
#944=ORIENTED_EDGE('',*,*,#673,.F.);
#945=ORIENTED_EDGE('',*,*,#674,.F.);
#946=ORIENTED_EDGE('',*,*,#617,.F.);
#947=ORIENTED_EDGE('',*,*,#674,.T.);
#948=ORIENTED_EDGE('',*,*,#675,.F.);
#949=ORIENTED_EDGE('',*,*,#643,.F.);
#950=ORIENTED_EDGE('',*,*,#637,.T.);
#951=ORIENTED_EDGE('',*,*,#640,.T.);
#952=ORIENTED_EDGE('',*,*,#642,.T.);
#953=ORIENTED_EDGE('',*,*,#644,.T.);
#954=ORIENTED_EDGE('',*,*,#675,.T.);
#955=ORIENTED_EDGE('',*,*,#673,.T.);
#956=ORIENTED_EDGE('',*,*,#671,.T.);
#957=ORIENTED_EDGE('',*,*,#669,.T.);
#958=ORIENTED_EDGE('',*,*,#647,.T.);
#959=ORIENTED_EDGE('',*,*,#651,.T.);
#960=ORIENTED_EDGE('',*,*,#654,.T.);
#961=ORIENTED_EDGE('',*,*,#657,.T.);
#962=ORIENTED_EDGE('',*,*,#660,.T.);
#963=ORIENTED_EDGE('',*,*,#663,.T.);
#964=ORIENTED_EDGE('',*,*,#666,.T.);
#965=ORIENTED_EDGE('',*,*,#668,.T.);
#966=ORIENTED_EDGE('',*,*,#676,.F.);
#967=ORIENTED_EDGE('',*,*,#677,.T.);
#968=ORIENTED_EDGE('',*,*,#678,.T.);
#969=ORIENTED_EDGE('',*,*,#676,.T.);
#970=ORIENTED_EDGE('',*,*,#678,.F.);
#971=ORIENTED_EDGE('',*,*,#677,.F.);
#972=ORIENTED_EDGE('',*,*,#679,.F.);
#973=ORIENTED_EDGE('',*,*,#680,.T.);
#974=ORIENTED_EDGE('',*,*,#681,.T.);
#975=ORIENTED_EDGE('',*,*,#679,.T.);
#976=ORIENTED_EDGE('',*,*,#681,.F.);
#977=ORIENTED_EDGE('',*,*,#680,.F.);
#978=PLANE('',#1107);
#979=PLANE('',#1111);
#980=PLANE('',#1112);
#981=PLANE('',#1116);
#982=PLANE('',#1117);
#983=PLANE('',#1118);
#984=PLANE('',#1122);
#985=PLANE('',#1123);
#986=PLANE('',#1127);
#987=PLANE('',#1128);
#988=PLANE('',#1129);
#989=PLANE('',#1133);
#990=PLANE('',#1134);
#991=PLANE('',#1138);
#992=PLANE('',#1139);
#993=PLANE('',#1140);
#994=PLANE('',#1144);
#995=PLANE('',#1145);
#996=PLANE('',#1149);
#997=PLANE('',#1150);
#998=PLANE('',#1151);
#999=PLANE('',#1155);
#1000=PLANE('',#1156);
#1001=PLANE('',#1160);
#1002=PLANE('',#1161);
#1003=PLANE('',#1165);
#1004=PLANE('',#1169);
#1005=PLANE('',#1173);
#1006=PLANE('',#1179);
#1007=PLANE('',#1182);
#1008=PLANE('',#1183);
#1009=PLANE('',#1184);
#1010=PLANE('',#1188);
#1011=PLANE('',#1192);
#1012=PLANE('',#1196);
#1013=PLANE('',#1200);
#1014=PLANE('',#1201);
#1015=PLANE('',#1204);
#1016=PLANE('',#1207);
#1017=PLANE('',#1208);
#1018=PLANE('',#1212);
#1019=PLANE('',#1213);
#1020=PLANE('',#1217);
#1021=ADVANCED_FACE('',(#255),#978,.T.);
#1022=ADVANCED_FACE('',(#256),#235,.F.);
#1023=ADVANCED_FACE('',(#257),#979,.F.);
#1024=ADVANCED_FACE('',(#258),#980,.T.);
#1025=ADVANCED_FACE('',(#259),#236,.F.);
#1026=ADVANCED_FACE('',(#260),#981,.F.);
#1027=ADVANCED_FACE('',(#261),#982,.F.);
#1028=ADVANCED_FACE('',(#262),#983,.F.);
#1029=ADVANCED_FACE('',(#263),#237,.F.);
#1030=ADVANCED_FACE('',(#264),#984,.F.);
#1031=ADVANCED_FACE('',(#265),#985,.F.);
#1032=ADVANCED_FACE('',(#266),#238,.F.);
#1033=ADVANCED_FACE('',(#267),#986,.T.);
#1034=ADVANCED_FACE('',(#268),#987,.F.);
#1035=ADVANCED_FACE('',(#269),#988,.F.);
#1036=ADVANCED_FACE('',(#270),#239,.F.);
#1037=ADVANCED_FACE('',(#271),#989,.F.);
#1038=ADVANCED_FACE('',(#272),#990,.F.);
#1039=ADVANCED_FACE('',(#273),#240,.F.);
#1040=ADVANCED_FACE('',(#274),#991,.T.);
#1041=ADVANCED_FACE('',(#275),#992,.F.);
#1042=ADVANCED_FACE('',(#276),#993,.F.);
#1043=ADVANCED_FACE('',(#277),#241,.F.);
#1044=ADVANCED_FACE('',(#278),#994,.F.);
#1045=ADVANCED_FACE('',(#279),#995,.F.);
#1046=ADVANCED_FACE('',(#280),#242,.F.);
#1047=ADVANCED_FACE('',(#281),#996,.T.);
#1048=ADVANCED_FACE('',(#282),#997,.F.);
#1049=ADVANCED_FACE('',(#283),#998,.F.);
#1050=ADVANCED_FACE('',(#284),#243,.F.);
#1051=ADVANCED_FACE('',(#285),#999,.F.);
#1052=ADVANCED_FACE('',(#286),#1000,.F.);
#1053=ADVANCED_FACE('',(#287),#244,.F.);
#1054=ADVANCED_FACE('',(#288),#1001,.T.);
#1055=ADVANCED_FACE('',(#289),#1002,.T.);
#1056=ADVANCED_FACE('',(#290),#19,.T.);
#1057=ADVANCED_FACE('',(#291),#1003,.T.);
#1058=ADVANCED_FACE('',(#292),#20,.T.);
#1059=ADVANCED_FACE('',(#293),#1004,.T.);
#1060=ADVANCED_FACE('',(#294),#21,.T.);
#1061=ADVANCED_FACE('',(#295),#1005,.T.);
#1062=ADVANCED_FACE('',(#296),#22,.T.);
#1063=ADVANCED_FACE('',(#297),#245,.T.);
#1064=ADVANCED_FACE('',(#298),#1006,.T.);
#1065=ADVANCED_FACE('',(#299),#246,.T.);
#1066=ADVANCED_FACE('',(#300),#1007,.T.);
#1067=ADVANCED_FACE('',(#301),#1008,.F.);
#1068=ADVANCED_FACE('',(#302,#14),#1009,.F.);
#1069=ADVANCED_FACE('',(#303),#247,.F.);
#1070=ADVANCED_FACE('',(#304,#15),#1010,.F.);
#1071=ADVANCED_FACE('',(#305),#248,.F.);
#1072=ADVANCED_FACE('',(#306,#16),#1011,.F.);
#1073=ADVANCED_FACE('',(#307),#249,.F.);
#1074=ADVANCED_FACE('',(#308,#17),#1012,.F.);
#1075=ADVANCED_FACE('',(#309),#250,.F.);
#1076=ADVANCED_FACE('',(#310),#1013,.T.);
#1077=ADVANCED_FACE('',(#311),#1014,.T.);
#1078=ADVANCED_FACE('',(#312),#251,.T.);
#1079=ADVANCED_FACE('',(#313),#1015,.T.);
#1080=ADVANCED_FACE('',(#314),#252,.T.);
#1081=ADVANCED_FACE('',(#315,#18),#1016,.T.);
#1082=ADVANCED_FACE('',(#316),#1017,.T.);
#1083=ADVANCED_FACE('',(#317),#253,.F.);
#1084=ADVANCED_FACE('',(#318),#1018,.F.);
#1085=ADVANCED_FACE('',(#319),#1019,.T.);
#1086=ADVANCED_FACE('',(#320),#254,.F.);
#1087=ADVANCED_FACE('',(#321),#1020,.F.);
#1088=CLOSED_SHELL('',(#1021,#1022,#1023));
#1089=CLOSED_SHELL('',(#1024,#1025,#1026));
#1090=CLOSED_SHELL('',(#1027,#1028,#1029,#1030,#1031,#1032,#1033,#1034,
#1035,#1036,#1037,#1038,#1039,#1040,#1041,#1042,#1043,#1044,#1045,#1046,
#1047,#1048,#1049,#1050,#1051,#1052,#1053,#1054,#1055,#1056,#1057,#1058,
#1059,#1060,#1061,#1062,#1063,#1064,#1065,#1066,#1067,#1068,#1069,#1070,
#1071,#1072,#1073,#1074,#1075,#1076,#1077,#1078,#1079,#1080,#1081));
#1091=CLOSED_SHELL('',(#1082,#1083,#1084));
#1092=CLOSED_SHELL('',(#1085,#1086,#1087));
#1093=BREP_WITH_VOIDS('Body1',#1090,(#23,#24,#25,#26));
#1094=DERIVED_UNIT_ELEMENT(#1096,1.);
#1095=DERIVED_UNIT_ELEMENT(#1863,-3.);
#1096=(
MASS_UNIT()
NAMED_UNIT(*)
SI_UNIT(.KILO.,.GRAM.)
);
#1097=DERIVED_UNIT((#1094,#1095));
#1098=MEASURE_REPRESENTATION_ITEM('density measure',
POSITIVE_RATIO_MEASURE(7850.),#1097);
#1099=PROPERTY_DEFINITION_REPRESENTATION(#1104,#1101);
#1100=PROPERTY_DEFINITION_REPRESENTATION(#1105,#1102);
#1101=REPRESENTATION('material name',(#1103),#1860);
#1102=REPRESENTATION('density',(#1098),#1860);
#1103=DESCRIPTIVE_REPRESENTATION_ITEM('Steel','Steel');
#1104=PROPERTY_DEFINITION('material property','material name',#1870);
#1105=PROPERTY_DEFINITION('material property','density of part',#1870);
#1106=AXIS2_PLACEMENT_3D('',#1546,#1218,#1219);
#1107=AXIS2_PLACEMENT_3D('',#1547,#1220,#1221);
#1108=AXIS2_PLACEMENT_3D('',#1549,#1222,#1223);
#1109=AXIS2_PLACEMENT_3D('',#1550,#1224,#1225);
#1110=AXIS2_PLACEMENT_3D('',#1552,#1226,#1227);
#1111=AXIS2_PLACEMENT_3D('',#1554,#1229,#1230);
#1112=AXIS2_PLACEMENT_3D('',#1555,#1231,#1232);
#1113=AXIS2_PLACEMENT_3D('',#1557,#1233,#1234);
#1114=AXIS2_PLACEMENT_3D('',#1558,#1235,#1236);
#1115=AXIS2_PLACEMENT_3D('',#1560,#1237,#1238);
#1116=AXIS2_PLACEMENT_3D('',#1562,#1240,#1241);
#1117=AXIS2_PLACEMENT_3D('',#1563,#1242,#1243);
#1118=AXIS2_PLACEMENT_3D('',#1572,#1248,#1249);
#1119=AXIS2_PLACEMENT_3D('',#1578,#1253,#1254);
#1120=AXIS2_PLACEMENT_3D('',#1580,#1255,#1256);
#1121=AXIS2_PLACEMENT_3D('',#1583,#1258,#1259);
#1122=AXIS2_PLACEMENT_3D('',#1584,#1260,#1261);
#1123=AXIS2_PLACEMENT_3D('',#1590,#1265,#1266);
#1124=AXIS2_PLACEMENT_3D('',#1596,#1270,#1271);
#1125=AXIS2_PLACEMENT_3D('',#1597,#1272,#1273);
#1126=AXIS2_PLACEMENT_3D('',#1598,#1274,#1275);
#1127=AXIS2_PLACEMENT_3D('',#1599,#1276,#1277);
#1128=AXIS2_PLACEMENT_3D('',#1600,#1278,#1279);
#1129=AXIS2_PLACEMENT_3D('',#1609,#1284,#1285);
#1130=AXIS2_PLACEMENT_3D('',#1615,#1289,#1290);
#1131=AXIS2_PLACEMENT_3D('',#1617,#1291,#1292);
#1132=AXIS2_PLACEMENT_3D('',#1620,#1294,#1295);
#1133=AXIS2_PLACEMENT_3D('',#1621,#1296,#1297);
#1134=AXIS2_PLACEMENT_3D('',#1627,#1301,#1302);
#1135=AXIS2_PLACEMENT_3D('',#1633,#1306,#1307);
#1136=AXIS2_PLACEMENT_3D('',#1634,#1308,#1309);
#1137=AXIS2_PLACEMENT_3D('',#1635,#1310,#1311);
#1138=AXIS2_PLACEMENT_3D('',#1636,#1312,#1313);
#1139=AXIS2_PLACEMENT_3D('',#1637,#1314,#1315);
#1140=AXIS2_PLACEMENT_3D('',#1646,#1320,#1321);
#1141=AXIS2_PLACEMENT_3D('',#1652,#1325,#1326);
#1142=AXIS2_PLACEMENT_3D('',#1654,#1327,#1328);
#1143=AXIS2_PLACEMENT_3D('',#1657,#1330,#1331);
#1144=AXIS2_PLACEMENT_3D('',#1658,#1332,#1333);
#1145=AXIS2_PLACEMENT_3D('',#1664,#1337,#1338);
#1146=AXIS2_PLACEMENT_3D('',#1670,#1342,#1343);
#1147=AXIS2_PLACEMENT_3D('',#1671,#1344,#1345);
#1148=AXIS2_PLACEMENT_3D('',#1672,#1346,#1347);
#1149=AXIS2_PLACEMENT_3D('',#1673,#1348,#1349);
#1150=AXIS2_PLACEMENT_3D('',#1674,#1350,#1351);
#1151=AXIS2_PLACEMENT_3D('',#1683,#1356,#1357);
#1152=AXIS2_PLACEMENT_3D('',#1689,#1361,#1362);
#1153=AXIS2_PLACEMENT_3D('',#1691,#1363,#1364);
#1154=AXIS2_PLACEMENT_3D('',#1694,#1366,#1367);
#1155=AXIS2_PLACEMENT_3D('',#1695,#1368,#1369);
#1156=AXIS2_PLACEMENT_3D('',#1701,#1373,#1374);
#1157=AXIS2_PLACEMENT_3D('',#1707,#1378,#1379);
#1158=AXIS2_PLACEMENT_3D('',#1708,#1380,#1381);
#1159=AXIS2_PLACEMENT_3D('',#1709,#1382,#1383);
#1160=AXIS2_PLACEMENT_3D('',#1710,#1384,#1385);
#1161=AXIS2_PLACEMENT_3D('',#1711,#1386,#1387);
#1162=AXIS2_PLACEMENT_3D('',#1720,#1392,#1393);
#1163=AXIS2_PLACEMENT_3D('',#1724,#1395,#1396);
#1164=AXIS2_PLACEMENT_3D('',#1725,#1397,#1398);
#1165=AXIS2_PLACEMENT_3D('',#1726,#1399,#1400);
#1166=AXIS2_PLACEMENT_3D('',#1732,#1404,#1405);
#1167=AXIS2_PLACEMENT_3D('',#1736,#1407,#1408);
#1168=AXIS2_PLACEMENT_3D('',#1737,#1409,#1410);
#1169=AXIS2_PLACEMENT_3D('',#1738,#1411,#1412);
#1170=AXIS2_PLACEMENT_3D('',#1744,#1416,#1417);
#1171=AXIS2_PLACEMENT_3D('',#1748,#1419,#1420);
#1172=AXIS2_PLACEMENT_3D('',#1749,#1421,#1422);
#1173=AXIS2_PLACEMENT_3D('',#1750,#1423,#1424);
#1174=AXIS2_PLACEMENT_3D('',#1756,#1428,#1429);
#1175=AXIS2_PLACEMENT_3D('',#1757,#1430,#1431);
#1176=AXIS2_PLACEMENT_3D('',#1758,#1432,#1433);
#1177=AXIS2_PLACEMENT_3D('',#1759,#1434,#1435);
#1178=AXIS2_PLACEMENT_3D('',#1763,#1437,#1438);
#1179=AXIS2_PLACEMENT_3D('',#1765,#1440,#1441);
#1180=AXIS2_PLACEMENT_3D('',#1769,#1444,#1445);
#1181=AXIS2_PLACEMENT_3D('',#1772,#1447,#1448);
#1182=AXIS2_PLACEMENT_3D('',#1773,#1449,#1450);
#1183=AXIS2_PLACEMENT_3D('',#1777,#1453,#1454);
#1184=AXIS2_PLACEMENT_3D('',#1778,#1455,#1456);
#1185=AXIS2_PLACEMENT_3D('',#1787,#1461,#1462);
#1186=AXIS2_PLACEMENT_3D('',#1789,#1463,#1464);
#1187=AXIS2_PLACEMENT_3D('',#1792,#1466,#1467);
#1188=AXIS2_PLACEMENT_3D('',#1793,#1468,#1469);
#1189=AXIS2_PLACEMENT_3D('',#1799,#1473,#1474);
#1190=AXIS2_PLACEMENT_3D('',#1801,#1475,#1476);
#1191=AXIS2_PLACEMENT_3D('',#1804,#1478,#1479);
#1192=AXIS2_PLACEMENT_3D('',#1805,#1480,#1481);
#1193=AXIS2_PLACEMENT_3D('',#1811,#1485,#1486);
#1194=AXIS2_PLACEMENT_3D('',#1813,#1487,#1488);
#1195=AXIS2_PLACEMENT_3D('',#1816,#1490,#1491);
#1196=AXIS2_PLACEMENT_3D('',#1817,#1492,#1493);
#1197=AXIS2_PLACEMENT_3D('',#1823,#1497,#1498);
#1198=AXIS2_PLACEMENT_3D('',#1824,#1499,#1500);
#1199=AXIS2_PLACEMENT_3D('',#1825,#1501,#1502);
#1200=AXIS2_PLACEMENT_3D('',#1826,#1503,#1504);
#1201=AXIS2_PLACEMENT_3D('',#1827,#1505,#1506);
#1202=AXIS2_PLACEMENT_3D('',#1831,#1509,#1510);
#1203=AXIS2_PLACEMENT_3D('',#1833,#1511,#1512);
#1204=AXIS2_PLACEMENT_3D('',#1835,#1514,#1515);
#1205=AXIS2_PLACEMENT_3D('',#1839,#1518,#1519);
#1206=AXIS2_PLACEMENT_3D('',#1840,#1520,#1521);
#1207=AXIS2_PLACEMENT_3D('',#1841,#1522,#1523);
#1208=AXIS2_PLACEMENT_3D('',#1842,#1524,#1525);
#1209=AXIS2_PLACEMENT_3D('',#1844,#1526,#1527);
#1210=AXIS2_PLACEMENT_3D('',#1845,#1528,#1529);
#1211=AXIS2_PLACEMENT_3D('',#1847,#1530,#1531);
#1212=AXIS2_PLACEMENT_3D('',#1849,#1533,#1534);
#1213=AXIS2_PLACEMENT_3D('',#1850,#1535,#1536);
#1214=AXIS2_PLACEMENT_3D('',#1852,#1537,#1538);
#1215=AXIS2_PLACEMENT_3D('',#1853,#1539,#1540);
#1216=AXIS2_PLACEMENT_3D('',#1855,#1541,#1542);
#1217=AXIS2_PLACEMENT_3D('',#1857,#1544,#1545);
#1218=DIRECTION('axis',(0.,0.,1.));
#1219=DIRECTION('refdir',(1.,0.,0.));
#1220=DIRECTION('center_axis',(0.,1.,0.));
#1221=DIRECTION('ref_axis',(1.,0.,0.));
#1222=DIRECTION('center_axis',(0.,-1.,0.));
#1223=DIRECTION('ref_axis',(-1.,6.12323399573677E-17,0.));
#1224=DIRECTION('center_axis',(-6.12323399573677E-17,-1.,0.));
#1225=DIRECTION('ref_axis',(-1.,6.12323399573677E-17,0.));
#1226=DIRECTION('center_axis',(6.12323399573677E-17,1.,0.));
#1227=DIRECTION('ref_axis',(-1.,6.12323399573677E-17,0.));
#1228=DIRECTION('',(-6.12323399573677E-17,-1.,0.));
#1229=DIRECTION('center_axis',(6.12323399573677E-17,1.,0.));
#1230=DIRECTION('ref_axis',(-1.,6.12323399573677E-17,0.));
#1231=DIRECTION('center_axis',(-1.,0.,0.));
#1232=DIRECTION('ref_axis',(0.,1.,0.));
#1233=DIRECTION('center_axis',(1.,0.,0.));
#1234=DIRECTION('ref_axis',(-1.22464679914735E-16,-1.,0.));
#1235=DIRECTION('center_axis',(1.,-1.22464679914735E-16,0.));
#1236=DIRECTION('ref_axis',(-1.22464679914735E-16,-1.,0.));
#1237=DIRECTION('center_axis',(-1.,1.22464679914735E-16,0.));
#1238=DIRECTION('ref_axis',(-1.22464679914735E-16,-1.,0.));
#1239=DIRECTION('',(1.,-1.22464679914735E-16,0.));
#1240=DIRECTION('center_axis',(-1.,1.22464679914735E-16,0.));
#1241=DIRECTION('ref_axis',(-1.22464679914735E-16,-1.,0.));
#1242=DIRECTION('center_axis',(1.1807816831013E-16,0.64278760968654,-0.766044443118978));
#1243=DIRECTION('ref_axis',(1.40720081290541E-16,0.766044443118978,0.64278760968654));
#1244=DIRECTION('',(-1.06310022329606E-16,0.766044443118978,0.64278760968654));
#1245=DIRECTION('',(1.,-1.83697019872103E-16,0.));
#1246=DIRECTION('',(1.40720081290541E-16,0.766044443118978,0.64278760968654));
#1247=DIRECTION('',(1.,-1.83697019872103E-16,0.));
#1248=DIRECTION('center_axis',(-1.1807816831013E-16,-0.642787609686539,
-0.766044443118978));
#1249=DIRECTION('ref_axis',(1.40720081290541E-16,0.766044443118978,-0.642787609686539));
#1250=DIRECTION('',(-1.06310022329606E-16,0.766044443118978,-0.642787609686539));
#1251=DIRECTION('',(1.,-1.83697019872103E-16,0.));
#1252=DIRECTION('',(1.40720081290541E-16,0.766044443118978,-0.642787609686539));
#1253=DIRECTION('center_axis',(1.,-1.83697019872103E-16,0.));
#1254=DIRECTION('ref_axis',(-1.83697019872103E-16,-1.,0.));
#1255=DIRECTION('center_axis',(1.,1.38777878078145E-16,0.));
#1256=DIRECTION('ref_axis',(-1.83697019872103E-16,-1.,0.));
#1257=DIRECTION('',(1.,-1.83697019872103E-16,0.));
#1258=DIRECTION('center_axis',(1.,-1.83697019872103E-16,0.));
#1259=DIRECTION('ref_axis',(-1.83697019872103E-16,-1.,0.));
#1260=DIRECTION('center_axis',(-1.1807816831013E-16,-0.642787609686539,
0.766044443118978));
#1261=DIRECTION('ref_axis',(-1.40720081290541E-16,-0.766044443118978,-0.642787609686539));
#1262=DIRECTION('',(1.06310022329606E-16,-0.766044443118978,-0.642787609686539));
#1263=DIRECTION('',(1.,-1.83697019872103E-16,0.));
#1264=DIRECTION('',(-1.40720081290541E-16,-0.766044443118978,-0.642787609686539));
#1265=DIRECTION('center_axis',(1.1807816831013E-16,0.642787609686539,0.766044443118978));
#1266=DIRECTION('ref_axis',(-1.40720081290541E-16,-0.766044443118978,0.642787609686539));
#1267=DIRECTION('',(1.06310022329606E-16,-0.766044443118978,0.642787609686539));
#1268=DIRECTION('',(1.,-1.83697019872103E-16,0.));
#1269=DIRECTION('',(-1.40720081290541E-16,-0.766044443118978,0.642787609686539));
#1270=DIRECTION('center_axis',(1.,-1.83697019872103E-16,0.));
#1271=DIRECTION('ref_axis',(1.83697019872103E-16,1.,7.6571373978539E-16));
#1272=DIRECTION('center_axis',(1.,1.38777878078145E-16,0.));
#1273=DIRECTION('ref_axis',(-1.83697019872103E-16,-1.,0.));
#1274=DIRECTION('center_axis',(1.,-1.83697019872103E-16,0.));
#1275=DIRECTION('ref_axis',(-1.83697019872103E-16,-1.,0.));
#1276=DIRECTION('center_axis',(-1.,1.83697019872103E-16,0.));
#1277=DIRECTION('ref_axis',(-1.83697019872103E-16,-1.,0.));
#1278=DIRECTION('center_axis',(0.64278760968654,-7.87187788734199E-17,-0.766044443118978));
#1279=DIRECTION('ref_axis',(0.766044443118978,-9.38133875270273E-17,0.64278760968654));
#1280=DIRECTION('',(0.766044443118978,0.,0.64278760968654));
#1281=DIRECTION('',(-1.22464679914735E-16,-1.,0.));
#1282=DIRECTION('',(0.766044443118978,-9.38133875270273E-17,0.64278760968654));
#1283=DIRECTION('',(-1.22464679914735E-16,-1.,0.));
#1284=DIRECTION('center_axis',(-0.642787609686539,7.87187788734198E-17,
-0.766044443118978));
#1285=DIRECTION('ref_axis',(0.766044443118978,-9.38133875270274E-17,-0.642787609686539));
#1286=DIRECTION('',(0.766044443118978,0.,-0.642787609686539));
#1287=DIRECTION('',(-1.22464679914735E-16,-1.,0.));
#1288=DIRECTION('',(0.766044443118978,-9.38133875270273E-17,-0.642787609686539));
#1289=DIRECTION('center_axis',(-1.22464679914735E-16,-1.,0.));
#1290=DIRECTION('ref_axis',(-1.,1.22464679914735E-16,0.));
#1291=DIRECTION('center_axis',(0.,-1.,0.));
#1292=DIRECTION('ref_axis',(-1.,1.22464679914735E-16,0.));
#1293=DIRECTION('',(-1.22464679914735E-16,-1.,0.));
#1294=DIRECTION('center_axis',(-1.22464679914735E-16,-1.,0.));
#1295=DIRECTION('ref_axis',(-1.,1.22464679914735E-16,0.));
#1296=DIRECTION('center_axis',(-0.642787609686539,7.87187788734199E-17,
0.766044443118978));
#1297=DIRECTION('ref_axis',(-0.766044443118978,9.38133875270273E-17,-0.642787609686539));
#1298=DIRECTION('',(-0.766044443118978,0.,-0.642787609686539));
#1299=DIRECTION('',(-1.22464679914735E-16,-1.,0.));
#1300=DIRECTION('',(-0.766044443118978,9.38133875270273E-17,-0.642787609686539));
#1301=DIRECTION('center_axis',(0.642787609686539,-7.87187788734199E-17,
0.766044443118978));
#1302=DIRECTION('ref_axis',(-0.766044443118978,9.38133875270273E-17,0.642787609686539));
#1303=DIRECTION('',(-0.766044443118978,0.,0.642787609686539));
#1304=DIRECTION('',(-1.22464679914735E-16,-1.,0.));
#1305=DIRECTION('',(-0.766044443118978,9.38133875270273E-17,0.642787609686539));
#1306=DIRECTION('center_axis',(-1.22464679914735E-16,-1.,0.));
#1307=DIRECTION('ref_axis',(1.,-1.22464679914735E-16,7.6571373978539E-16));
#1308=DIRECTION('center_axis',(0.,-1.,0.));
#1309=DIRECTION('ref_axis',(-1.,1.22464679914735E-16,0.));
#1310=DIRECTION('center_axis',(-1.22464679914735E-16,-1.,0.));
#1311=DIRECTION('ref_axis',(-1.,1.22464679914735E-16,0.));
#1312=DIRECTION('center_axis',(1.22464679914735E-16,1.,0.));
#1313=DIRECTION('ref_axis',(-1.,1.22464679914735E-16,0.));
#1314=DIRECTION('center_axis',(-3.935938943671E-17,-0.64278760968654,-0.766044443118978));
#1315=DIRECTION('ref_axis',(-4.69066937635136E-17,-0.766044443118978,0.64278760968654));
#1316=DIRECTION('',(0.,-0.766044443118978,0.64278760968654));
#1317=DIRECTION('',(-1.,6.12323399573677E-17,0.));
#1318=DIRECTION('',(-4.69066937635136E-17,-0.766044443118978,0.64278760968654));
#1319=DIRECTION('',(-1.,6.12323399573677E-17,0.));
#1320=DIRECTION('center_axis',(3.93593894367099E-17,0.642787609686539,-0.766044443118978));
#1321=DIRECTION('ref_axis',(-4.69066937635137E-17,-0.766044443118978,-0.642787609686539));
#1322=DIRECTION('',(0.,-0.766044443118978,-0.642787609686539));
#1323=DIRECTION('',(-1.,6.12323399573677E-17,0.));
#1324=DIRECTION('',(-4.69066937635137E-17,-0.766044443118978,-0.642787609686539));
#1325=DIRECTION('center_axis',(-1.,6.12323399573677E-17,0.));
#1326=DIRECTION('ref_axis',(6.12323399573677E-17,1.,0.));
#1327=DIRECTION('center_axis',(-1.,0.,0.));
#1328=DIRECTION('ref_axis',(6.12323399573677E-17,1.,0.));
#1329=DIRECTION('',(-1.,6.12323399573677E-17,0.));
#1330=DIRECTION('center_axis',(-1.,6.12323399573677E-17,0.));
#1331=DIRECTION('ref_axis',(6.12323399573677E-17,1.,0.));
#1332=DIRECTION('center_axis',(3.93593894367099E-17,0.642787609686539,0.766044443118978));
#1333=DIRECTION('ref_axis',(4.69066937635137E-17,0.766044443118978,-0.642787609686539));
#1334=DIRECTION('',(0.,0.766044443118978,-0.642787609686539));
#1335=DIRECTION('',(-1.,6.12323399573677E-17,0.));
#1336=DIRECTION('',(4.69066937635137E-17,0.766044443118978,-0.642787609686539));
#1337=DIRECTION('center_axis',(-3.93593894367099E-17,-0.642787609686539,
0.766044443118978));
#1338=DIRECTION('ref_axis',(4.69066937635137E-17,0.766044443118978,0.642787609686539));
#1339=DIRECTION('',(0.,0.766044443118978,0.642787609686539));
#1340=DIRECTION('',(-1.,6.12323399573677E-17,0.));
#1341=DIRECTION('',(4.69066937635137E-17,0.766044443118978,0.642787609686539));
#1342=DIRECTION('center_axis',(-1.,6.12323399573677E-17,0.));
#1343=DIRECTION('ref_axis',(-6.12323399573677E-17,-1.,7.6571373978539E-16));
#1344=DIRECTION('center_axis',(-1.,0.,0.));
#1345=DIRECTION('ref_axis',(6.12323399573677E-17,1.,0.));
#1346=DIRECTION('center_axis',(-1.,6.12323399573677E-17,0.));
#1347=DIRECTION('ref_axis',(6.12323399573677E-17,1.,0.));
#1348=DIRECTION('center_axis',(1.,-6.12323399573677E-17,0.));
#1349=DIRECTION('ref_axis',(6.12323399573677E-17,1.,0.));
#1350=DIRECTION('center_axis',(-0.64278760968654,0.,-0.766044443118978));
#1351=DIRECTION('ref_axis',(-0.766044443118978,0.,0.64278760968654));
#1352=DIRECTION('',(-0.766044443118978,0.,0.64278760968654));
#1353=DIRECTION('',(0.,1.,0.));
#1354=DIRECTION('',(-0.766044443118978,0.,0.64278760968654));
#1355=DIRECTION('',(0.,1.,0.));
#1356=DIRECTION('center_axis',(0.642787609686539,0.,-0.766044443118978));
#1357=DIRECTION('ref_axis',(-0.766044443118978,0.,-0.642787609686539));
#1358=DIRECTION('',(-0.766044443118978,0.,-0.642787609686539));
#1359=DIRECTION('',(0.,1.,0.));
#1360=DIRECTION('',(-0.766044443118978,0.,-0.642787609686539));
#1361=DIRECTION('center_axis',(0.,1.,0.));
#1362=DIRECTION('ref_axis',(1.,0.,0.));
#1363=DIRECTION('center_axis',(0.,1.,0.));
#1364=DIRECTION('ref_axis',(1.,0.,0.));
#1365=DIRECTION('',(0.,1.,0.));
#1366=DIRECTION('center_axis',(0.,1.,0.));
#1367=DIRECTION('ref_axis',(1.,0.,0.));
#1368=DIRECTION('center_axis',(0.642787609686539,0.,0.766044443118978));
#1369=DIRECTION('ref_axis',(0.766044443118978,0.,-0.642787609686539));
#1370=DIRECTION('',(0.766044443118978,0.,-0.642787609686539));
#1371=DIRECTION('',(0.,1.,0.));
#1372=DIRECTION('',(0.766044443118978,0.,-0.642787609686539));
#1373=DIRECTION('center_axis',(-0.642787609686539,0.,0.766044443118978));
#1374=DIRECTION('ref_axis',(0.766044443118978,0.,0.642787609686539));
#1375=DIRECTION('',(0.766044443118978,0.,0.642787609686539));
#1376=DIRECTION('',(0.,1.,0.));
#1377=DIRECTION('',(0.766044443118978,0.,0.642787609686539));
#1378=DIRECTION('center_axis',(0.,1.,0.));
#1379=DIRECTION('ref_axis',(-1.,0.,7.6571373978539E-16));
#1380=DIRECTION('center_axis',(0.,1.,0.));
#1381=DIRECTION('ref_axis',(1.,0.,0.));
#1382=DIRECTION('center_axis',(0.,1.,0.));
#1383=DIRECTION('ref_axis',(1.,0.,0.));
#1384=DIRECTION('center_axis',(0.,-1.,0.));
#1385=DIRECTION('ref_axis',(1.,0.,0.));
#1386=DIRECTION('center_axis',(0.707106781186547,9.81307786677359E-17,-0.707106781186548));
#1387=DIRECTION('ref_axis',(-0.707106781186548,0.,-0.707106781186547));
#1388=DIRECTION('',(0.707106781186548,0.,0.707106781186547));
#1389=DIRECTION('',(1.38777878078145E-16,-1.,0.));
#1390=DIRECTION('',(-0.707106781186548,0.,-0.707106781186547));
#1391=DIRECTION('',(-1.38777878078145E-16,1.,0.));
#1392=DIRECTION('center_axis',(0.,0.,1.));
#1393=DIRECTION('ref_axis',(1.,-1.33226762955019E-15,0.));
#1394=DIRECTION('',(0.,0.707106781186547,0.707106781186548));
#1395=DIRECTION('center_axis',(0.,0.,-1.));
#1396=DIRECTION('ref_axis',(1.,-1.33226762955019E-15,0.));
#1397=DIRECTION('center_axis',(0.,0.,1.));
#1398=DIRECTION('ref_axis',(1.,-1.33226762955019E-15,0.));
#1399=DIRECTION('center_axis',(0.,0.707106781186547,-0.707106781186548));
#1400=DIRECTION('ref_axis',(-1.,0.,0.));
#1401=DIRECTION('',(0.,0.707106781186548,0.707106781186547));
#1402=DIRECTION('',(1.,0.,0.));
#1403=DIRECTION('',(-1.,0.,0.));
#1404=DIRECTION('center_axis',(0.,0.,1.));
#1405=DIRECTION('ref_axis',(0.,1.,0.));
#1406=DIRECTION('',(-0.707106781186548,0.,0.707106781186547));
#1407=DIRECTION('center_axis',(0.,0.,-1.));
#1408=DIRECTION('ref_axis',(0.,1.,0.));
#1409=DIRECTION('center_axis',(0.,0.,1.));
#1410=DIRECTION('ref_axis',(0.,1.,0.));
#1411=DIRECTION('center_axis',(-0.707106781186547,0.,-0.707106781186548));
#1412=DIRECTION('ref_axis',(-0.707106781186548,0.,0.707106781186547));
#1413=DIRECTION('',(-0.707106781186548,1.57009245868377E-15,0.707106781186547));
#1414=DIRECTION('',(0.,1.,0.));
#1415=DIRECTION('',(0.,-1.,0.));
#1416=DIRECTION('center_axis',(0.,0.,1.));
#1417=DIRECTION('ref_axis',(-1.,0.,0.));
#1418=DIRECTION('',(0.,-0.707106781186548,0.707106781186547));
#1419=DIRECTION('center_axis',(0.,0.,-1.));
#1420=DIRECTION('ref_axis',(-1.,0.,0.));
#1421=DIRECTION('center_axis',(0.,0.,1.));
#1422=DIRECTION('ref_axis',(-1.,0.,0.));
#1423=DIRECTION('center_axis',(0.,-0.707106781186547,-0.707106781186548));
#1424=DIRECTION('ref_axis',(-1.,0.,0.));
#1425=DIRECTION('',(-1.57009245868377E-15,-0.707106781186548,0.707106781186547));
#1426=DIRECTION('',(-1.,0.,0.));
#1427=DIRECTION('',(1.,0.,0.));
#1428=DIRECTION('center_axis',(0.,0.,1.));
#1429=DIRECTION('ref_axis',(0.,-1.,0.));
#1430=DIRECTION('center_axis',(0.,0.,-1.));
#1431=DIRECTION('ref_axis',(0.,-1.,0.));
#1432=DIRECTION('center_axis',(0.,0.,1.));
#1433=DIRECTION('ref_axis',(0.,-1.,0.));
#1434=DIRECTION('center_axis',(0.,0.,1.));
#1435=DIRECTION('ref_axis',(-1.,0.,0.));
#1436=DIRECTION('',(0.,0.,1.));
#1437=DIRECTION('center_axis',(0.,0.,1.));
#1438=DIRECTION('ref_axis',(-1.,0.,0.));
#1439=DIRECTION('',(0.,0.,1.));
#1440=DIRECTION('center_axis',(0.,-1.,0.));
#1441=DIRECTION('ref_axis',(1.,0.,0.));
#1442=DIRECTION('',(0.,0.,1.));
#1443=DIRECTION('',(1.,0.,0.));
#1444=DIRECTION('center_axis',(0.,0.,1.));
#1445=DIRECTION('ref_axis',(0.,-1.,0.));
#1446=DIRECTION('',(0.,0.,1.));
#1447=DIRECTION('center_axis',(0.,0.,1.));
#1448=DIRECTION('ref_axis',(0.,-1.,0.));
#1449=DIRECTION('center_axis',(1.,1.38777878078145E-16,0.));
#1450=DIRECTION('ref_axis',(-1.38777878078145E-16,1.,0.));
#1451=DIRECTION('',(0.,0.,1.));
#1452=DIRECTION('',(-1.38777878078145E-16,1.,0.));
#1453=DIRECTION('center_axis',(0.,0.,1.));
#1454=DIRECTION('ref_axis',(1.,0.,0.));
#1455=DIRECTION('center_axis',(-1.,0.,0.));
#1456=DIRECTION('ref_axis',(0.,-1.,0.));
#1457=DIRECTION('',(0.,1.,0.));
#1458=DIRECTION('',(0.,0.,1.));
#1459=DIRECTION('',(0.,1.,0.));
#1460=DIRECTION('',(0.,0.,1.));
#1461=DIRECTION('center_axis',(0.,0.,1.));
#1462=DIRECTION('ref_axis',(0.,1.,0.));
#1463=DIRECTION('center_axis',(0.,0.,-1.));
#1464=DIRECTION('ref_axis',(0.,1.,0.));
#1465=DIRECTION('',(0.,0.,1.));
#1466=DIRECTION('center_axis',(0.,0.,-1.));
#1467=DIRECTION('ref_axis',(0.,1.,0.));
#1468=DIRECTION('center_axis',(0.,1.,0.));
#1469=DIRECTION('ref_axis',(-1.,0.,0.));
#1470=DIRECTION('',(1.,0.,0.));
#1471=DIRECTION('',(0.,0.,1.));
#1472=DIRECTION('',(1.,0.,0.));
#1473=DIRECTION('center_axis',(0.,0.,1.));
#1474=DIRECTION('ref_axis',(1.,-1.33226762955019E-15,0.));
#1475=DIRECTION('center_axis',(0.,0.,-1.));
#1476=DIRECTION('ref_axis',(1.,-1.33226762955019E-15,0.));
#1477=DIRECTION('',(0.,0.,1.));
#1478=DIRECTION('center_axis',(0.,0.,-1.));
#1479=DIRECTION('ref_axis',(1.,-1.33226762955019E-15,0.));
#1480=DIRECTION('center_axis',(1.,1.38777878078145E-16,0.));
#1481=DIRECTION('ref_axis',(-1.38777878078145E-16,1.,0.));
#1482=DIRECTION('',(1.38777878078145E-16,-1.,0.));
#1483=DIRECTION('',(0.,0.,1.));
#1484=DIRECTION('',(1.38777878078145E-16,-1.,0.));
#1485=DIRECTION('center_axis',(0.,0.,1.));
#1486=DIRECTION('ref_axis',(0.,-1.,0.));
#1487=DIRECTION('center_axis',(0.,0.,-1.));
#1488=DIRECTION('ref_axis',(0.,-1.,0.));
#1489=DIRECTION('',(0.,0.,1.));
#1490=DIRECTION('center_axis',(0.,0.,-1.));
#1491=DIRECTION('ref_axis',(0.,-1.,0.));
#1492=DIRECTION('center_axis',(0.,-1.,0.));
#1493=DIRECTION('ref_axis',(1.,0.,0.));
#1494=DIRECTION('',(-1.,0.,0.));
#1495=DIRECTION('',(0.,0.,1.));
#1496=DIRECTION('',(-1.,0.,0.));
#1497=DIRECTION('center_axis',(0.,0.,1.));
#1498=DIRECTION('ref_axis',(-1.,0.,0.));
#1499=DIRECTION('center_axis',(0.,0.,-1.));
#1500=DIRECTION('ref_axis',(-1.,0.,0.));
#1501=DIRECTION('center_axis',(0.,0.,-1.));
#1502=DIRECTION('ref_axis',(-1.,0.,0.));
#1503=DIRECTION('center_axis',(0.,0.,1.));
#1504=DIRECTION('ref_axis',(1.,0.,0.));
#1505=DIRECTION('center_axis',(-1.,0.,0.));
#1506=DIRECTION('ref_axis',(0.,-1.,0.));
#1507=DIRECTION('',(0.,-1.,0.));
#1508=DIRECTION('',(0.,0.,1.));
#1509=DIRECTION('center_axis',(0.,0.,1.));
#1510=DIRECTION('ref_axis',(0.,1.,0.));
#1511=DIRECTION('center_axis',(0.,0.,1.));
#1512=DIRECTION('ref_axis',(0.,1.,0.));
#1513=DIRECTION('',(0.,0.,1.));
#1514=DIRECTION('center_axis',(0.,1.,0.));
#1515=DIRECTION('ref_axis',(-1.,0.,0.));
#1516=DIRECTION('',(-1.,0.,0.));
#1517=DIRECTION('',(0.,0.,1.));
#1518=DIRECTION('center_axis',(0.,0.,1.));
#1519=DIRECTION('ref_axis',(1.,-1.33226762955019E-15,0.));
#1520=DIRECTION('center_axis',(0.,0.,1.));
#1521=DIRECTION('ref_axis',(1.,-1.33226762955019E-15,0.));
#1522=DIRECTION('center_axis',(0.,0.,1.));
#1523=DIRECTION('ref_axis',(1.,0.,0.));
#1524=DIRECTION('center_axis',(0.,-1.,0.));
#1525=DIRECTION('ref_axis',(-1.,0.,0.));
#1526=DIRECTION('center_axis',(0.,1.,0.));
#1527=DIRECTION('ref_axis',(1.,-1.83697019872103E-16,0.));
#1528=DIRECTION('center_axis',(1.83697019872103E-16,1.,0.));
#1529=DIRECTION('ref_axis',(1.,-1.83697019872103E-16,0.));
#1530=DIRECTION('center_axis',(-1.83697019872103E-16,-1.,0.));
#1531=DIRECTION('ref_axis',(1.,-1.83697019872103E-16,0.));
#1532=DIRECTION('',(1.83697019872103E-16,1.,0.));
#1533=DIRECTION('center_axis',(-1.83697019872103E-16,-1.,0.));
#1534=DIRECTION('ref_axis',(1.,-1.83697019872103E-16,0.));
#1535=DIRECTION('center_axis',(1.,0.,0.));
#1536=DIRECTION('ref_axis',(0.,-1.,0.));
#1537=DIRECTION('center_axis',(-1.,0.,0.));
#1538=DIRECTION('ref_axis',(0.,1.,0.));
#1539=DIRECTION('center_axis',(-1.,0.,0.));
#1540=DIRECTION('ref_axis',(0.,1.,0.));
#1541=DIRECTION('center_axis',(1.,0.,0.));
#1542=DIRECTION('ref_axis',(0.,1.,0.));
#1543=DIRECTION('',(-1.,0.,0.));
#1544=DIRECTION('center_axis',(1.,0.,0.));
#1545=DIRECTION('ref_axis',(0.,1.,0.));
#1546=CARTESIAN_POINT('',(0.,0.,0.));
#1547=CARTESIAN_POINT('Origin',(-4.1,20.7,21.));
#1548=CARTESIAN_POINT('',(4.1,20.7,11.));
#1549=CARTESIAN_POINT('Origin',(3.48795548636782E-15,20.7,11.));
#1550=CARTESIAN_POINT('Origin',(3.49407872036356E-15,20.8,11.));
#1551=CARTESIAN_POINT('',(4.1,20.8,11.));
#1552=CARTESIAN_POINT('Origin',(3.49407872036356E-15,20.8,11.));
#1553=CARTESIAN_POINT('',(4.1,20.8,11.));
#1554=CARTESIAN_POINT('Origin',(3.49407872036356E-15,20.8,11.));
#1555=CARTESIAN_POINT('Origin',(-20.7,-4.1,21.));
#1556=CARTESIAN_POINT('',(-20.7,4.1,11.));
#1557=CARTESIAN_POINT('Origin',(-20.7,4.75546492348534E-15,11.));
#1558=CARTESIAN_POINT('Origin',(-20.8,4.76771139147681E-15,11.));
#1559=CARTESIAN_POINT('',(-20.8,4.1,11.));
#1560=CARTESIAN_POINT('Origin',(-20.8,4.76771139147681E-15,11.));
#1561=CARTESIAN_POINT('',(-20.8,4.1,11.));
#1562=CARTESIAN_POINT('Origin',(-20.8,4.76771139147681E-15,11.));
#1563=CARTESIAN_POINT('Origin',(18.5,-1.73306033069617E-15,6.39783011373766));
#1564=CARTESIAN_POINT('',(18.5,-2.28817184300875E-15,6.39783011373766));
#1565=CARTESIAN_POINT('',(18.5,2.63542919971481,8.60921778321219));
#1566=CARTESIAN_POINT('',(18.5,-6.26975088528367,1.1368844583227));
#1567=CARTESIAN_POINT('',(20.5,-2.65556588275295E-15,6.39783011373766));
#1568=CARTESIAN_POINT('',(18.5,-2.28817184300875E-15,6.39783011373766));
#1569=CARTESIAN_POINT('',(20.5,2.63542919971481,8.60921778321219));
#1570=CARTESIAN_POINT('',(20.5,2.63542919971481,8.60921778321219));
#1571=CARTESIAN_POINT('',(18.5,2.63542919971481,8.60921778321219));
#1572=CARTESIAN_POINT('Origin',(18.5,-2.63542919971481,8.60921778321219));
#1573=CARTESIAN_POINT('',(18.5,-2.63542919971481,8.60921778321219));
#1574=CARTESIAN_POINT('',(18.5,-4.43714913590918,10.1210403171576));
#1575=CARTESIAN_POINT('',(20.5,-2.63542919971481,8.60921778321219));
#1576=CARTESIAN_POINT('',(18.5,-2.63542919971481,8.60921778321219));
#1577=CARTESIAN_POINT('',(20.5,-2.63542919971481,8.60921778321219));
#1578=CARTESIAN_POINT('Origin',(18.5,-4.50861789225906E-15,11.75));
#1579=CARTESIAN_POINT('',(18.5,-2.63542919971482,14.8907822167878));
#1580=CARTESIAN_POINT('Origin',(18.5,-4.50861789225906E-15,11.75));
#1581=CARTESIAN_POINT('',(20.5,-2.63542919971482,14.8907822167878));
#1582=CARTESIAN_POINT('',(18.5,-2.63542919971482,14.8907822167878));
#1583=CARTESIAN_POINT('Origin',(20.5,-4.87601193200327E-15,11.75));
#1584=CARTESIAN_POINT('Origin',(18.5,-6.72906394150937E-15,17.1021698862623));
#1585=CARTESIAN_POINT('',(18.5,-6.72906394150937E-15,17.1021698862623));
#1586=CARTESIAN_POINT('',(18.5,-8.90518008499849,9.62983656137285));
#1587=CARTESIAN_POINT('',(20.5,-7.09645798125358E-15,17.1021698862623));
#1588=CARTESIAN_POINT('',(18.5,-6.72906394150937E-15,17.1021698862623));
#1589=CARTESIAN_POINT('',(20.5,-2.63542919971482,14.8907822167878));
#1590=CARTESIAN_POINT('Origin',(18.5,2.6354291997148,14.8907822167878));
#1591=CARTESIAN_POINT('',(18.5,2.6354291997148,14.8907822167878));
#1592=CARTESIAN_POINT('',(18.5,0.833709263520447,16.4026047507332));
#1593=CARTESIAN_POINT('',(20.5,2.6354291997148,14.8907822167878));
#1594=CARTESIAN_POINT('',(18.5,2.6354291997148,14.8907822167878));
#1595=CARTESIAN_POINT('',(20.5,2.6354291997148,14.8907822167878));
#1596=CARTESIAN_POINT('Origin',(18.5,-4.50861789225906E-15,11.75));
#1597=CARTESIAN_POINT('Origin',(18.5,-4.50861789225906E-15,11.75));
#1598=CARTESIAN_POINT('Origin',(20.5,-4.87601193200327E-15,11.75));
#1599=CARTESIAN_POINT('Origin',(20.5,-4.87601193200327E-15,11.75));
#1600=CARTESIAN_POINT('Origin',(-6.00262041484869E-16,-18.5,6.39783011373766));
#1601=CARTESIAN_POINT('',(-1.15537355379745E-15,-18.5,6.39783011373766));
#1602=CARTESIAN_POINT('',(2.63542919971481,-18.5,8.60921778321219));
#1603=CARTESIAN_POINT('',(-6.26975088528367,-18.5,1.1368844583227));
#1604=CARTESIAN_POINT('',(-1.40030291362692E-15,-20.5,6.39783011373766));
#1605=CARTESIAN_POINT('',(-1.15537355379745E-15,-18.5,6.39783011373766));
#1606=CARTESIAN_POINT('',(2.63542919971481,-20.5,8.60921778321219));
#1607=CARTESIAN_POINT('',(2.63542919971481,-20.5,8.60921778321219));
#1608=CARTESIAN_POINT('',(2.63542919971481,-18.5,8.60921778321219));
#1609=CARTESIAN_POINT('Origin',(-2.63542919971481,-18.5,8.60921778321219));
#1610=CARTESIAN_POINT('',(-2.63542919971481,-18.5,8.60921778321219));
#1611=CARTESIAN_POINT('',(-4.43714913590917,-18.5,10.1210403171576));
#1612=CARTESIAN_POINT('',(-2.63542919971481,-20.5,8.60921778321219));
#1613=CARTESIAN_POINT('',(-2.63542919971481,-18.5,8.60921778321219));
#1614=CARTESIAN_POINT('',(-2.63542919971481,-20.5,8.60921778321219));
#1615=CARTESIAN_POINT('Origin',(-3.37581960304776E-15,-18.5,11.75));
#1616=CARTESIAN_POINT('',(-2.63542919971482,-18.5,14.8907822167878));
#1617=CARTESIAN_POINT('Origin',(-3.37581960304776E-15,-18.5,11.75));
#1618=CARTESIAN_POINT('',(-2.63542919971482,-20.5,14.8907822167878));
#1619=CARTESIAN_POINT('',(-2.63542919971482,-18.5,14.8907822167878));
#1620=CARTESIAN_POINT('Origin',(-3.62074896287723E-15,-20.5,11.75));
#1621=CARTESIAN_POINT('Origin',(-5.59626565229807E-15,-18.5,17.1021698862623));
#1622=CARTESIAN_POINT('',(-5.59626565229807E-15,-18.5,17.1021698862623));
#1623=CARTESIAN_POINT('',(-8.90518008499849,-18.5,9.62983656137285));
#1624=CARTESIAN_POINT('',(-5.84119501212754E-15,-20.5,17.1021698862623));
#1625=CARTESIAN_POINT('',(-5.59626565229807E-15,-18.5,17.1021698862623));
#1626=CARTESIAN_POINT('',(-2.63542919971482,-20.5,14.8907822167878));
#1627=CARTESIAN_POINT('Origin',(2.6354291997148,-18.5,14.8907822167878));
#1628=CARTESIAN_POINT('',(2.6354291997148,-18.5,14.8907822167878));
#1629=CARTESIAN_POINT('',(0.833709263520447,-18.5,16.4026047507332));
#1630=CARTESIAN_POINT('',(2.6354291997148,-20.5,14.8907822167878));
#1631=CARTESIAN_POINT('',(2.6354291997148,-18.5,14.8907822167878));
#1632=CARTESIAN_POINT('',(2.6354291997148,-20.5,14.8907822167878));
#1633=CARTESIAN_POINT('Origin',(-3.37581960304776E-15,-18.5,11.75));
#1634=CARTESIAN_POINT('Origin',(-3.37581960304776E-15,-18.5,11.75));
#1635=CARTESIAN_POINT('Origin',(-3.62074896287723E-15,-20.5,11.75));
#1636=CARTESIAN_POINT('Origin',(-3.62074896287723E-15,-20.5,11.75));
#1637=CARTESIAN_POINT('Origin',(-18.5,-5.32536247726433E-16,6.39783011373766));
#1638=CARTESIAN_POINT('',(-18.5,2.25752645861453E-17,6.39783011373766));
#1639=CARTESIAN_POINT('',(-18.5,-2.63542919971481,8.60921778321219));
#1640=CARTESIAN_POINT('',(-18.5,6.26975088528367,1.1368844583227));
#1641=CARTESIAN_POINT('',(-20.5,1.45039944500881E-16,6.39783011373766));
#1642=CARTESIAN_POINT('',(-18.5,2.25752645861453E-17,6.39783011373766));
#1643=CARTESIAN_POINT('',(-20.5,-2.63542919971481,8.60921778321219));
#1644=CARTESIAN_POINT('',(-20.5,-2.63542919971481,8.60921778321219));
#1645=CARTESIAN_POINT('',(-18.5,-2.63542919971481,8.60921778321219));
#1646=CARTESIAN_POINT('Origin',(-18.5,2.63542919971481,8.60921778321219));
#1647=CARTESIAN_POINT('',(-18.5,2.63542919971481,8.60921778321219));
#1648=CARTESIAN_POINT('',(-18.5,4.43714913590917,10.1210403171576));
#1649=CARTESIAN_POINT('',(-20.5,2.63542919971481,8.60921778321219));
#1650=CARTESIAN_POINT('',(-18.5,2.63542919971481,8.60921778321219));
#1651=CARTESIAN_POINT('',(-20.5,2.63542919971481,8.60921778321219));
#1652=CARTESIAN_POINT('Origin',(-18.5,2.24302131383646E-15,11.75));
#1653=CARTESIAN_POINT('',(-18.5,2.63542919971482,14.8907822167878));
#1654=CARTESIAN_POINT('Origin',(-18.5,2.24302131383646E-15,11.75));
#1655=CARTESIAN_POINT('',(-20.5,2.63542919971482,14.8907822167878));
#1656=CARTESIAN_POINT('',(-18.5,2.63542919971482,14.8907822167878));
#1657=CARTESIAN_POINT('Origin',(-20.5,2.36548599375119E-15,11.75));
#1658=CARTESIAN_POINT('Origin',(-18.5,4.46346736308677E-15,17.1021698862623));
#1659=CARTESIAN_POINT('',(-18.5,4.46346736308677E-15,17.1021698862623));
#1660=CARTESIAN_POINT('',(-18.5,8.90518008499849,9.62983656137285));
#1661=CARTESIAN_POINT('',(-20.5,4.58593204300151E-15,17.1021698862623));
#1662=CARTESIAN_POINT('',(-18.5,4.46346736308677E-15,17.1021698862623));
#1663=CARTESIAN_POINT('',(-20.5,2.63542919971482,14.8907822167878));
#1664=CARTESIAN_POINT('Origin',(-18.5,-2.63542919971481,14.8907822167878));
#1665=CARTESIAN_POINT('',(-18.5,-2.63542919971481,14.8907822167878));
#1666=CARTESIAN_POINT('',(-18.5,-0.833709263520447,16.4026047507332));
#1667=CARTESIAN_POINT('',(-20.5,-2.63542919971481,14.8907822167878));
#1668=CARTESIAN_POINT('',(-18.5,-2.63542919971481,14.8907822167878));
#1669=CARTESIAN_POINT('',(-20.5,-2.63542919971481,14.8907822167878));
#1670=CARTESIAN_POINT('Origin',(-18.5,2.24302131383646E-15,11.75));
#1671=CARTESIAN_POINT('Origin',(-18.5,2.24302131383646E-15,11.75));
#1672=CARTESIAN_POINT('Origin',(-20.5,2.36548599375119E-15,11.75));
#1673=CARTESIAN_POINT('Origin',(-20.5,2.36548599375119E-15,11.75));
#1674=CARTESIAN_POINT('Origin',(-1.66533453693773E-15,18.5,6.39783011373766));
#1675=CARTESIAN_POINT('',(-1.11022302462516E-15,18.5,6.39783011373766));
#1676=CARTESIAN_POINT('',(-2.63542919971481,18.5,8.60921778321219));
#1677=CARTESIAN_POINT('',(6.26975088528367,18.5,1.1368844583227));
#1678=CARTESIAN_POINT('',(-1.11022302462516E-15,20.5,6.39783011373766));
#1679=CARTESIAN_POINT('',(-1.11022302462516E-15,18.5,6.39783011373766));
#1680=CARTESIAN_POINT('',(-2.63542919971481,20.5,8.60921778321219));
#1681=CARTESIAN_POINT('',(-2.63542919971481,20.5,8.60921778321219));
#1682=CARTESIAN_POINT('',(-2.63542919971481,18.5,8.60921778321219));
#1683=CARTESIAN_POINT('Origin',(2.63542919971481,18.5,8.60921778321219));
#1684=CARTESIAN_POINT('',(2.63542919971481,18.5,8.60921778321219));
#1685=CARTESIAN_POINT('',(4.43714913590917,18.5,10.1210403171576));
#1686=CARTESIAN_POINT('',(2.63542919971481,20.5,8.60921778321219));
#1687=CARTESIAN_POINT('',(2.63542919971481,18.5,8.60921778321219));
#1688=CARTESIAN_POINT('',(2.63542919971481,20.5,8.60921778321219));
#1689=CARTESIAN_POINT('Origin',(1.11022302462516E-15,18.5,11.75));
#1690=CARTESIAN_POINT('',(2.63542919971482,18.5,14.8907822167878));
#1691=CARTESIAN_POINT('Origin',(1.11022302462516E-15,18.5,11.75));
#1692=CARTESIAN_POINT('',(2.63542919971482,20.5,14.8907822167878));
#1693=CARTESIAN_POINT('',(2.63542919971482,18.5,14.8907822167878));
#1694=CARTESIAN_POINT('Origin',(1.11022302462516E-15,20.5,11.75));
#1695=CARTESIAN_POINT('Origin',(3.33066907387547E-15,18.5,17.1021698862623));
#1696=CARTESIAN_POINT('',(3.33066907387547E-15,18.5,17.1021698862623));
#1697=CARTESIAN_POINT('',(8.90518008499849,18.5,9.62983656137285));
#1698=CARTESIAN_POINT('',(3.33066907387547E-15,20.5,17.1021698862623));
#1699=CARTESIAN_POINT('',(3.33066907387547E-15,18.5,17.1021698862623));
#1700=CARTESIAN_POINT('',(2.63542919971482,20.5,14.8907822167878));
#1701=CARTESIAN_POINT('Origin',(-2.63542919971481,18.5,14.8907822167878));
#1702=CARTESIAN_POINT('',(-2.63542919971481,18.5,14.8907822167878));
#1703=CARTESIAN_POINT('',(-0.833709263520448,18.5,16.4026047507333));
#1704=CARTESIAN_POINT('',(-2.63542919971481,20.5,14.8907822167878));
#1705=CARTESIAN_POINT('',(-2.63542919971481,18.5,14.8907822167878));
#1706=CARTESIAN_POINT('',(-2.63542919971481,20.5,14.8907822167878));
#1707=CARTESIAN_POINT('Origin',(1.11022302462516E-15,18.5,11.75));
#1708=CARTESIAN_POINT('Origin',(1.11022302462516E-15,18.5,11.75));
#1709=CARTESIAN_POINT('Origin',(1.11022302462516E-15,20.5,11.75));
#1710=CARTESIAN_POINT('Origin',(1.11022302462516E-15,20.5,11.75));
#1711=CARTESIAN_POINT('Origin',(20.5,-8.,0.5));
#1712=CARTESIAN_POINT('',(20.,16.,0.));
#1713=CARTESIAN_POINT('',(21.,16.,1.));
#1714=CARTESIAN_POINT('',(20.,16.,0.));
#1715=CARTESIAN_POINT('',(21.,-16.,1.));
#1716=CARTESIAN_POINT('',(21.,-8.,1.));
#1717=CARTESIAN_POINT('',(20.,-16.,0.));
#1718=CARTESIAN_POINT('',(21.,-16.,1.));
#1719=CARTESIAN_POINT('',(20.,-8.,0.));
#1720=CARTESIAN_POINT('Origin',(16.,16.,0.5));
#1721=CARTESIAN_POINT('',(16.,20.,0.));
#1722=CARTESIAN_POINT('',(16.,21.,1.));
#1723=CARTESIAN_POINT('',(16.,20.,0.));
#1724=CARTESIAN_POINT('Origin',(16.,16.,1.));
#1725=CARTESIAN_POINT('Origin',(16.,16.,0.));
#1726=CARTESIAN_POINT('Origin',(8.,20.5,0.5));
#1727=CARTESIAN_POINT('',(-16.,20.,0.));
#1728=CARTESIAN_POINT('',(-16.,21.,1.));
#1729=CARTESIAN_POINT('',(-16.,20.,0.));
#1730=CARTESIAN_POINT('',(8.,21.,1.));
#1731=CARTESIAN_POINT('',(8.,20.,0.));
#1732=CARTESIAN_POINT('Origin',(-16.,16.,0.5));
#1733=CARTESIAN_POINT('',(-20.,16.,0.));
#1734=CARTESIAN_POINT('',(-21.,16.,1.));
#1735=CARTESIAN_POINT('',(-20.,16.,0.));
#1736=CARTESIAN_POINT('Origin',(-16.,16.,1.));
#1737=CARTESIAN_POINT('Origin',(-16.,16.,0.));
#1738=CARTESIAN_POINT('Origin',(-20.5,8.,0.5));
#1739=CARTESIAN_POINT('',(-20.,-16.,0.));
#1740=CARTESIAN_POINT('',(-21.,-16.,1.));
#1741=CARTESIAN_POINT('',(-20.,-16.,0.));
#1742=CARTESIAN_POINT('',(-21.,8.,1.));
#1743=CARTESIAN_POINT('',(-20.,8.,0.));
#1744=CARTESIAN_POINT('Origin',(-16.,-16.,0.5));
#1745=CARTESIAN_POINT('',(-16.,-20.,0.));
#1746=CARTESIAN_POINT('',(-16.,-21.,1.));
#1747=CARTESIAN_POINT('',(-16.,-20.,0.));
#1748=CARTESIAN_POINT('Origin',(-16.,-16.,1.));
#1749=CARTESIAN_POINT('Origin',(-16.,-16.,0.));
#1750=CARTESIAN_POINT('Origin',(-8.,-20.5,0.5));
#1751=CARTESIAN_POINT('',(16.,-20.,0.));
#1752=CARTESIAN_POINT('',(16.,-21.,1.));
#1753=CARTESIAN_POINT('',(16.,-20.,0.));
#1754=CARTESIAN_POINT('',(-8.,-21.,1.));
#1755=CARTESIAN_POINT('',(-8.,-20.,0.));
#1756=CARTESIAN_POINT('Origin',(16.,-16.,0.5));
#1757=CARTESIAN_POINT('Origin',(16.,-16.,1.));
#1758=CARTESIAN_POINT('Origin',(16.,-16.,0.));
#1759=CARTESIAN_POINT('Origin',(-16.,-16.,0.));
#1760=CARTESIAN_POINT('',(-16.,-21.,21.));
#1761=CARTESIAN_POINT('',(-16.,-21.,0.));
#1762=CARTESIAN_POINT('',(-21.,-16.,21.));
#1763=CARTESIAN_POINT('Origin',(-16.,-16.,21.));
#1764=CARTESIAN_POINT('',(-21.,-16.,0.));
#1765=CARTESIAN_POINT('Origin',(-16.,-21.,0.));
#1766=CARTESIAN_POINT('',(16.,-21.,21.));
#1767=CARTESIAN_POINT('',(16.,-21.,0.));
#1768=CARTESIAN_POINT('',(-16.,-21.,21.));
#1769=CARTESIAN_POINT('Origin',(16.,-16.,0.));
#1770=CARTESIAN_POINT('',(21.,-16.,21.));
#1771=CARTESIAN_POINT('',(21.,-16.,0.));
#1772=CARTESIAN_POINT('Origin',(16.,-16.,21.));
#1773=CARTESIAN_POINT('Origin',(21.,-16.,0.));
#1774=CARTESIAN_POINT('',(21.,16.,21.));
#1775=CARTESIAN_POINT('',(21.,16.,0.));
#1776=CARTESIAN_POINT('',(21.,-16.,21.));
#1777=CARTESIAN_POINT('Origin',(0.,0.,0.));
#1778=CARTESIAN_POINT('Origin',(-18.5,16.,0.));
#1779=CARTESIAN_POINT('',(-18.5,16.,2.5));
#1780=CARTESIAN_POINT('',(-18.5,-16.,2.5));
#1781=CARTESIAN_POINT('',(-18.5,8.,2.5));
#1782=CARTESIAN_POINT('',(-18.5,16.,21.));
#1783=CARTESIAN_POINT('',(-18.5,16.,0.));
#1784=CARTESIAN_POINT('',(-18.5,-16.,21.));
#1785=CARTESIAN_POINT('',(-18.5,8.,21.));
#1786=CARTESIAN_POINT('',(-18.5,-16.,0.));
#1787=CARTESIAN_POINT('Origin',(-16.,16.,0.));
#1788=CARTESIAN_POINT('',(-16.,18.5,2.5));
#1789=CARTESIAN_POINT('Origin',(-16.,16.,2.5));
#1790=CARTESIAN_POINT('',(-16.,18.5,21.));
#1791=CARTESIAN_POINT('',(-16.,18.5,0.));
#1792=CARTESIAN_POINT('Origin',(-16.,16.,21.));
#1793=CARTESIAN_POINT('Origin',(16.,18.5,0.));
#1794=CARTESIAN_POINT('',(16.,18.5,2.5));
#1795=CARTESIAN_POINT('',(8.,18.5,2.5));
#1796=CARTESIAN_POINT('',(16.,18.5,21.));
#1797=CARTESIAN_POINT('',(16.,18.5,0.));
#1798=CARTESIAN_POINT('',(8.,18.5,21.));
#1799=CARTESIAN_POINT('Origin',(16.,16.,0.));
#1800=CARTESIAN_POINT('',(18.5,16.,2.5));
#1801=CARTESIAN_POINT('Origin',(16.,16.,2.5));
#1802=CARTESIAN_POINT('',(18.5,16.,21.));
#1803=CARTESIAN_POINT('',(18.5,16.,0.));
#1804=CARTESIAN_POINT('Origin',(16.,16.,21.));
#1805=CARTESIAN_POINT('Origin',(18.5,-16.,0.));
#1806=CARTESIAN_POINT('',(18.5,-16.,2.5));
#1807=CARTESIAN_POINT('',(18.5,-8.,2.5));
#1808=CARTESIAN_POINT('',(18.5,-16.,21.));
#1809=CARTESIAN_POINT('',(18.5,-16.,0.));
#1810=CARTESIAN_POINT('',(18.5,-8.,21.));
#1811=CARTESIAN_POINT('Origin',(16.,-16.,0.));
#1812=CARTESIAN_POINT('',(16.,-18.5,2.5));
#1813=CARTESIAN_POINT('Origin',(16.,-16.,2.5));
#1814=CARTESIAN_POINT('',(16.,-18.5,21.));
#1815=CARTESIAN_POINT('',(16.,-18.5,0.));
#1816=CARTESIAN_POINT('Origin',(16.,-16.,21.));
#1817=CARTESIAN_POINT('Origin',(-16.,-18.5,0.));
#1818=CARTESIAN_POINT('',(-16.,-18.5,2.5));
#1819=CARTESIAN_POINT('',(-8.,-18.5,2.5));
#1820=CARTESIAN_POINT('',(-16.,-18.5,21.));
#1821=CARTESIAN_POINT('',(-16.,-18.5,0.));
#1822=CARTESIAN_POINT('',(-8.,-18.5,21.));
#1823=CARTESIAN_POINT('Origin',(-16.,-16.,0.));
#1824=CARTESIAN_POINT('Origin',(-16.,-16.,2.5));
#1825=CARTESIAN_POINT('Origin',(-16.,-16.,21.));
#1826=CARTESIAN_POINT('Origin',(0.,0.,2.5));
#1827=CARTESIAN_POINT('Origin',(-21.,16.,0.));
#1828=CARTESIAN_POINT('',(-21.,16.,21.));
#1829=CARTESIAN_POINT('',(-21.,16.,21.));
#1830=CARTESIAN_POINT('',(-21.,16.,0.));
#1831=CARTESIAN_POINT('Origin',(-16.,16.,0.));
#1832=CARTESIAN_POINT('',(-16.,21.,21.));
#1833=CARTESIAN_POINT('Origin',(-16.,16.,21.));
#1834=CARTESIAN_POINT('',(-16.,21.,0.));
#1835=CARTESIAN_POINT('Origin',(16.,21.,0.));
#1836=CARTESIAN_POINT('',(16.,21.,21.));
#1837=CARTESIAN_POINT('',(16.,21.,21.));
#1838=CARTESIAN_POINT('',(16.,21.,0.));
#1839=CARTESIAN_POINT('Origin',(16.,16.,0.));
#1840=CARTESIAN_POINT('Origin',(16.,16.,21.));
#1841=CARTESIAN_POINT('Origin',(0.,0.,21.));
#1842=CARTESIAN_POINT('Origin',(4.1,-20.7,21.));
#1843=CARTESIAN_POINT('',(-4.10000000000001,-20.7,11.));
#1844=CARTESIAN_POINT('Origin',(-6.02297436060284E-15,-20.7,11.));
#1845=CARTESIAN_POINT('Origin',(-6.04134406259005E-15,-20.8,11.));
#1846=CARTESIAN_POINT('',(-4.10000000000001,-20.8,11.));
#1847=CARTESIAN_POINT('Origin',(-6.04134406259005E-15,-20.8,11.));
#1848=CARTESIAN_POINT('',(-4.10000000000001,-20.8,11.));
#1849=CARTESIAN_POINT('Origin',(-6.04134406259005E-15,-20.8,11.));
#1850=CARTESIAN_POINT('Origin',(20.7,4.1,21.));
#1851=CARTESIAN_POINT('',(20.7,-4.1,11.));
#1852=CARTESIAN_POINT('Origin',(20.7,-2.22044604925031E-15,11.));
#1853=CARTESIAN_POINT('Origin',(20.8,-2.22044604925031E-15,11.));
#1854=CARTESIAN_POINT('',(20.8,-4.1,11.));
#1855=CARTESIAN_POINT('Origin',(20.8,-2.22044604925031E-15,11.));
#1856=CARTESIAN_POINT('',(20.8,-4.1,11.));
#1857=CARTESIAN_POINT('Origin',(20.8,-2.22044604925031E-15,11.));
#1858=UNCERTAINTY_MEASURE_WITH_UNIT(LENGTH_MEASURE(0.01),#1862,
'DISTANCE_ACCURACY_VALUE',
'Maximum model space distance between geometric entities at asserted c
onnectivities');
#1859=UNCERTAINTY_MEASURE_WITH_UNIT(LENGTH_MEASURE(0.01),#1862,
'DISTANCE_ACCURACY_VALUE',
'Maximum model space distance between geometric entities at asserted c
onnectivities');
#1860=(
GEOMETRIC_REPRESENTATION_CONTEXT(3)
GLOBAL_UNCERTAINTY_ASSIGNED_CONTEXT((#1858))
GLOBAL_UNIT_ASSIGNED_CONTEXT((#1862,#1864,#1865))
REPRESENTATION_CONTEXT('','3D')
);
#1861=(
GEOMETRIC_REPRESENTATION_CONTEXT(3)
GLOBAL_UNCERTAINTY_ASSIGNED_CONTEXT((#1859))
GLOBAL_UNIT_ASSIGNED_CONTEXT((#1862,#1864,#1865))
REPRESENTATION_CONTEXT('','3D')
);
#1862=(
LENGTH_UNIT()
NAMED_UNIT(*)
SI_UNIT(.MILLI.,.METRE.)
);
#1863=(
LENGTH_UNIT()
NAMED_UNIT(*)
SI_UNIT($,.METRE.)
);
#1864=(
NAMED_UNIT(*)
PLANE_ANGLE_UNIT()
SI_UNIT($,.RADIAN.)
);
#1865=(
NAMED_UNIT(*)
SI_UNIT($,.STERADIAN.)
SOLID_ANGLE_UNIT()
);
#1866=SHAPE_DEFINITION_REPRESENTATION(#1867,#1868);
#1867=PRODUCT_DEFINITION_SHAPE('',$,#1870);
#1868=SHAPE_REPRESENTATION('',(#1106),#1860);
#1869=PRODUCT_DEFINITION_CONTEXT('part definition',#1874,'design');
#1870=PRODUCT_DEFINITION('MagGrid','MagGrid v7',#1871,#1869);
#1871=PRODUCT_DEFINITION_FORMATION('',$,#1876);
#1872=PRODUCT_RELATED_PRODUCT_CATEGORY('MagGrid v7','MagGrid v7',(#1876));
#1873=APPLICATION_PROTOCOL_DEFINITION('international standard',
'automotive_design',2009,#1874);
#1874=APPLICATION_CONTEXT(
'Core Data for Automotive Mechanical Design Process');
#1875=PRODUCT_CONTEXT('part definition',#1874,'mechanical');
#1876=PRODUCT('MagGrid','MagGrid v7',$,(#1875));
#1877=PRESENTATION_STYLE_ASSIGNMENT((#1878));
#1878=SURFACE_STYLE_USAGE(.BOTH.,#1879);
#1879=SURFACE_SIDE_STYLE('',(#1880));
#1880=SURFACE_STYLE_FILL_AREA(#1881);
#1881=FILL_AREA_STYLE('Steel - Satin',(#1882));
#1882=FILL_AREA_STYLE_COLOUR('Steel - Satin',#1883);
#1883=COLOUR_RGB('Steel - Satin',0.627450980392157,0.627450980392157,0.627450980392157);
ENDSEC;
END-ISO-10303-21;
