ISO-10303-21;
HEADER;
/* Generated by software containing ST-Developer
 * from STEP Tools, Inc. (www.steptools.com) 
 */

FILE_DESCRIPTION(
/* description */ (''),
/* implementation_level */ '2;1');

FILE_NAME(
/* name */ 'MagGrid LI.step',
/* time_stamp */ '2026-08-06T10:14:53-07:00',
/* author */ (''),
/* organization */ (''),
/* preprocessor_version */ 'ST-DEVELOPER v20.1',
/* originating_system */ 'Autodesk Translation Framework v15.8.0.0',
/* authorisation */ '');

FILE_SCHEMA (('AUTOMOTIVE_DESIGN { 1 0 10303 214 3 1 1 }'));
ENDSEC;

DATA;
#10=MECHANICAL_DESIGN_GEOMETRIC_PRESENTATION_REPRESENTATION('',(#13),#877);
#11=SHAPE_REPRESENTATION_RELATIONSHIP('SRR','None',#884,#12);
#12=ADVANCED_BREP_SHAPE_REPRESENTATION('',(#14),#876);
#13=STYLED_ITEM('',(#893),#14);
#14=MANIFOLD_SOLID_BREP('Body34',#509);
#15=FACE_BOUND('',#84,.T.);
#16=PLANE('',#526);
#17=PLANE('',#530);
#18=PLANE('',#534);
#19=PLANE('',#538);
#20=PLANE('',#542);
#21=PLANE('',#546);
#22=PLANE('',#547);
#23=PLANE('',#551);
#24=PLANE('',#555);
#25=PLANE('',#559);
#26=PLANE('',#563);
#27=PLANE('',#567);
#28=PLANE('',#571);
#29=PLANE('',#572);
#30=PLANE('',#573);
#31=FACE_OUTER_BOUND('',#58,.T.);
#32=FACE_OUTER_BOUND('',#59,.T.);
#33=FACE_OUTER_BOUND('',#60,.T.);
#34=FACE_OUTER_BOUND('',#61,.T.);
#35=FACE_OUTER_BOUND('',#62,.T.);
#36=FACE_OUTER_BOUND('',#63,.T.);
#37=FACE_OUTER_BOUND('',#64,.T.);
#38=FACE_OUTER_BOUND('',#65,.T.);
#39=FACE_OUTER_BOUND('',#66,.T.);
#40=FACE_OUTER_BOUND('',#67,.T.);
#41=FACE_OUTER_BOUND('',#68,.T.);
#42=FACE_OUTER_BOUND('',#69,.T.);
#43=FACE_OUTER_BOUND('',#70,.T.);
#44=FACE_OUTER_BOUND('',#71,.T.);
#45=FACE_OUTER_BOUND('',#72,.T.);
#46=FACE_OUTER_BOUND('',#73,.T.);
#47=FACE_OUTER_BOUND('',#74,.T.);
#48=FACE_OUTER_BOUND('',#75,.T.);
#49=FACE_OUTER_BOUND('',#76,.T.);
#50=FACE_OUTER_BOUND('',#77,.T.);
#51=FACE_OUTER_BOUND('',#78,.T.);
#52=FACE_OUTER_BOUND('',#79,.T.);
#53=FACE_OUTER_BOUND('',#80,.T.);
#54=FACE_OUTER_BOUND('',#81,.T.);
#55=FACE_OUTER_BOUND('',#82,.T.);
#56=FACE_OUTER_BOUND('',#83,.T.);
#57=FACE_OUTER_BOUND('',#85,.T.);
#58=EDGE_LOOP('',(#326,#327,#328,#329));
#59=EDGE_LOOP('',(#330,#331,#332,#333));
#60=EDGE_LOOP('',(#334,#335,#336,#337));
#61=EDGE_LOOP('',(#338,#339,#340,#341));
#62=EDGE_LOOP('',(#342,#343,#344,#345));
#63=EDGE_LOOP('',(#346,#347,#348,#349));
#64=EDGE_LOOP('',(#350,#351,#352,#353));
#65=EDGE_LOOP('',(#354,#355,#356,#357));
#66=EDGE_LOOP('',(#358,#359,#360,#361));
#67=EDGE_LOOP('',(#362,#363,#364,#365));
#68=EDGE_LOOP('',(#366,#367,#368,#369));
#69=EDGE_LOOP('',(#370,#371,#372,#373));
#70=EDGE_LOOP('',(#374,#375,#376,#377,#378,#379,#380,#381,#382,#383,#384,
#385));
#71=EDGE_LOOP('',(#386,#387,#388,#389));
#72=EDGE_LOOP('',(#390,#391,#392,#393));
#73=EDGE_LOOP('',(#394,#395,#396,#397));
#74=EDGE_LOOP('',(#398,#399,#400,#401));
#75=EDGE_LOOP('',(#402,#403,#404,#405));
#76=EDGE_LOOP('',(#406,#407,#408,#409));
#77=EDGE_LOOP('',(#410,#411,#412,#413));
#78=EDGE_LOOP('',(#414,#415,#416,#417));
#79=EDGE_LOOP('',(#418,#419,#420,#421));
#80=EDGE_LOOP('',(#422,#423,#424,#425));
#81=EDGE_LOOP('',(#426,#427,#428,#429));
#82=EDGE_LOOP('',(#430,#431,#432,#433));
#83=EDGE_LOOP('',(#434,#435,#436,#437,#438,#439,#440,#441,#442,#443,#444,
#445));
#84=EDGE_LOOP('',(#446,#447,#448,#449,#450,#451,#452,#453,#454,#455,#456,
#457));
#85=EDGE_LOOP('',(#458,#459,#460,#461,#462,#463,#464,#465,#466,#467,#468,
#469));
#86=LINE('',#732,#134);
#87=LINE('',#735,#135);
#88=LINE('',#738,#136);
#89=LINE('',#740,#137);
#90=LINE('',#741,#138);
#91=LINE('',#746,#139);
#92=LINE('',#750,#140);
#93=LINE('',#752,#141);
#94=LINE('',#753,#142);
#95=LINE('',#758,#143);
#96=LINE('',#762,#144);
#97=LINE('',#764,#145);
#98=LINE('',#765,#146);
#99=LINE('',#770,#147);
#100=LINE('',#774,#148);
#101=LINE('',#776,#149);
#102=LINE('',#777,#150);
#103=LINE('',#782,#151);
#104=LINE('',#786,#152);
#105=LINE('',#788,#153);
#106=LINE('',#789,#154);
#107=LINE('',#794,#155);
#108=LINE('',#797,#156);
#109=LINE('',#798,#157);
#110=LINE('',#805,#158);
#111=LINE('',#808,#159);
#112=LINE('',#811,#160);
#113=LINE('',#813,#161);
#114=LINE('',#814,#162);
#115=LINE('',#820,#163);
#116=LINE('',#823,#164);
#117=LINE('',#825,#165);
#118=LINE('',#826,#166);
#119=LINE('',#832,#167);
#120=LINE('',#835,#168);
#121=LINE('',#837,#169);
#122=LINE('',#838,#170);
#123=LINE('',#844,#171);
#124=LINE('',#847,#172);
#125=LINE('',#849,#173);
#126=LINE('',#850,#174);
#127=LINE('',#856,#175);
#128=LINE('',#859,#176);
#129=LINE('',#861,#177);
#130=LINE('',#862,#178);
#131=LINE('',#868,#179);
#132=LINE('',#870,#180);
#133=LINE('',#871,#181);
#134=VECTOR('',#580,10.);
#135=VECTOR('',#583,10.);
#136=VECTOR('',#586,10.);
#137=VECTOR('',#587,10.);
#138=VECTOR('',#588,10.);
#139=VECTOR('',#593,10.);
#140=VECTOR('',#598,10.);
#141=VECTOR('',#599,10.);
#142=VECTOR('',#600,10.);
#143=VECTOR('',#605,10.);
#144=VECTOR('',#610,10.);
#145=VECTOR('',#611,10.);
#146=VECTOR('',#612,10.);
#147=VECTOR('',#617,10.);
#148=VECTOR('',#622,10.);
#149=VECTOR('',#623,10.);
#150=VECTOR('',#624,10.);
#151=VECTOR('',#629,10.);
#152=VECTOR('',#634,10.);
#153=VECTOR('',#635,10.);
#154=VECTOR('',#636,10.);
#155=VECTOR('',#641,10.);
#156=VECTOR('',#646,10.);
#157=VECTOR('',#647,10.);
#158=VECTOR('',#654,10.);
#159=VECTOR('',#657,10.);
#160=VECTOR('',#660,10.);
#161=VECTOR('',#661,10.);
#162=VECTOR('',#662,10.);
#163=VECTOR('',#669,10.);
#164=VECTOR('',#672,10.);
#165=VECTOR('',#673,10.);
#166=VECTOR('',#674,10.);
#167=VECTOR('',#681,10.);
#168=VECTOR('',#684,10.);
#169=VECTOR('',#685,10.);
#170=VECTOR('',#686,10.);
#171=VECTOR('',#693,10.);
#172=VECTOR('',#696,10.);
#173=VECTOR('',#697,10.);
#174=VECTOR('',#698,10.);
#175=VECTOR('',#705,10.);
#176=VECTOR('',#708,10.);
#177=VECTOR('',#709,10.);
#178=VECTOR('',#710,10.);
#179=VECTOR('',#717,10.);
#180=VECTOR('',#720,10.);
#181=VECTOR('',#721,10.);
#182=CIRCLE('',#524,8.7);
#183=CIRCLE('',#525,8.7);
#184=CIRCLE('',#528,1.3);
#185=CIRCLE('',#529,1.3);
#186=CIRCLE('',#532,1.3);
#187=CIRCLE('',#533,1.3);
#188=CIRCLE('',#536,1.3);
#189=CIRCLE('',#537,1.3);
#190=CIRCLE('',#540,1.3);
#191=CIRCLE('',#541,1.3);
#192=CIRCLE('',#544,1.3);
#193=CIRCLE('',#545,1.3);
#194=CIRCLE('',#549,7.7);
#195=CIRCLE('',#550,7.7);
#196=CIRCLE('',#553,2.3);
#197=CIRCLE('',#554,2.3);
#198=CIRCLE('',#557,2.3);
#199=CIRCLE('',#558,2.3);
#200=CIRCLE('',#561,2.3);
#201=CIRCLE('',#562,2.3);
#202=CIRCLE('',#565,2.3);
#203=CIRCLE('',#566,2.3);
#204=CIRCLE('',#569,2.3);
#205=CIRCLE('',#570,2.3);
#206=VERTEX_POINT('',#728);
#207=VERTEX_POINT('',#729);
#208=VERTEX_POINT('',#731);
#209=VERTEX_POINT('',#733);
#210=VERTEX_POINT('',#737);
#211=VERTEX_POINT('',#739);
#212=VERTEX_POINT('',#743);
#213=VERTEX_POINT('',#745);
#214=VERTEX_POINT('',#749);
#215=VERTEX_POINT('',#751);
#216=VERTEX_POINT('',#755);
#217=VERTEX_POINT('',#757);
#218=VERTEX_POINT('',#761);
#219=VERTEX_POINT('',#763);
#220=VERTEX_POINT('',#767);
#221=VERTEX_POINT('',#769);
#222=VERTEX_POINT('',#773);
#223=VERTEX_POINT('',#775);
#224=VERTEX_POINT('',#779);
#225=VERTEX_POINT('',#781);
#226=VERTEX_POINT('',#785);
#227=VERTEX_POINT('',#787);
#228=VERTEX_POINT('',#791);
#229=VERTEX_POINT('',#793);
#230=VERTEX_POINT('',#801);
#231=VERTEX_POINT('',#802);
#232=VERTEX_POINT('',#804);
#233=VERTEX_POINT('',#806);
#234=VERTEX_POINT('',#810);
#235=VERTEX_POINT('',#812);
#236=VERTEX_POINT('',#816);
#237=VERTEX_POINT('',#818);
#238=VERTEX_POINT('',#822);
#239=VERTEX_POINT('',#824);
#240=VERTEX_POINT('',#828);
#241=VERTEX_POINT('',#830);
#242=VERTEX_POINT('',#834);
#243=VERTEX_POINT('',#836);
#244=VERTEX_POINT('',#840);
#245=VERTEX_POINT('',#842);
#246=VERTEX_POINT('',#846);
#247=VERTEX_POINT('',#848);
#248=VERTEX_POINT('',#852);
#249=VERTEX_POINT('',#854);
#250=VERTEX_POINT('',#858);
#251=VERTEX_POINT('',#860);
#252=VERTEX_POINT('',#864);
#253=VERTEX_POINT('',#866);
#254=EDGE_CURVE('',#206,#207,#182,.T.);
#255=EDGE_CURVE('',#207,#208,#86,.T.);
#256=EDGE_CURVE('',#209,#208,#183,.T.);
#257=EDGE_CURVE('',#206,#209,#87,.T.);
#258=EDGE_CURVE('',#210,#207,#88,.F.);
#259=EDGE_CURVE('',#210,#211,#89,.T.);
#260=EDGE_CURVE('',#208,#211,#90,.T.);
#261=EDGE_CURVE('',#212,#210,#184,.F.);
#262=EDGE_CURVE('',#212,#213,#91,.T.);
#263=EDGE_CURVE('',#211,#213,#185,.T.);
#264=EDGE_CURVE('',#214,#212,#92,.F.);
#265=EDGE_CURVE('',#214,#215,#93,.T.);
#266=EDGE_CURVE('',#213,#215,#94,.T.);
#267=EDGE_CURVE('',#216,#214,#186,.F.);
#268=EDGE_CURVE('',#216,#217,#95,.T.);
#269=EDGE_CURVE('',#215,#217,#187,.T.);
#270=EDGE_CURVE('',#218,#216,#96,.F.);
#271=EDGE_CURVE('',#218,#219,#97,.T.);
#272=EDGE_CURVE('',#217,#219,#98,.T.);
#273=EDGE_CURVE('',#220,#218,#188,.F.);
#274=EDGE_CURVE('',#220,#221,#99,.T.);
#275=EDGE_CURVE('',#219,#221,#189,.T.);
#276=EDGE_CURVE('',#222,#220,#100,.F.);
#277=EDGE_CURVE('',#222,#223,#101,.T.);
#278=EDGE_CURVE('',#221,#223,#102,.T.);
#279=EDGE_CURVE('',#224,#222,#190,.F.);
#280=EDGE_CURVE('',#224,#225,#103,.T.);
#281=EDGE_CURVE('',#223,#225,#191,.T.);
#282=EDGE_CURVE('',#226,#224,#104,.F.);
#283=EDGE_CURVE('',#226,#227,#105,.T.);
#284=EDGE_CURVE('',#225,#227,#106,.T.);
#285=EDGE_CURVE('',#228,#226,#192,.F.);
#286=EDGE_CURVE('',#228,#229,#107,.T.);
#287=EDGE_CURVE('',#227,#229,#193,.T.);
#288=EDGE_CURVE('',#206,#228,#108,.F.);
#289=EDGE_CURVE('',#229,#209,#109,.T.);
#290=EDGE_CURVE('',#230,#231,#194,.T.);
#291=EDGE_CURVE('',#230,#232,#110,.T.);
#292=EDGE_CURVE('',#233,#232,#195,.T.);
#293=EDGE_CURVE('',#231,#233,#111,.T.);
#294=EDGE_CURVE('',#234,#231,#112,.T.);
#295=EDGE_CURVE('',#235,#233,#113,.T.);
#296=EDGE_CURVE('',#234,#235,#114,.T.);
#297=EDGE_CURVE('',#236,#234,#196,.T.);
#298=EDGE_CURVE('',#237,#235,#197,.T.);
#299=EDGE_CURVE('',#236,#237,#115,.T.);
#300=EDGE_CURVE('',#238,#236,#116,.T.);
#301=EDGE_CURVE('',#239,#237,#117,.T.);
#302=EDGE_CURVE('',#238,#239,#118,.T.);
#303=EDGE_CURVE('',#240,#238,#198,.T.);
#304=EDGE_CURVE('',#241,#239,#199,.T.);
#305=EDGE_CURVE('',#240,#241,#119,.T.);
#306=EDGE_CURVE('',#242,#240,#120,.T.);
#307=EDGE_CURVE('',#243,#241,#121,.T.);
#308=EDGE_CURVE('',#242,#243,#122,.T.);
#309=EDGE_CURVE('',#244,#242,#200,.T.);
#310=EDGE_CURVE('',#245,#243,#201,.T.);
#311=EDGE_CURVE('',#244,#245,#123,.T.);
#312=EDGE_CURVE('',#246,#244,#124,.T.);
#313=EDGE_CURVE('',#247,#245,#125,.T.);
#314=EDGE_CURVE('',#246,#247,#126,.T.);
#315=EDGE_CURVE('',#248,#246,#202,.T.);
#316=EDGE_CURVE('',#249,#247,#203,.T.);
#317=EDGE_CURVE('',#248,#249,#127,.T.);
#318=EDGE_CURVE('',#250,#248,#128,.T.);
#319=EDGE_CURVE('',#251,#249,#129,.T.);
#320=EDGE_CURVE('',#250,#251,#130,.T.);
#321=EDGE_CURVE('',#252,#250,#204,.T.);
#322=EDGE_CURVE('',#253,#251,#205,.T.);
#323=EDGE_CURVE('',#252,#253,#131,.T.);
#324=EDGE_CURVE('',#230,#252,#132,.T.);
#325=EDGE_CURVE('',#232,#253,#133,.T.);
#326=ORIENTED_EDGE('',*,*,#254,.T.);
#327=ORIENTED_EDGE('',*,*,#255,.T.);
#328=ORIENTED_EDGE('',*,*,#256,.F.);
#329=ORIENTED_EDGE('',*,*,#257,.F.);
#330=ORIENTED_EDGE('',*,*,#258,.F.);
#331=ORIENTED_EDGE('',*,*,#259,.T.);
#332=ORIENTED_EDGE('',*,*,#260,.F.);
#333=ORIENTED_EDGE('',*,*,#255,.F.);
#334=ORIENTED_EDGE('',*,*,#261,.F.);
#335=ORIENTED_EDGE('',*,*,#262,.T.);
#336=ORIENTED_EDGE('',*,*,#263,.F.);
#337=ORIENTED_EDGE('',*,*,#259,.F.);
#338=ORIENTED_EDGE('',*,*,#264,.F.);
#339=ORIENTED_EDGE('',*,*,#265,.T.);
#340=ORIENTED_EDGE('',*,*,#266,.F.);
#341=ORIENTED_EDGE('',*,*,#262,.F.);
#342=ORIENTED_EDGE('',*,*,#267,.F.);
#343=ORIENTED_EDGE('',*,*,#268,.T.);
#344=ORIENTED_EDGE('',*,*,#269,.F.);
#345=ORIENTED_EDGE('',*,*,#265,.F.);
#346=ORIENTED_EDGE('',*,*,#270,.F.);
#347=ORIENTED_EDGE('',*,*,#271,.T.);
#348=ORIENTED_EDGE('',*,*,#272,.F.);
#349=ORIENTED_EDGE('',*,*,#268,.F.);
#350=ORIENTED_EDGE('',*,*,#273,.F.);
#351=ORIENTED_EDGE('',*,*,#274,.T.);
#352=ORIENTED_EDGE('',*,*,#275,.F.);
#353=ORIENTED_EDGE('',*,*,#271,.F.);
#354=ORIENTED_EDGE('',*,*,#276,.F.);
#355=ORIENTED_EDGE('',*,*,#277,.T.);
#356=ORIENTED_EDGE('',*,*,#278,.F.);
#357=ORIENTED_EDGE('',*,*,#274,.F.);
#358=ORIENTED_EDGE('',*,*,#279,.F.);
#359=ORIENTED_EDGE('',*,*,#280,.T.);
#360=ORIENTED_EDGE('',*,*,#281,.F.);
#361=ORIENTED_EDGE('',*,*,#277,.F.);
#362=ORIENTED_EDGE('',*,*,#282,.F.);
#363=ORIENTED_EDGE('',*,*,#283,.T.);
#364=ORIENTED_EDGE('',*,*,#284,.F.);
#365=ORIENTED_EDGE('',*,*,#280,.F.);
#366=ORIENTED_EDGE('',*,*,#285,.F.);
#367=ORIENTED_EDGE('',*,*,#286,.T.);
#368=ORIENTED_EDGE('',*,*,#287,.F.);
#369=ORIENTED_EDGE('',*,*,#283,.F.);
#370=ORIENTED_EDGE('',*,*,#288,.F.);
#371=ORIENTED_EDGE('',*,*,#257,.T.);
#372=ORIENTED_EDGE('',*,*,#289,.F.);
#373=ORIENTED_EDGE('',*,*,#286,.F.);
#374=ORIENTED_EDGE('',*,*,#288,.T.);
#375=ORIENTED_EDGE('',*,*,#285,.T.);
#376=ORIENTED_EDGE('',*,*,#282,.T.);
#377=ORIENTED_EDGE('',*,*,#279,.T.);
#378=ORIENTED_EDGE('',*,*,#276,.T.);
#379=ORIENTED_EDGE('',*,*,#273,.T.);
#380=ORIENTED_EDGE('',*,*,#270,.T.);
#381=ORIENTED_EDGE('',*,*,#267,.T.);
#382=ORIENTED_EDGE('',*,*,#264,.T.);
#383=ORIENTED_EDGE('',*,*,#261,.T.);
#384=ORIENTED_EDGE('',*,*,#258,.T.);
#385=ORIENTED_EDGE('',*,*,#254,.F.);
#386=ORIENTED_EDGE('',*,*,#290,.F.);
#387=ORIENTED_EDGE('',*,*,#291,.T.);
#388=ORIENTED_EDGE('',*,*,#292,.F.);
#389=ORIENTED_EDGE('',*,*,#293,.F.);
#390=ORIENTED_EDGE('',*,*,#294,.T.);
#391=ORIENTED_EDGE('',*,*,#293,.T.);
#392=ORIENTED_EDGE('',*,*,#295,.F.);
#393=ORIENTED_EDGE('',*,*,#296,.F.);
#394=ORIENTED_EDGE('',*,*,#297,.T.);
#395=ORIENTED_EDGE('',*,*,#296,.T.);
#396=ORIENTED_EDGE('',*,*,#298,.F.);
#397=ORIENTED_EDGE('',*,*,#299,.F.);
#398=ORIENTED_EDGE('',*,*,#300,.T.);
#399=ORIENTED_EDGE('',*,*,#299,.T.);
#400=ORIENTED_EDGE('',*,*,#301,.F.);
#401=ORIENTED_EDGE('',*,*,#302,.F.);
#402=ORIENTED_EDGE('',*,*,#303,.T.);
#403=ORIENTED_EDGE('',*,*,#302,.T.);
#404=ORIENTED_EDGE('',*,*,#304,.F.);
#405=ORIENTED_EDGE('',*,*,#305,.F.);
#406=ORIENTED_EDGE('',*,*,#306,.T.);
#407=ORIENTED_EDGE('',*,*,#305,.T.);
#408=ORIENTED_EDGE('',*,*,#307,.F.);
#409=ORIENTED_EDGE('',*,*,#308,.F.);
#410=ORIENTED_EDGE('',*,*,#309,.T.);
#411=ORIENTED_EDGE('',*,*,#308,.T.);
#412=ORIENTED_EDGE('',*,*,#310,.F.);
#413=ORIENTED_EDGE('',*,*,#311,.F.);
#414=ORIENTED_EDGE('',*,*,#312,.T.);
#415=ORIENTED_EDGE('',*,*,#311,.T.);
#416=ORIENTED_EDGE('',*,*,#313,.F.);
#417=ORIENTED_EDGE('',*,*,#314,.F.);
#418=ORIENTED_EDGE('',*,*,#315,.T.);
#419=ORIENTED_EDGE('',*,*,#314,.T.);
#420=ORIENTED_EDGE('',*,*,#316,.F.);
#421=ORIENTED_EDGE('',*,*,#317,.F.);
#422=ORIENTED_EDGE('',*,*,#318,.T.);
#423=ORIENTED_EDGE('',*,*,#317,.T.);
#424=ORIENTED_EDGE('',*,*,#319,.F.);
#425=ORIENTED_EDGE('',*,*,#320,.F.);
#426=ORIENTED_EDGE('',*,*,#321,.T.);
#427=ORIENTED_EDGE('',*,*,#320,.T.);
#428=ORIENTED_EDGE('',*,*,#322,.F.);
#429=ORIENTED_EDGE('',*,*,#323,.F.);
#430=ORIENTED_EDGE('',*,*,#324,.T.);
#431=ORIENTED_EDGE('',*,*,#323,.T.);
#432=ORIENTED_EDGE('',*,*,#325,.F.);
#433=ORIENTED_EDGE('',*,*,#291,.F.);
#434=ORIENTED_EDGE('',*,*,#325,.T.);
#435=ORIENTED_EDGE('',*,*,#322,.T.);
#436=ORIENTED_EDGE('',*,*,#319,.T.);
#437=ORIENTED_EDGE('',*,*,#316,.T.);
#438=ORIENTED_EDGE('',*,*,#313,.T.);
#439=ORIENTED_EDGE('',*,*,#310,.T.);
#440=ORIENTED_EDGE('',*,*,#307,.T.);
#441=ORIENTED_EDGE('',*,*,#304,.T.);
#442=ORIENTED_EDGE('',*,*,#301,.T.);
#443=ORIENTED_EDGE('',*,*,#298,.T.);
#444=ORIENTED_EDGE('',*,*,#295,.T.);
#445=ORIENTED_EDGE('',*,*,#292,.T.);
#446=ORIENTED_EDGE('',*,*,#256,.T.);
#447=ORIENTED_EDGE('',*,*,#260,.T.);
#448=ORIENTED_EDGE('',*,*,#263,.T.);
#449=ORIENTED_EDGE('',*,*,#266,.T.);
#450=ORIENTED_EDGE('',*,*,#269,.T.);
#451=ORIENTED_EDGE('',*,*,#272,.T.);
#452=ORIENTED_EDGE('',*,*,#275,.T.);
#453=ORIENTED_EDGE('',*,*,#278,.T.);
#454=ORIENTED_EDGE('',*,*,#281,.T.);
#455=ORIENTED_EDGE('',*,*,#284,.T.);
#456=ORIENTED_EDGE('',*,*,#287,.T.);
#457=ORIENTED_EDGE('',*,*,#289,.T.);
#458=ORIENTED_EDGE('',*,*,#324,.F.);
#459=ORIENTED_EDGE('',*,*,#290,.T.);
#460=ORIENTED_EDGE('',*,*,#294,.F.);
#461=ORIENTED_EDGE('',*,*,#297,.F.);
#462=ORIENTED_EDGE('',*,*,#300,.F.);
#463=ORIENTED_EDGE('',*,*,#303,.F.);
#464=ORIENTED_EDGE('',*,*,#306,.F.);
#465=ORIENTED_EDGE('',*,*,#309,.F.);
#466=ORIENTED_EDGE('',*,*,#312,.F.);
#467=ORIENTED_EDGE('',*,*,#315,.F.);
#468=ORIENTED_EDGE('',*,*,#318,.F.);
#469=ORIENTED_EDGE('',*,*,#321,.F.);
#470=CYLINDRICAL_SURFACE('',#523,8.7);
#471=CYLINDRICAL_SURFACE('',#527,1.3);
#472=CYLINDRICAL_SURFACE('',#531,1.3);
#473=CYLINDRICAL_SURFACE('',#535,1.3);
#474=CYLINDRICAL_SURFACE('',#539,1.3);
#475=CYLINDRICAL_SURFACE('',#543,1.3);
#476=CYLINDRICAL_SURFACE('',#548,7.7);
#477=CYLINDRICAL_SURFACE('',#552,2.3);
#478=CYLINDRICAL_SURFACE('',#556,2.3);
#479=CYLINDRICAL_SURFACE('',#560,2.3);
#480=CYLINDRICAL_SURFACE('',#564,2.3);
#481=CYLINDRICAL_SURFACE('',#568,2.3);
#482=ADVANCED_FACE('',(#31),#470,.T.);
#483=ADVANCED_FACE('',(#32),#16,.F.);
#484=ADVANCED_FACE('',(#33),#471,.F.);
#485=ADVANCED_FACE('',(#34),#17,.F.);
#486=ADVANCED_FACE('',(#35),#472,.F.);
#487=ADVANCED_FACE('',(#36),#18,.F.);
#488=ADVANCED_FACE('',(#37),#473,.F.);
#489=ADVANCED_FACE('',(#38),#19,.F.);
#490=ADVANCED_FACE('',(#39),#474,.F.);
#491=ADVANCED_FACE('',(#40),#20,.F.);
#492=ADVANCED_FACE('',(#41),#475,.F.);
#493=ADVANCED_FACE('',(#42),#21,.F.);
#494=ADVANCED_FACE('',(#43),#22,.T.);
#495=ADVANCED_FACE('',(#44),#476,.F.);
#496=ADVANCED_FACE('',(#45),#23,.T.);
#497=ADVANCED_FACE('',(#46),#477,.T.);
#498=ADVANCED_FACE('',(#47),#24,.T.);
#499=ADVANCED_FACE('',(#48),#478,.T.);
#500=ADVANCED_FACE('',(#49),#25,.T.);
#501=ADVANCED_FACE('',(#50),#479,.T.);
#502=ADVANCED_FACE('',(#51),#26,.T.);
#503=ADVANCED_FACE('',(#52),#480,.T.);
#504=ADVANCED_FACE('',(#53),#27,.T.);
#505=ADVANCED_FACE('',(#54),#481,.T.);
#506=ADVANCED_FACE('',(#55),#28,.T.);
#507=ADVANCED_FACE('',(#56,#15),#29,.T.);
#508=ADVANCED_FACE('',(#57),#30,.F.);
#509=CLOSED_SHELL('',(#482,#483,#484,#485,#486,#487,#488,#489,#490,#491,
#492,#493,#494,#495,#496,#497,#498,#499,#500,#501,#502,#503,#504,#505,#506,
#507,#508));
#510=DERIVED_UNIT_ELEMENT(#512,1.);
#511=DERIVED_UNIT_ELEMENT(#879,-3.);
#512=(
MASS_UNIT()
NAMED_UNIT(*)
SI_UNIT(.KILO.,.GRAM.)
);
#513=DERIVED_UNIT((#510,#511));
#514=MEASURE_REPRESENTATION_ITEM('density measure',
POSITIVE_RATIO_MEASURE(7850.),#513);
#515=PROPERTY_DEFINITION_REPRESENTATION(#520,#517);
#516=PROPERTY_DEFINITION_REPRESENTATION(#521,#518);
#517=REPRESENTATION('material name',(#519),#876);
#518=REPRESENTATION('density',(#514),#876);
#519=DESCRIPTIVE_REPRESENTATION_ITEM('Steel','Steel');
#520=PROPERTY_DEFINITION('material property','material name',#886);
#521=PROPERTY_DEFINITION('material property','density of part',#886);
#522=AXIS2_PLACEMENT_3D('',#726,#574,#575);
#523=AXIS2_PLACEMENT_3D('',#727,#576,#577);
#524=AXIS2_PLACEMENT_3D('',#730,#578,#579);
#525=AXIS2_PLACEMENT_3D('',#734,#581,#582);
#526=AXIS2_PLACEMENT_3D('',#736,#584,#585);
#527=AXIS2_PLACEMENT_3D('',#742,#589,#590);
#528=AXIS2_PLACEMENT_3D('',#744,#591,#592);
#529=AXIS2_PLACEMENT_3D('',#747,#594,#595);
#530=AXIS2_PLACEMENT_3D('',#748,#596,#597);
#531=AXIS2_PLACEMENT_3D('',#754,#601,#602);
#532=AXIS2_PLACEMENT_3D('',#756,#603,#604);
#533=AXIS2_PLACEMENT_3D('',#759,#606,#607);
#534=AXIS2_PLACEMENT_3D('',#760,#608,#609);
#535=AXIS2_PLACEMENT_3D('',#766,#613,#614);
#536=AXIS2_PLACEMENT_3D('',#768,#615,#616);
#537=AXIS2_PLACEMENT_3D('',#771,#618,#619);
#538=AXIS2_PLACEMENT_3D('',#772,#620,#621);
#539=AXIS2_PLACEMENT_3D('',#778,#625,#626);
#540=AXIS2_PLACEMENT_3D('',#780,#627,#628);
#541=AXIS2_PLACEMENT_3D('',#783,#630,#631);
#542=AXIS2_PLACEMENT_3D('',#784,#632,#633);
#543=AXIS2_PLACEMENT_3D('',#790,#637,#638);
#544=AXIS2_PLACEMENT_3D('',#792,#639,#640);
#545=AXIS2_PLACEMENT_3D('',#795,#642,#643);
#546=AXIS2_PLACEMENT_3D('',#796,#644,#645);
#547=AXIS2_PLACEMENT_3D('',#799,#648,#649);
#548=AXIS2_PLACEMENT_3D('',#800,#650,#651);
#549=AXIS2_PLACEMENT_3D('',#803,#652,#653);
#550=AXIS2_PLACEMENT_3D('',#807,#655,#656);
#551=AXIS2_PLACEMENT_3D('',#809,#658,#659);
#552=AXIS2_PLACEMENT_3D('',#815,#663,#664);
#553=AXIS2_PLACEMENT_3D('',#817,#665,#666);
#554=AXIS2_PLACEMENT_3D('',#819,#667,#668);
#555=AXIS2_PLACEMENT_3D('',#821,#670,#671);
#556=AXIS2_PLACEMENT_3D('',#827,#675,#676);
#557=AXIS2_PLACEMENT_3D('',#829,#677,#678);
#558=AXIS2_PLACEMENT_3D('',#831,#679,#680);
#559=AXIS2_PLACEMENT_3D('',#833,#682,#683);
#560=AXIS2_PLACEMENT_3D('',#839,#687,#688);
#561=AXIS2_PLACEMENT_3D('',#841,#689,#690);
#562=AXIS2_PLACEMENT_3D('',#843,#691,#692);
#563=AXIS2_PLACEMENT_3D('',#845,#694,#695);
#564=AXIS2_PLACEMENT_3D('',#851,#699,#700);
#565=AXIS2_PLACEMENT_3D('',#853,#701,#702);
#566=AXIS2_PLACEMENT_3D('',#855,#703,#704);
#567=AXIS2_PLACEMENT_3D('',#857,#706,#707);
#568=AXIS2_PLACEMENT_3D('',#863,#711,#712);
#569=AXIS2_PLACEMENT_3D('',#865,#713,#714);
#570=AXIS2_PLACEMENT_3D('',#867,#715,#716);
#571=AXIS2_PLACEMENT_3D('',#869,#718,#719);
#572=AXIS2_PLACEMENT_3D('',#872,#722,#723);
#573=AXIS2_PLACEMENT_3D('',#873,#724,#725);
#574=DIRECTION('axis',(0.,0.,1.));
#575=DIRECTION('refdir',(1.,0.,0.));
#576=DIRECTION('center_axis',(0.,0.,1.));
#577=DIRECTION('ref_axis',(1.,0.,0.));
#578=DIRECTION('center_axis',(0.,0.,1.));
#579=DIRECTION('ref_axis',(1.,0.,0.));
#580=DIRECTION('',(0.,0.,1.));
#581=DIRECTION('center_axis',(0.,0.,1.));
#582=DIRECTION('ref_axis',(1.,0.,0.));
#583=DIRECTION('',(0.,0.,1.));
#584=DIRECTION('center_axis',(0.,-1.,0.));
#585=DIRECTION('ref_axis',(1.,0.,0.));
#586=DIRECTION('',(-1.,0.,0.));
#587=DIRECTION('',(0.,0.,1.));
#588=DIRECTION('',(-1.,0.,0.));
#589=DIRECTION('center_axis',(0.,0.,1.));
#590=DIRECTION('ref_axis',(-1.,0.,0.));
#591=DIRECTION('center_axis',(0.,0.,-1.));
#592=DIRECTION('ref_axis',(-1.,0.,0.));
#593=DIRECTION('',(0.,0.,1.));
#594=DIRECTION('center_axis',(0.,0.,-1.));
#595=DIRECTION('ref_axis',(-1.,0.,0.));
#596=DIRECTION('center_axis',(-1.,2.77555756156289E-16,0.));
#597=DIRECTION('ref_axis',(-2.77555756156289E-16,-1.,0.));
#598=DIRECTION('',(2.77555756156289E-16,1.,0.));
#599=DIRECTION('',(0.,0.,1.));
#600=DIRECTION('',(2.77555756156289E-16,1.,0.));
#601=DIRECTION('center_axis',(0.,0.,1.));
#602=DIRECTION('ref_axis',(0.,1.,0.));
#603=DIRECTION('center_axis',(0.,0.,-1.));
#604=DIRECTION('ref_axis',(0.,1.,0.));
#605=DIRECTION('',(0.,0.,1.));
#606=DIRECTION('center_axis',(0.,0.,-1.));
#607=DIRECTION('ref_axis',(0.,1.,0.));
#608=DIRECTION('center_axis',(0.,1.,0.));
#609=DIRECTION('ref_axis',(-1.,0.,0.));
#610=DIRECTION('',(1.,0.,0.));
#611=DIRECTION('',(0.,0.,1.));
#612=DIRECTION('',(1.,0.,0.));
#613=DIRECTION('center_axis',(0.,0.,1.));
#614=DIRECTION('ref_axis',(1.,0.,0.));
#615=DIRECTION('center_axis',(0.,0.,-1.));
#616=DIRECTION('ref_axis',(1.,0.,0.));
#617=DIRECTION('',(0.,0.,1.));
#618=DIRECTION('center_axis',(0.,0.,-1.));
#619=DIRECTION('ref_axis',(1.,0.,0.));
#620=DIRECTION('center_axis',(1.,2.40048221540574E-16,0.));
#621=DIRECTION('ref_axis',(-2.40048221540574E-16,1.,0.));
#622=DIRECTION('',(2.40048221540574E-16,-1.,0.));
#623=DIRECTION('',(0.,0.,1.));
#624=DIRECTION('',(2.40048221540574E-16,-1.,0.));
#625=DIRECTION('center_axis',(0.,0.,1.));
#626=DIRECTION('ref_axis',(0.,-1.,0.));
#627=DIRECTION('center_axis',(0.,0.,-1.));
#628=DIRECTION('ref_axis',(0.,-1.,0.));
#629=DIRECTION('',(0.,0.,1.));
#630=DIRECTION('center_axis',(0.,0.,-1.));
#631=DIRECTION('ref_axis',(0.,-1.,0.));
#632=DIRECTION('center_axis',(0.,-1.,0.));
#633=DIRECTION('ref_axis',(1.,0.,0.));
#634=DIRECTION('',(-1.,0.,0.));
#635=DIRECTION('',(0.,0.,1.));
#636=DIRECTION('',(-1.,0.,0.));
#637=DIRECTION('center_axis',(0.,0.,1.));
#638=DIRECTION('ref_axis',(-1.,-9.65411325761004E-16,0.));
#639=DIRECTION('center_axis',(0.,0.,-1.));
#640=DIRECTION('ref_axis',(-1.,-9.65411325761004E-16,0.));
#641=DIRECTION('',(0.,0.,1.));
#642=DIRECTION('center_axis',(0.,0.,-1.));
#643=DIRECTION('ref_axis',(-1.,-9.65411325761004E-16,0.));
#644=DIRECTION('center_axis',(-1.,0.,0.));
#645=DIRECTION('ref_axis',(0.,-1.,0.));
#646=DIRECTION('',(0.,1.,0.));
#647=DIRECTION('',(0.,1.,0.));
#648=DIRECTION('center_axis',(0.,0.,1.));
#649=DIRECTION('ref_axis',(-1.,0.,0.));
#650=DIRECTION('center_axis',(0.,0.,1.));
#651=DIRECTION('ref_axis',(1.,0.,0.));
#652=DIRECTION('center_axis',(0.,0.,1.));
#653=DIRECTION('ref_axis',(1.,0.,0.));
#654=DIRECTION('',(0.,0.,1.));
#655=DIRECTION('center_axis',(0.,0.,-1.));
#656=DIRECTION('ref_axis',(1.,0.,0.));
#657=DIRECTION('',(0.,0.,1.));
#658=DIRECTION('center_axis',(0.,-1.,0.));
#659=DIRECTION('ref_axis',(1.,0.,0.));
#660=DIRECTION('',(1.,0.,0.));
#661=DIRECTION('',(1.,0.,0.));
#662=DIRECTION('',(0.,0.,1.));
#663=DIRECTION('center_axis',(0.,0.,1.));
#664=DIRECTION('ref_axis',(-1.,0.,0.));
#665=DIRECTION('center_axis',(0.,0.,1.));
#666=DIRECTION('ref_axis',(-1.,0.,0.));
#667=DIRECTION('center_axis',(0.,0.,1.));
#668=DIRECTION('ref_axis',(-1.,0.,0.));
#669=DIRECTION('',(0.,0.,1.));
#670=DIRECTION('center_axis',(-1.,2.77555756156289E-16,0.));
#671=DIRECTION('ref_axis',(-2.77555756156289E-16,-1.,0.));
#672=DIRECTION('',(-2.77555756156289E-16,-1.,0.));
#673=DIRECTION('',(-2.77555756156289E-16,-1.,0.));
#674=DIRECTION('',(0.,0.,1.));
#675=DIRECTION('center_axis',(0.,0.,1.));
#676=DIRECTION('ref_axis',(0.,1.,0.));
#677=DIRECTION('center_axis',(0.,0.,1.));
#678=DIRECTION('ref_axis',(0.,1.,0.));
#679=DIRECTION('center_axis',(0.,0.,1.));
#680=DIRECTION('ref_axis',(0.,1.,0.));
#681=DIRECTION('',(0.,0.,1.));
#682=DIRECTION('center_axis',(0.,1.,0.));
#683=DIRECTION('ref_axis',(-1.,0.,0.));
#684=DIRECTION('',(-1.,0.,0.));
#685=DIRECTION('',(-1.,0.,0.));
#686=DIRECTION('',(0.,0.,1.));
#687=DIRECTION('center_axis',(0.,0.,1.));
#688=DIRECTION('ref_axis',(1.,0.,0.));
#689=DIRECTION('center_axis',(0.,0.,1.));
#690=DIRECTION('ref_axis',(1.,0.,0.));
#691=DIRECTION('center_axis',(0.,0.,1.));
#692=DIRECTION('ref_axis',(1.,0.,0.));
#693=DIRECTION('',(0.,0.,1.));
#694=DIRECTION('center_axis',(1.,2.40048221540574E-16,0.));
#695=DIRECTION('ref_axis',(-2.40048221540574E-16,1.,0.));
#696=DIRECTION('',(-2.40048221540574E-16,1.,0.));
#697=DIRECTION('',(-2.40048221540574E-16,1.,0.));
#698=DIRECTION('',(0.,0.,1.));
#699=DIRECTION('center_axis',(0.,0.,1.));
#700=DIRECTION('ref_axis',(0.,-1.,0.));
#701=DIRECTION('center_axis',(0.,0.,1.));
#702=DIRECTION('ref_axis',(0.,-1.,0.));
#703=DIRECTION('center_axis',(0.,0.,1.));
#704=DIRECTION('ref_axis',(0.,-1.,0.));
#705=DIRECTION('',(0.,0.,1.));
#706=DIRECTION('center_axis',(0.,-1.,0.));
#707=DIRECTION('ref_axis',(1.,0.,0.));
#708=DIRECTION('',(1.,0.,0.));
#709=DIRECTION('',(1.,0.,0.));
#710=DIRECTION('',(0.,0.,1.));
#711=DIRECTION('center_axis',(0.,0.,1.));
#712=DIRECTION('ref_axis',(-1.,-9.65411325761004E-16,0.));
#713=DIRECTION('center_axis',(0.,0.,1.));
#714=DIRECTION('ref_axis',(-1.,-9.65411325761004E-16,0.));
#715=DIRECTION('center_axis',(0.,0.,1.));
#716=DIRECTION('ref_axis',(-1.,-9.65411325761004E-16,0.));
#717=DIRECTION('',(0.,0.,1.));
#718=DIRECTION('center_axis',(-1.,0.,0.));
#719=DIRECTION('ref_axis',(0.,-1.,0.));
#720=DIRECTION('',(0.,-1.,0.));
#721=DIRECTION('',(0.,-1.,0.));
#722=DIRECTION('center_axis',(0.,0.,1.));
#723=DIRECTION('ref_axis',(-1.,0.,0.));
#724=DIRECTION('center_axis',(0.,0.,1.));
#725=DIRECTION('ref_axis',(-1.,0.,0.));
#726=CARTESIAN_POINT('',(0.,0.,0.));
#727=CARTESIAN_POINT('Origin',(100.,16.,2.5));
#728=CARTESIAN_POINT('',(108.7,16.,3.5));
#729=CARTESIAN_POINT('',(100.,24.7,3.5));
#730=CARTESIAN_POINT('Origin',(100.,16.,3.5));
#731=CARTESIAN_POINT('',(100.,24.7,21.));
#732=CARTESIAN_POINT('',(100.,24.7,2.5));
#733=CARTESIAN_POINT('',(108.7,16.,21.));
#734=CARTESIAN_POINT('Origin',(100.,16.,21.));
#735=CARTESIAN_POINT('',(108.7,16.,2.5));
#736=CARTESIAN_POINT('Origin',(68.,24.7,2.5));
#737=CARTESIAN_POINT('',(68.,24.7,3.5));
#738=CARTESIAN_POINT('',(86.5,24.7,3.5));
#739=CARTESIAN_POINT('',(68.,24.7,21.));
#740=CARTESIAN_POINT('',(68.,24.7,2.5));
#741=CARTESIAN_POINT('',(86.5,24.7,21.));
#742=CARTESIAN_POINT('Origin',(68.,26.,2.5));
#743=CARTESIAN_POINT('',(66.7,26.,3.5));
#744=CARTESIAN_POINT('Origin',(68.,26.,3.5));
#745=CARTESIAN_POINT('',(66.7,26.,21.));
#746=CARTESIAN_POINT('',(66.7,26.,2.5));
#747=CARTESIAN_POINT('Origin',(68.,26.,21.));
#748=CARTESIAN_POINT('Origin',(66.7,58.,2.5));
#749=CARTESIAN_POINT('',(66.7,58.,3.5));
#750=CARTESIAN_POINT('',(66.7,39.5,3.5));
#751=CARTESIAN_POINT('',(66.7,58.,21.));
#752=CARTESIAN_POINT('',(66.7,58.,2.5));
#753=CARTESIAN_POINT('',(66.7,39.5,21.));
#754=CARTESIAN_POINT('Origin',(68.,58.,2.5));
#755=CARTESIAN_POINT('',(68.,59.3,3.5));
#756=CARTESIAN_POINT('Origin',(68.,58.,3.5));
#757=CARTESIAN_POINT('',(68.,59.3,21.));
#758=CARTESIAN_POINT('',(68.,59.3,2.5));
#759=CARTESIAN_POINT('Origin',(68.,58.,21.));
#760=CARTESIAN_POINT('Origin',(142.,59.3,2.5));
#761=CARTESIAN_POINT('',(142.,59.3,3.5));
#762=CARTESIAN_POINT('',(123.5,59.3,3.5));
#763=CARTESIAN_POINT('',(142.,59.3,21.));
#764=CARTESIAN_POINT('',(142.,59.3,2.5));
#765=CARTESIAN_POINT('',(123.5,59.3,21.));
#766=CARTESIAN_POINT('Origin',(142.,58.,2.5));
#767=CARTESIAN_POINT('',(143.3,58.,3.5));
#768=CARTESIAN_POINT('Origin',(142.,58.,3.5));
#769=CARTESIAN_POINT('',(143.3,58.,21.));
#770=CARTESIAN_POINT('',(143.3,58.,2.5));
#771=CARTESIAN_POINT('Origin',(142.,58.,21.));
#772=CARTESIAN_POINT('Origin',(143.3,-16.,2.5));
#773=CARTESIAN_POINT('',(143.3,-16.,3.5));
#774=CARTESIAN_POINT('',(143.3,2.5,3.5));
#775=CARTESIAN_POINT('',(143.3,-16.,21.));
#776=CARTESIAN_POINT('',(143.3,-16.,2.5));
#777=CARTESIAN_POINT('',(143.3,2.5,21.));
#778=CARTESIAN_POINT('Origin',(142.,-16.,2.5));
#779=CARTESIAN_POINT('',(142.,-17.3,3.5));
#780=CARTESIAN_POINT('Origin',(142.,-16.,3.5));
#781=CARTESIAN_POINT('',(142.,-17.3,21.));
#782=CARTESIAN_POINT('',(142.,-17.3,2.5));
#783=CARTESIAN_POINT('Origin',(142.,-16.,21.));
#784=CARTESIAN_POINT('Origin',(110.,-17.3,2.5));
#785=CARTESIAN_POINT('',(110.,-17.3,3.5));
#786=CARTESIAN_POINT('',(107.5,-17.3,3.5));
#787=CARTESIAN_POINT('',(110.,-17.3,21.));
#788=CARTESIAN_POINT('',(110.,-17.3,2.5));
#789=CARTESIAN_POINT('',(107.5,-17.3,21.));
#790=CARTESIAN_POINT('Origin',(110.,-16.,2.5));
#791=CARTESIAN_POINT('',(108.7,-16.,3.5));
#792=CARTESIAN_POINT('Origin',(110.,-16.,3.5));
#793=CARTESIAN_POINT('',(108.7,-16.,21.));
#794=CARTESIAN_POINT('',(108.7,-16.,2.5));
#795=CARTESIAN_POINT('Origin',(110.,-16.,21.));
#796=CARTESIAN_POINT('Origin',(108.7,16.,2.5));
#797=CARTESIAN_POINT('',(108.7,18.5,3.5));
#798=CARTESIAN_POINT('',(108.7,18.5,21.));
#799=CARTESIAN_POINT('Origin',(105.,21.,3.5));
#800=CARTESIAN_POINT('Origin',(100.,16.,2.5));
#801=CARTESIAN_POINT('',(107.7,16.,2.5));
#802=CARTESIAN_POINT('',(100.,23.7,2.5));
#803=CARTESIAN_POINT('Origin',(100.,16.,2.5));
#804=CARTESIAN_POINT('',(107.7,16.,21.));
#805=CARTESIAN_POINT('',(107.7,16.,2.5));
#806=CARTESIAN_POINT('',(100.,23.7,21.));
#807=CARTESIAN_POINT('Origin',(100.,16.,21.));
#808=CARTESIAN_POINT('',(100.,23.7,2.5));
#809=CARTESIAN_POINT('Origin',(68.,23.7,2.5));
#810=CARTESIAN_POINT('',(68.,23.7,2.5));
#811=CARTESIAN_POINT('',(68.,23.7,2.5));
#812=CARTESIAN_POINT('',(68.,23.7,21.));
#813=CARTESIAN_POINT('',(68.,23.7,21.));
#814=CARTESIAN_POINT('',(68.,23.7,2.5));
#815=CARTESIAN_POINT('Origin',(68.,26.,2.5));
#816=CARTESIAN_POINT('',(65.7,26.,2.5));
#817=CARTESIAN_POINT('Origin',(68.,26.,2.5));
#818=CARTESIAN_POINT('',(65.7,26.,21.));
#819=CARTESIAN_POINT('Origin',(68.,26.,21.));
#820=CARTESIAN_POINT('',(65.7,26.,2.5));
#821=CARTESIAN_POINT('Origin',(65.7,58.,2.5));
#822=CARTESIAN_POINT('',(65.7,58.,2.5));
#823=CARTESIAN_POINT('',(65.7,58.,2.5));
#824=CARTESIAN_POINT('',(65.7,58.,21.));
#825=CARTESIAN_POINT('',(65.7,58.,21.));
#826=CARTESIAN_POINT('',(65.7,58.,2.5));
#827=CARTESIAN_POINT('Origin',(68.,58.,2.5));
#828=CARTESIAN_POINT('',(68.,60.3,2.5));
#829=CARTESIAN_POINT('Origin',(68.,58.,2.5));
#830=CARTESIAN_POINT('',(68.,60.3,21.));
#831=CARTESIAN_POINT('Origin',(68.,58.,21.));
#832=CARTESIAN_POINT('',(68.,60.3,2.5));
#833=CARTESIAN_POINT('Origin',(142.,60.3,2.5));
#834=CARTESIAN_POINT('',(142.,60.3,2.5));
#835=CARTESIAN_POINT('',(142.,60.3,2.5));
#836=CARTESIAN_POINT('',(142.,60.3,21.));
#837=CARTESIAN_POINT('',(142.,60.3,21.));
#838=CARTESIAN_POINT('',(142.,60.3,2.5));
#839=CARTESIAN_POINT('Origin',(142.,58.,2.5));
#840=CARTESIAN_POINT('',(144.3,58.,2.5));
#841=CARTESIAN_POINT('Origin',(142.,58.,2.5));
#842=CARTESIAN_POINT('',(144.3,58.,21.));
#843=CARTESIAN_POINT('Origin',(142.,58.,21.));
#844=CARTESIAN_POINT('',(144.3,58.,2.5));
#845=CARTESIAN_POINT('Origin',(144.3,-16.,2.5));
#846=CARTESIAN_POINT('',(144.3,-16.,2.5));
#847=CARTESIAN_POINT('',(144.3,-16.,2.5));
#848=CARTESIAN_POINT('',(144.3,-16.,21.));
#849=CARTESIAN_POINT('',(144.3,-16.,21.));
#850=CARTESIAN_POINT('',(144.3,-16.,2.5));
#851=CARTESIAN_POINT('Origin',(142.,-16.,2.5));
#852=CARTESIAN_POINT('',(142.,-18.3,2.5));
#853=CARTESIAN_POINT('Origin',(142.,-16.,2.5));
#854=CARTESIAN_POINT('',(142.,-18.3,21.));
#855=CARTESIAN_POINT('Origin',(142.,-16.,21.));
#856=CARTESIAN_POINT('',(142.,-18.3,2.5));
#857=CARTESIAN_POINT('Origin',(110.,-18.3,2.5));
#858=CARTESIAN_POINT('',(110.,-18.3,2.5));
#859=CARTESIAN_POINT('',(110.,-18.3,2.5));
#860=CARTESIAN_POINT('',(110.,-18.3,21.));
#861=CARTESIAN_POINT('',(110.,-18.3,21.));
#862=CARTESIAN_POINT('',(110.,-18.3,2.5));
#863=CARTESIAN_POINT('Origin',(110.,-16.,2.5));
#864=CARTESIAN_POINT('',(107.7,-16.,2.5));
#865=CARTESIAN_POINT('Origin',(110.,-16.,2.5));
#866=CARTESIAN_POINT('',(107.7,-16.,21.));
#867=CARTESIAN_POINT('Origin',(110.,-16.,21.));
#868=CARTESIAN_POINT('',(107.7,-16.,2.5));
#869=CARTESIAN_POINT('Origin',(107.7,16.,2.5));
#870=CARTESIAN_POINT('',(107.7,16.,2.5));
#871=CARTESIAN_POINT('',(107.7,16.,21.));
#872=CARTESIAN_POINT('Origin',(105.,21.,21.));
#873=CARTESIAN_POINT('Origin',(105.,21.,2.5));
#874=UNCERTAINTY_MEASURE_WITH_UNIT(LENGTH_MEASURE(0.01),#878,
'DISTANCE_ACCURACY_VALUE',
'Maximum model space distance between geometric entities at asserted c
onnectivities');
#875=UNCERTAINTY_MEASURE_WITH_UNIT(LENGTH_MEASURE(0.01),#878,
'DISTANCE_ACCURACY_VALUE',
'Maximum model space distance between geometric entities at asserted c
onnectivities');
#876=(
GEOMETRIC_REPRESENTATION_CONTEXT(3)
GLOBAL_UNCERTAINTY_ASSIGNED_CONTEXT((#874))
GLOBAL_UNIT_ASSIGNED_CONTEXT((#878,#880,#881))
REPRESENTATION_CONTEXT('','3D')
);
#877=(
GEOMETRIC_REPRESENTATION_CONTEXT(3)
GLOBAL_UNCERTAINTY_ASSIGNED_CONTEXT((#875))
GLOBAL_UNIT_ASSIGNED_CONTEXT((#878,#880,#881))
REPRESENTATION_CONTEXT('','3D')
);
#878=(
LENGTH_UNIT()
NAMED_UNIT(*)
SI_UNIT(.MILLI.,.METRE.)
);
#879=(
LENGTH_UNIT()
NAMED_UNIT(*)
SI_UNIT($,.METRE.)
);
#880=(
NAMED_UNIT(*)
PLANE_ANGLE_UNIT()
SI_UNIT($,.RADIAN.)
);
#881=(
NAMED_UNIT(*)
SI_UNIT($,.STERADIAN.)
SOLID_ANGLE_UNIT()
);
#882=SHAPE_DEFINITION_REPRESENTATION(#883,#884);
#883=PRODUCT_DEFINITION_SHAPE('',$,#886);
#884=SHAPE_REPRESENTATION('',(#522),#876);
#885=PRODUCT_DEFINITION_CONTEXT('part definition',#890,'design');
#886=PRODUCT_DEFINITION('MagGrid','MagGrid v7',#887,#885);
#887=PRODUCT_DEFINITION_FORMATION('',$,#892);
#888=PRODUCT_RELATED_PRODUCT_CATEGORY('MagGrid v7','MagGrid v7',(#892));
#889=APPLICATION_PROTOCOL_DEFINITION('international standard',
'automotive_design',2009,#890);
#890=APPLICATION_CONTEXT(
'Core Data for Automotive Mechanical Design Process');
#891=PRODUCT_CONTEXT('part definition',#890,'mechanical');
#892=PRODUCT('MagGrid','MagGrid v7',$,(#891));
#893=PRESENTATION_STYLE_ASSIGNMENT((#894));
#894=SURFACE_STYLE_USAGE(.BOTH.,#895);
#895=SURFACE_SIDE_STYLE('',(#896));
#896=SURFACE_STYLE_FILL_AREA(#897);
#897=FILL_AREA_STYLE('Steel - Satin',(#898));
#898=FILL_AREA_STYLE_COLOUR('Steel - Satin',#899);
#899=COLOUR_RGB('Steel - Satin',0.627450980392157,0.627450980392157,0.627450980392157);
ENDSEC;
END-ISO-10303-21;
