ISO-10303-21;
HEADER;
/* Generated by software containing ST-Developer
 * from STEP Tools, Inc. (www.steptools.com) 
 */

FILE_DESCRIPTION(
/* description */ (''),
/* implementation_level */ '2;1');

FILE_NAME(
/* name */ 'MagGrid II.step',
/* time_stamp */ '2026-08-06T10:15:07-07:00',
/* author */ (''),
/* organization */ (''),
/* preprocessor_version */ 'ST-DEVELOPER v20.1',
/* originating_system */ 'Autodesk Translation Framework v15.8.0.0',
/* authorisation */ '');

FILE_SCHEMA (('AUTOMOTIVE_DESIGN { 1 0 10303 214 3 1 1 }'));
ENDSEC;

DATA;
#10=MECHANICAL_DESIGN_GEOMETRIC_PRESENTATION_REPRESENTATION('',(#13),#605);
#11=SHAPE_REPRESENTATION_RELATIONSHIP('SRR','None',#612,#12);
#12=ADVANCED_BREP_SHAPE_REPRESENTATION('',(#14),#604);
#13=STYLED_ITEM('',(#621),#14);
#14=MANIFOLD_SOLID_BREP('Body33',#349);
#15=FACE_BOUND('',#77,.T.);
#16=CIRCLE('',#365,1.3);
#17=CIRCLE('',#366,1.3);
#18=CIRCLE('',#369,1.3);
#19=CIRCLE('',#370,1.3);
#20=CIRCLE('',#373,1.3);
#21=CIRCLE('',#374,1.3);
#22=CIRCLE('',#377,1.3);
#23=CIRCLE('',#378,1.3);
#24=CIRCLE('',#382,2.3);
#25=CIRCLE('',#383,2.3);
#26=CIRCLE('',#386,2.3);
#27=CIRCLE('',#387,2.3);
#28=CIRCLE('',#390,2.3);
#29=CIRCLE('',#391,2.3);
#30=CIRCLE('',#394,2.3);
#31=CIRCLE('',#395,2.3);
#32=CYLINDRICAL_SURFACE('',#364,1.3);
#33=CYLINDRICAL_SURFACE('',#368,1.3);
#34=CYLINDRICAL_SURFACE('',#372,1.3);
#35=CYLINDRICAL_SURFACE('',#376,1.3);
#36=CYLINDRICAL_SURFACE('',#381,2.3);
#37=CYLINDRICAL_SURFACE('',#385,2.3);
#38=CYLINDRICAL_SURFACE('',#389,2.3);
#39=CYLINDRICAL_SURFACE('',#393,2.3);
#40=FACE_OUTER_BOUND('',#59,.T.);
#41=FACE_OUTER_BOUND('',#60,.T.);
#42=FACE_OUTER_BOUND('',#61,.T.);
#43=FACE_OUTER_BOUND('',#62,.T.);
#44=FACE_OUTER_BOUND('',#63,.T.);
#45=FACE_OUTER_BOUND('',#64,.T.);
#46=FACE_OUTER_BOUND('',#65,.T.);
#47=FACE_OUTER_BOUND('',#66,.T.);
#48=FACE_OUTER_BOUND('',#67,.T.);
#49=FACE_OUTER_BOUND('',#68,.T.);
#50=FACE_OUTER_BOUND('',#69,.T.);
#51=FACE_OUTER_BOUND('',#70,.T.);
#52=FACE_OUTER_BOUND('',#71,.T.);
#53=FACE_OUTER_BOUND('',#72,.T.);
#54=FACE_OUTER_BOUND('',#73,.T.);
#55=FACE_OUTER_BOUND('',#74,.T.);
#56=FACE_OUTER_BOUND('',#75,.T.);
#57=FACE_OUTER_BOUND('',#76,.T.);
#58=FACE_OUTER_BOUND('',#78,.T.);
#59=EDGE_LOOP('',(#223,#224,#225,#226));
#60=EDGE_LOOP('',(#227,#228,#229,#230));
#61=EDGE_LOOP('',(#231,#232,#233,#234));
#62=EDGE_LOOP('',(#235,#236,#237,#238));
#63=EDGE_LOOP('',(#239,#240,#241,#242));
#64=EDGE_LOOP('',(#243,#244,#245,#246));
#65=EDGE_LOOP('',(#247,#248,#249,#250));
#66=EDGE_LOOP('',(#251,#252,#253,#254));
#67=EDGE_LOOP('',(#255,#256,#257,#258,#259,#260,#261,#262));
#68=EDGE_LOOP('',(#263,#264,#265,#266));
#69=EDGE_LOOP('',(#267,#268,#269,#270));
#70=EDGE_LOOP('',(#271,#272,#273,#274));
#71=EDGE_LOOP('',(#275,#276,#277,#278));
#72=EDGE_LOOP('',(#279,#280,#281,#282));
#73=EDGE_LOOP('',(#283,#284,#285,#286));
#74=EDGE_LOOP('',(#287,#288,#289,#290));
#75=EDGE_LOOP('',(#291,#292,#293,#294));
#76=EDGE_LOOP('',(#295,#296,#297,#298,#299,#300,#301,#302));
#77=EDGE_LOOP('',(#303,#304,#305,#306,#307,#308,#309,#310));
#78=EDGE_LOOP('',(#311,#312,#313,#314,#315,#316,#317,#318));
#79=LINE('',#506,#111);
#80=LINE('',#508,#112);
#81=LINE('',#510,#113);
#82=LINE('',#511,#114);
#83=LINE('',#516,#115);
#84=LINE('',#520,#116);
#85=LINE('',#522,#117);
#86=LINE('',#523,#118);
#87=LINE('',#528,#119);
#88=LINE('',#532,#120);
#89=LINE('',#534,#121);
#90=LINE('',#535,#122);
#91=LINE('',#540,#123);
#92=LINE('',#544,#124);
#93=LINE('',#546,#125);
#94=LINE('',#547,#126);
#95=LINE('',#555,#127);
#96=LINE('',#557,#128);
#97=LINE('',#559,#129);
#98=LINE('',#560,#130);
#99=LINE('',#566,#131);
#100=LINE('',#569,#132);
#101=LINE('',#571,#133);
#102=LINE('',#572,#134);
#103=LINE('',#578,#135);
#104=LINE('',#581,#136);
#105=LINE('',#583,#137);
#106=LINE('',#584,#138);
#107=LINE('',#590,#139);
#108=LINE('',#593,#140);
#109=LINE('',#595,#141);
#110=LINE('',#596,#142);
#111=VECTOR('',#402,10.);
#112=VECTOR('',#403,10.);
#113=VECTOR('',#404,10.);
#114=VECTOR('',#405,10.);
#115=VECTOR('',#410,10.);
#116=VECTOR('',#415,10.);
#117=VECTOR('',#416,10.);
#118=VECTOR('',#417,10.);
#119=VECTOR('',#422,10.);
#120=VECTOR('',#427,10.);
#121=VECTOR('',#428,10.);
#122=VECTOR('',#429,10.);
#123=VECTOR('',#434,10.);
#124=VECTOR('',#439,10.);
#125=VECTOR('',#440,10.);
#126=VECTOR('',#441,10.);
#127=VECTOR('',#452,10.);
#128=VECTOR('',#453,10.);
#129=VECTOR('',#454,10.);
#130=VECTOR('',#455,10.);
#131=VECTOR('',#462,10.);
#132=VECTOR('',#465,10.);
#133=VECTOR('',#466,10.);
#134=VECTOR('',#467,10.);
#135=VECTOR('',#474,10.);
#136=VECTOR('',#477,10.);
#137=VECTOR('',#478,10.);
#138=VECTOR('',#479,10.);
#139=VECTOR('',#486,10.);
#140=VECTOR('',#489,10.);
#141=VECTOR('',#490,10.);
#142=VECTOR('',#491,10.);
#143=VERTEX_POINT('',#504);
#144=VERTEX_POINT('',#505);
#145=VERTEX_POINT('',#507);
#146=VERTEX_POINT('',#509);
#147=VERTEX_POINT('',#513);
#148=VERTEX_POINT('',#515);
#149=VERTEX_POINT('',#519);
#150=VERTEX_POINT('',#521);
#151=VERTEX_POINT('',#525);
#152=VERTEX_POINT('',#527);
#153=VERTEX_POINT('',#531);
#154=VERTEX_POINT('',#533);
#155=VERTEX_POINT('',#537);
#156=VERTEX_POINT('',#539);
#157=VERTEX_POINT('',#543);
#158=VERTEX_POINT('',#545);
#159=VERTEX_POINT('',#553);
#160=VERTEX_POINT('',#554);
#161=VERTEX_POINT('',#556);
#162=VERTEX_POINT('',#558);
#163=VERTEX_POINT('',#562);
#164=VERTEX_POINT('',#564);
#165=VERTEX_POINT('',#568);
#166=VERTEX_POINT('',#570);
#167=VERTEX_POINT('',#574);
#168=VERTEX_POINT('',#576);
#169=VERTEX_POINT('',#580);
#170=VERTEX_POINT('',#582);
#171=VERTEX_POINT('',#586);
#172=VERTEX_POINT('',#588);
#173=VERTEX_POINT('',#592);
#174=VERTEX_POINT('',#594);
#175=EDGE_CURVE('',#143,#144,#79,.F.);
#176=EDGE_CURVE('',#143,#145,#80,.T.);
#177=EDGE_CURVE('',#146,#145,#81,.T.);
#178=EDGE_CURVE('',#144,#146,#82,.T.);
#179=EDGE_CURVE('',#147,#143,#16,.F.);
#180=EDGE_CURVE('',#147,#148,#83,.T.);
#181=EDGE_CURVE('',#145,#148,#17,.T.);
#182=EDGE_CURVE('',#149,#147,#84,.F.);
#183=EDGE_CURVE('',#149,#150,#85,.T.);
#184=EDGE_CURVE('',#148,#150,#86,.T.);
#185=EDGE_CURVE('',#151,#149,#18,.F.);
#186=EDGE_CURVE('',#151,#152,#87,.T.);
#187=EDGE_CURVE('',#150,#152,#19,.T.);
#188=EDGE_CURVE('',#153,#151,#88,.F.);
#189=EDGE_CURVE('',#153,#154,#89,.T.);
#190=EDGE_CURVE('',#152,#154,#90,.T.);
#191=EDGE_CURVE('',#155,#153,#20,.F.);
#192=EDGE_CURVE('',#155,#156,#91,.T.);
#193=EDGE_CURVE('',#154,#156,#21,.T.);
#194=EDGE_CURVE('',#157,#155,#92,.F.);
#195=EDGE_CURVE('',#157,#158,#93,.T.);
#196=EDGE_CURVE('',#156,#158,#94,.T.);
#197=EDGE_CURVE('',#144,#157,#22,.F.);
#198=EDGE_CURVE('',#158,#146,#23,.T.);
#199=EDGE_CURVE('',#159,#160,#95,.T.);
#200=EDGE_CURVE('',#160,#161,#96,.T.);
#201=EDGE_CURVE('',#162,#161,#97,.T.);
#202=EDGE_CURVE('',#159,#162,#98,.T.);
#203=EDGE_CURVE('',#163,#159,#24,.T.);
#204=EDGE_CURVE('',#164,#162,#25,.T.);
#205=EDGE_CURVE('',#163,#164,#99,.T.);
#206=EDGE_CURVE('',#165,#163,#100,.T.);
#207=EDGE_CURVE('',#166,#164,#101,.T.);
#208=EDGE_CURVE('',#165,#166,#102,.T.);
#209=EDGE_CURVE('',#167,#165,#26,.T.);
#210=EDGE_CURVE('',#168,#166,#27,.T.);
#211=EDGE_CURVE('',#167,#168,#103,.T.);
#212=EDGE_CURVE('',#169,#167,#104,.T.);
#213=EDGE_CURVE('',#170,#168,#105,.T.);
#214=EDGE_CURVE('',#169,#170,#106,.T.);
#215=EDGE_CURVE('',#171,#169,#28,.T.);
#216=EDGE_CURVE('',#172,#170,#29,.T.);
#217=EDGE_CURVE('',#171,#172,#107,.T.);
#218=EDGE_CURVE('',#173,#171,#108,.T.);
#219=EDGE_CURVE('',#174,#172,#109,.T.);
#220=EDGE_CURVE('',#173,#174,#110,.T.);
#221=EDGE_CURVE('',#160,#173,#30,.T.);
#222=EDGE_CURVE('',#161,#174,#31,.T.);
#223=ORIENTED_EDGE('',*,*,#175,.F.);
#224=ORIENTED_EDGE('',*,*,#176,.T.);
#225=ORIENTED_EDGE('',*,*,#177,.F.);
#226=ORIENTED_EDGE('',*,*,#178,.F.);
#227=ORIENTED_EDGE('',*,*,#179,.F.);
#228=ORIENTED_EDGE('',*,*,#180,.T.);
#229=ORIENTED_EDGE('',*,*,#181,.F.);
#230=ORIENTED_EDGE('',*,*,#176,.F.);
#231=ORIENTED_EDGE('',*,*,#182,.F.);
#232=ORIENTED_EDGE('',*,*,#183,.T.);
#233=ORIENTED_EDGE('',*,*,#184,.F.);
#234=ORIENTED_EDGE('',*,*,#180,.F.);
#235=ORIENTED_EDGE('',*,*,#185,.F.);
#236=ORIENTED_EDGE('',*,*,#186,.T.);
#237=ORIENTED_EDGE('',*,*,#187,.F.);
#238=ORIENTED_EDGE('',*,*,#183,.F.);
#239=ORIENTED_EDGE('',*,*,#188,.F.);
#240=ORIENTED_EDGE('',*,*,#189,.T.);
#241=ORIENTED_EDGE('',*,*,#190,.F.);
#242=ORIENTED_EDGE('',*,*,#186,.F.);
#243=ORIENTED_EDGE('',*,*,#191,.F.);
#244=ORIENTED_EDGE('',*,*,#192,.T.);
#245=ORIENTED_EDGE('',*,*,#193,.F.);
#246=ORIENTED_EDGE('',*,*,#189,.F.);
#247=ORIENTED_EDGE('',*,*,#194,.F.);
#248=ORIENTED_EDGE('',*,*,#195,.T.);
#249=ORIENTED_EDGE('',*,*,#196,.F.);
#250=ORIENTED_EDGE('',*,*,#192,.F.);
#251=ORIENTED_EDGE('',*,*,#197,.F.);
#252=ORIENTED_EDGE('',*,*,#178,.T.);
#253=ORIENTED_EDGE('',*,*,#198,.F.);
#254=ORIENTED_EDGE('',*,*,#195,.F.);
#255=ORIENTED_EDGE('',*,*,#197,.T.);
#256=ORIENTED_EDGE('',*,*,#194,.T.);
#257=ORIENTED_EDGE('',*,*,#191,.T.);
#258=ORIENTED_EDGE('',*,*,#188,.T.);
#259=ORIENTED_EDGE('',*,*,#185,.T.);
#260=ORIENTED_EDGE('',*,*,#182,.T.);
#261=ORIENTED_EDGE('',*,*,#179,.T.);
#262=ORIENTED_EDGE('',*,*,#175,.T.);
#263=ORIENTED_EDGE('',*,*,#199,.T.);
#264=ORIENTED_EDGE('',*,*,#200,.T.);
#265=ORIENTED_EDGE('',*,*,#201,.F.);
#266=ORIENTED_EDGE('',*,*,#202,.F.);
#267=ORIENTED_EDGE('',*,*,#203,.T.);
#268=ORIENTED_EDGE('',*,*,#202,.T.);
#269=ORIENTED_EDGE('',*,*,#204,.F.);
#270=ORIENTED_EDGE('',*,*,#205,.F.);
#271=ORIENTED_EDGE('',*,*,#206,.T.);
#272=ORIENTED_EDGE('',*,*,#205,.T.);
#273=ORIENTED_EDGE('',*,*,#207,.F.);
#274=ORIENTED_EDGE('',*,*,#208,.F.);
#275=ORIENTED_EDGE('',*,*,#209,.T.);
#276=ORIENTED_EDGE('',*,*,#208,.T.);
#277=ORIENTED_EDGE('',*,*,#210,.F.);
#278=ORIENTED_EDGE('',*,*,#211,.F.);
#279=ORIENTED_EDGE('',*,*,#212,.T.);
#280=ORIENTED_EDGE('',*,*,#211,.T.);
#281=ORIENTED_EDGE('',*,*,#213,.F.);
#282=ORIENTED_EDGE('',*,*,#214,.F.);
#283=ORIENTED_EDGE('',*,*,#215,.T.);
#284=ORIENTED_EDGE('',*,*,#214,.T.);
#285=ORIENTED_EDGE('',*,*,#216,.F.);
#286=ORIENTED_EDGE('',*,*,#217,.F.);
#287=ORIENTED_EDGE('',*,*,#218,.T.);
#288=ORIENTED_EDGE('',*,*,#217,.T.);
#289=ORIENTED_EDGE('',*,*,#219,.F.);
#290=ORIENTED_EDGE('',*,*,#220,.F.);
#291=ORIENTED_EDGE('',*,*,#221,.T.);
#292=ORIENTED_EDGE('',*,*,#220,.T.);
#293=ORIENTED_EDGE('',*,*,#222,.F.);
#294=ORIENTED_EDGE('',*,*,#200,.F.);
#295=ORIENTED_EDGE('',*,*,#222,.T.);
#296=ORIENTED_EDGE('',*,*,#219,.T.);
#297=ORIENTED_EDGE('',*,*,#216,.T.);
#298=ORIENTED_EDGE('',*,*,#213,.T.);
#299=ORIENTED_EDGE('',*,*,#210,.T.);
#300=ORIENTED_EDGE('',*,*,#207,.T.);
#301=ORIENTED_EDGE('',*,*,#204,.T.);
#302=ORIENTED_EDGE('',*,*,#201,.T.);
#303=ORIENTED_EDGE('',*,*,#177,.T.);
#304=ORIENTED_EDGE('',*,*,#181,.T.);
#305=ORIENTED_EDGE('',*,*,#184,.T.);
#306=ORIENTED_EDGE('',*,*,#187,.T.);
#307=ORIENTED_EDGE('',*,*,#190,.T.);
#308=ORIENTED_EDGE('',*,*,#193,.T.);
#309=ORIENTED_EDGE('',*,*,#196,.T.);
#310=ORIENTED_EDGE('',*,*,#198,.T.);
#311=ORIENTED_EDGE('',*,*,#221,.F.);
#312=ORIENTED_EDGE('',*,*,#199,.F.);
#313=ORIENTED_EDGE('',*,*,#203,.F.);
#314=ORIENTED_EDGE('',*,*,#206,.F.);
#315=ORIENTED_EDGE('',*,*,#209,.F.);
#316=ORIENTED_EDGE('',*,*,#212,.F.);
#317=ORIENTED_EDGE('',*,*,#215,.F.);
#318=ORIENTED_EDGE('',*,*,#218,.F.);
#319=PLANE('',#363);
#320=PLANE('',#367);
#321=PLANE('',#371);
#322=PLANE('',#375);
#323=PLANE('',#379);
#324=PLANE('',#380);
#325=PLANE('',#384);
#326=PLANE('',#388);
#327=PLANE('',#392);
#328=PLANE('',#396);
#329=PLANE('',#397);
#330=ADVANCED_FACE('',(#40),#319,.F.);
#331=ADVANCED_FACE('',(#41),#32,.F.);
#332=ADVANCED_FACE('',(#42),#320,.F.);
#333=ADVANCED_FACE('',(#43),#33,.F.);
#334=ADVANCED_FACE('',(#44),#321,.F.);
#335=ADVANCED_FACE('',(#45),#34,.F.);
#336=ADVANCED_FACE('',(#46),#322,.F.);
#337=ADVANCED_FACE('',(#47),#35,.F.);
#338=ADVANCED_FACE('',(#48),#323,.T.);
#339=ADVANCED_FACE('',(#49),#324,.T.);
#340=ADVANCED_FACE('',(#50),#36,.T.);
#341=ADVANCED_FACE('',(#51),#325,.T.);
#342=ADVANCED_FACE('',(#52),#37,.T.);
#343=ADVANCED_FACE('',(#53),#326,.T.);
#344=ADVANCED_FACE('',(#54),#38,.T.);
#345=ADVANCED_FACE('',(#55),#327,.T.);
#346=ADVANCED_FACE('',(#56),#39,.T.);
#347=ADVANCED_FACE('',(#57,#15),#328,.T.);
#348=ADVANCED_FACE('',(#58),#329,.F.);
#349=CLOSED_SHELL('',(#330,#331,#332,#333,#334,#335,#336,#337,#338,#339,
#340,#341,#342,#343,#344,#345,#346,#347,#348));
#350=DERIVED_UNIT_ELEMENT(#352,1.);
#351=DERIVED_UNIT_ELEMENT(#607,-3.);
#352=(
MASS_UNIT()
NAMED_UNIT(*)
SI_UNIT(.KILO.,.GRAM.)
);
#353=DERIVED_UNIT((#350,#351));
#354=MEASURE_REPRESENTATION_ITEM('density measure',
POSITIVE_RATIO_MEASURE(7850.),#353);
#355=PROPERTY_DEFINITION_REPRESENTATION(#360,#357);
#356=PROPERTY_DEFINITION_REPRESENTATION(#361,#358);
#357=REPRESENTATION('material name',(#359),#604);
#358=REPRESENTATION('density',(#354),#604);
#359=DESCRIPTIVE_REPRESENTATION_ITEM('Steel','Steel');
#360=PROPERTY_DEFINITION('material property','material name',#614);
#361=PROPERTY_DEFINITION('material property','density of part',#614);
#362=AXIS2_PLACEMENT_3D('',#502,#398,#399);
#363=AXIS2_PLACEMENT_3D('',#503,#400,#401);
#364=AXIS2_PLACEMENT_3D('',#512,#406,#407);
#365=AXIS2_PLACEMENT_3D('',#514,#408,#409);
#366=AXIS2_PLACEMENT_3D('',#517,#411,#412);
#367=AXIS2_PLACEMENT_3D('',#518,#413,#414);
#368=AXIS2_PLACEMENT_3D('',#524,#418,#419);
#369=AXIS2_PLACEMENT_3D('',#526,#420,#421);
#370=AXIS2_PLACEMENT_3D('',#529,#423,#424);
#371=AXIS2_PLACEMENT_3D('',#530,#425,#426);
#372=AXIS2_PLACEMENT_3D('',#536,#430,#431);
#373=AXIS2_PLACEMENT_3D('',#538,#432,#433);
#374=AXIS2_PLACEMENT_3D('',#541,#435,#436);
#375=AXIS2_PLACEMENT_3D('',#542,#437,#438);
#376=AXIS2_PLACEMENT_3D('',#548,#442,#443);
#377=AXIS2_PLACEMENT_3D('',#549,#444,#445);
#378=AXIS2_PLACEMENT_3D('',#550,#446,#447);
#379=AXIS2_PLACEMENT_3D('',#551,#448,#449);
#380=AXIS2_PLACEMENT_3D('',#552,#450,#451);
#381=AXIS2_PLACEMENT_3D('',#561,#456,#457);
#382=AXIS2_PLACEMENT_3D('',#563,#458,#459);
#383=AXIS2_PLACEMENT_3D('',#565,#460,#461);
#384=AXIS2_PLACEMENT_3D('',#567,#463,#464);
#385=AXIS2_PLACEMENT_3D('',#573,#468,#469);
#386=AXIS2_PLACEMENT_3D('',#575,#470,#471);
#387=AXIS2_PLACEMENT_3D('',#577,#472,#473);
#388=AXIS2_PLACEMENT_3D('',#579,#475,#476);
#389=AXIS2_PLACEMENT_3D('',#585,#480,#481);
#390=AXIS2_PLACEMENT_3D('',#587,#482,#483);
#391=AXIS2_PLACEMENT_3D('',#589,#484,#485);
#392=AXIS2_PLACEMENT_3D('',#591,#487,#488);
#393=AXIS2_PLACEMENT_3D('',#597,#492,#493);
#394=AXIS2_PLACEMENT_3D('',#598,#494,#495);
#395=AXIS2_PLACEMENT_3D('',#599,#496,#497);
#396=AXIS2_PLACEMENT_3D('',#600,#498,#499);
#397=AXIS2_PLACEMENT_3D('',#601,#500,#501);
#398=DIRECTION('axis',(0.,0.,1.));
#399=DIRECTION('refdir',(1.,0.,0.));
#400=DIRECTION('center_axis',(-9.00180830777154E-17,1.,0.));
#401=DIRECTION('ref_axis',(-1.,-9.00180830777154E-17,0.));
#402=DIRECTION('',(1.,9.00180830777154E-17,0.));
#403=DIRECTION('',(0.,0.,1.));
#404=DIRECTION('',(1.,9.00180830777154E-17,0.));
#405=DIRECTION('',(0.,0.,1.));
#406=DIRECTION('center_axis',(0.,0.,1.));
#407=DIRECTION('ref_axis',(1.,-2.89623397728301E-15,0.));
#408=DIRECTION('center_axis',(0.,0.,-1.));
#409=DIRECTION('ref_axis',(1.,-2.89623397728301E-15,0.));
#410=DIRECTION('',(0.,0.,1.));
#411=DIRECTION('center_axis',(0.,0.,-1.));
#412=DIRECTION('ref_axis',(1.,-2.89623397728301E-15,0.));
#413=DIRECTION('center_axis',(1.,0.,0.));
#414=DIRECTION('ref_axis',(0.,1.,0.));
#415=DIRECTION('',(0.,-1.,0.));
#416=DIRECTION('',(0.,0.,1.));
#417=DIRECTION('',(0.,-1.,0.));
#418=DIRECTION('center_axis',(0.,0.,1.));
#419=DIRECTION('ref_axis',(0.,-1.,0.));
#420=DIRECTION('center_axis',(0.,0.,-1.));
#421=DIRECTION('ref_axis',(0.,-1.,0.));
#422=DIRECTION('',(0.,0.,1.));
#423=DIRECTION('center_axis',(0.,0.,-1.));
#424=DIRECTION('ref_axis',(0.,-1.,0.));
#425=DIRECTION('center_axis',(0.,-1.,0.));
#426=DIRECTION('ref_axis',(1.,0.,0.));
#427=DIRECTION('',(-1.,0.,0.));
#428=DIRECTION('',(0.,0.,1.));
#429=DIRECTION('',(-1.,0.,0.));
#430=DIRECTION('center_axis',(0.,0.,1.));
#431=DIRECTION('ref_axis',(-1.,0.,0.));
#432=DIRECTION('center_axis',(0.,0.,-1.));
#433=DIRECTION('ref_axis',(-1.,0.,0.));
#434=DIRECTION('',(0.,0.,1.));
#435=DIRECTION('center_axis',(0.,0.,-1.));
#436=DIRECTION('ref_axis',(-1.,0.,0.));
#437=DIRECTION('center_axis',(-1.,0.,0.));
#438=DIRECTION('ref_axis',(0.,-1.,0.));
#439=DIRECTION('',(0.,1.,0.));
#440=DIRECTION('',(0.,0.,1.));
#441=DIRECTION('',(0.,1.,0.));
#442=DIRECTION('center_axis',(0.,0.,1.));
#443=DIRECTION('ref_axis',(0.,1.,0.));
#444=DIRECTION('center_axis',(0.,0.,-1.));
#445=DIRECTION('ref_axis',(0.,1.,0.));
#446=DIRECTION('center_axis',(0.,0.,-1.));
#447=DIRECTION('ref_axis',(0.,1.,0.));
#448=DIRECTION('center_axis',(0.,0.,1.));
#449=DIRECTION('ref_axis',(-1.,0.,0.));
#450=DIRECTION('center_axis',(-9.00180830777154E-17,1.,0.));
#451=DIRECTION('ref_axis',(-1.,-9.00180830777154E-17,0.));
#452=DIRECTION('',(-1.,-9.00180830777154E-17,0.));
#453=DIRECTION('',(0.,0.,1.));
#454=DIRECTION('',(-1.,-9.00180830777154E-17,0.));
#455=DIRECTION('',(0.,0.,1.));
#456=DIRECTION('center_axis',(0.,0.,1.));
#457=DIRECTION('ref_axis',(1.,-2.89623397728301E-15,0.));
#458=DIRECTION('center_axis',(0.,0.,1.));
#459=DIRECTION('ref_axis',(1.,-2.89623397728301E-15,0.));
#460=DIRECTION('center_axis',(0.,0.,1.));
#461=DIRECTION('ref_axis',(1.,-2.89623397728301E-15,0.));
#462=DIRECTION('',(0.,0.,1.));
#463=DIRECTION('center_axis',(1.,0.,0.));
#464=DIRECTION('ref_axis',(0.,1.,0.));
#465=DIRECTION('',(0.,1.,0.));
#466=DIRECTION('',(0.,1.,0.));
#467=DIRECTION('',(0.,0.,1.));
#468=DIRECTION('center_axis',(0.,0.,1.));
#469=DIRECTION('ref_axis',(0.,-1.,0.));
#470=DIRECTION('center_axis',(0.,0.,1.));
#471=DIRECTION('ref_axis',(0.,-1.,0.));
#472=DIRECTION('center_axis',(0.,0.,1.));
#473=DIRECTION('ref_axis',(0.,-1.,0.));
#474=DIRECTION('',(0.,0.,1.));
#475=DIRECTION('center_axis',(0.,-1.,0.));
#476=DIRECTION('ref_axis',(1.,0.,0.));
#477=DIRECTION('',(1.,0.,0.));
#478=DIRECTION('',(1.,0.,0.));
#479=DIRECTION('',(0.,0.,1.));
#480=DIRECTION('center_axis',(0.,0.,1.));
#481=DIRECTION('ref_axis',(-1.,0.,0.));
#482=DIRECTION('center_axis',(0.,0.,1.));
#483=DIRECTION('ref_axis',(-1.,0.,0.));
#484=DIRECTION('center_axis',(0.,0.,1.));
#485=DIRECTION('ref_axis',(-1.,0.,0.));
#486=DIRECTION('',(0.,0.,1.));
#487=DIRECTION('center_axis',(-1.,0.,0.));
#488=DIRECTION('ref_axis',(0.,-1.,0.));
#489=DIRECTION('',(0.,-1.,0.));
#490=DIRECTION('',(0.,-1.,0.));
#491=DIRECTION('',(0.,0.,1.));
#492=DIRECTION('center_axis',(0.,0.,1.));
#493=DIRECTION('ref_axis',(0.,1.,0.));
#494=DIRECTION('center_axis',(0.,0.,1.));
#495=DIRECTION('ref_axis',(0.,1.,0.));
#496=DIRECTION('center_axis',(0.,0.,1.));
#497=DIRECTION('ref_axis',(0.,1.,0.));
#498=DIRECTION('center_axis',(0.,0.,1.));
#499=DIRECTION('ref_axis',(-1.,0.,0.));
#500=DIRECTION('center_axis',(0.,0.,1.));
#501=DIRECTION('ref_axis',(-1.,0.,0.));
#502=CARTESIAN_POINT('',(0.,0.,0.));
#503=CARTESIAN_POINT('Origin',(100.,17.3,2.5));
#504=CARTESIAN_POINT('',(100.,17.3,3.5));
#505=CARTESIAN_POINT('',(26.,17.3,3.5));
#506=CARTESIAN_POINT('',(81.5,17.3,3.5));
#507=CARTESIAN_POINT('',(100.,17.3,21.));
#508=CARTESIAN_POINT('',(100.,17.3,2.5));
#509=CARTESIAN_POINT('',(26.,17.3,21.));
#510=CARTESIAN_POINT('',(81.5,17.3,21.));
#511=CARTESIAN_POINT('',(26.,17.3,2.5));
#512=CARTESIAN_POINT('Origin',(100.,16.,2.5));
#513=CARTESIAN_POINT('',(101.3,16.,3.5));
#514=CARTESIAN_POINT('Origin',(100.,16.,3.5));
#515=CARTESIAN_POINT('',(101.3,16.,21.));
#516=CARTESIAN_POINT('',(101.3,16.,2.5));
#517=CARTESIAN_POINT('Origin',(100.,16.,21.));
#518=CARTESIAN_POINT('Origin',(101.3,-16.,2.5));
#519=CARTESIAN_POINT('',(101.3,-16.,3.5));
#520=CARTESIAN_POINT('',(101.3,-8.,3.5));
#521=CARTESIAN_POINT('',(101.3,-16.,21.));
#522=CARTESIAN_POINT('',(101.3,-16.,2.5));
#523=CARTESIAN_POINT('',(101.3,-8.,21.));
#524=CARTESIAN_POINT('Origin',(100.,-16.,2.5));
#525=CARTESIAN_POINT('',(100.,-17.3,3.5));
#526=CARTESIAN_POINT('Origin',(100.,-16.,3.5));
#527=CARTESIAN_POINT('',(100.,-17.3,21.));
#528=CARTESIAN_POINT('',(100.,-17.3,2.5));
#529=CARTESIAN_POINT('Origin',(100.,-16.,21.));
#530=CARTESIAN_POINT('Origin',(26.,-17.3,2.5));
#531=CARTESIAN_POINT('',(26.,-17.3,3.5));
#532=CARTESIAN_POINT('',(44.5,-17.3,3.5));
#533=CARTESIAN_POINT('',(26.,-17.3,21.));
#534=CARTESIAN_POINT('',(26.,-17.3,2.5));
#535=CARTESIAN_POINT('',(44.5,-17.3,21.));
#536=CARTESIAN_POINT('Origin',(26.,-16.,2.5));
#537=CARTESIAN_POINT('',(24.7,-16.,3.5));
#538=CARTESIAN_POINT('Origin',(26.,-16.,3.5));
#539=CARTESIAN_POINT('',(24.7,-16.,21.));
#540=CARTESIAN_POINT('',(24.7,-16.,2.5));
#541=CARTESIAN_POINT('Origin',(26.,-16.,21.));
#542=CARTESIAN_POINT('Origin',(24.7,16.,2.5));
#543=CARTESIAN_POINT('',(24.7,16.,3.5));
#544=CARTESIAN_POINT('',(24.7,8.,3.5));
#545=CARTESIAN_POINT('',(24.7,16.,21.));
#546=CARTESIAN_POINT('',(24.7,16.,2.5));
#547=CARTESIAN_POINT('',(24.7,8.,21.));
#548=CARTESIAN_POINT('Origin',(26.,16.,2.5));
#549=CARTESIAN_POINT('Origin',(26.,16.,3.5));
#550=CARTESIAN_POINT('Origin',(26.,16.,21.));
#551=CARTESIAN_POINT('Origin',(63.,6.66133814775094E-15,3.5));
#552=CARTESIAN_POINT('Origin',(100.,18.3,2.5));
#553=CARTESIAN_POINT('',(100.,18.3,2.5));
#554=CARTESIAN_POINT('',(26.,18.3,2.5));
#555=CARTESIAN_POINT('',(100.,18.3,2.5));
#556=CARTESIAN_POINT('',(26.,18.3,21.));
#557=CARTESIAN_POINT('',(26.,18.3,2.5));
#558=CARTESIAN_POINT('',(100.,18.3,21.));
#559=CARTESIAN_POINT('',(100.,18.3,21.));
#560=CARTESIAN_POINT('',(100.,18.3,2.5));
#561=CARTESIAN_POINT('Origin',(100.,16.,2.5));
#562=CARTESIAN_POINT('',(102.3,16.,2.5));
#563=CARTESIAN_POINT('Origin',(100.,16.,2.5));
#564=CARTESIAN_POINT('',(102.3,16.,21.));
#565=CARTESIAN_POINT('Origin',(100.,16.,21.));
#566=CARTESIAN_POINT('',(102.3,16.,2.5));
#567=CARTESIAN_POINT('Origin',(102.3,-16.,2.5));
#568=CARTESIAN_POINT('',(102.3,-16.,2.5));
#569=CARTESIAN_POINT('',(102.3,-16.,2.5));
#570=CARTESIAN_POINT('',(102.3,-16.,21.));
#571=CARTESIAN_POINT('',(102.3,-16.,21.));
#572=CARTESIAN_POINT('',(102.3,-16.,2.5));
#573=CARTESIAN_POINT('Origin',(100.,-16.,2.5));
#574=CARTESIAN_POINT('',(100.,-18.3,2.5));
#575=CARTESIAN_POINT('Origin',(100.,-16.,2.5));
#576=CARTESIAN_POINT('',(100.,-18.3,21.));
#577=CARTESIAN_POINT('Origin',(100.,-16.,21.));
#578=CARTESIAN_POINT('',(100.,-18.3,2.5));
#579=CARTESIAN_POINT('Origin',(26.,-18.3,2.5));
#580=CARTESIAN_POINT('',(26.,-18.3,2.5));
#581=CARTESIAN_POINT('',(26.,-18.3,2.5));
#582=CARTESIAN_POINT('',(26.,-18.3,21.));
#583=CARTESIAN_POINT('',(26.,-18.3,21.));
#584=CARTESIAN_POINT('',(26.,-18.3,2.5));
#585=CARTESIAN_POINT('Origin',(26.,-16.,2.5));
#586=CARTESIAN_POINT('',(23.7,-16.,2.5));
#587=CARTESIAN_POINT('Origin',(26.,-16.,2.5));
#588=CARTESIAN_POINT('',(23.7,-16.,21.));
#589=CARTESIAN_POINT('Origin',(26.,-16.,21.));
#590=CARTESIAN_POINT('',(23.7,-16.,2.5));
#591=CARTESIAN_POINT('Origin',(23.7,16.,2.5));
#592=CARTESIAN_POINT('',(23.7,16.,2.5));
#593=CARTESIAN_POINT('',(23.7,16.,2.5));
#594=CARTESIAN_POINT('',(23.7,16.,21.));
#595=CARTESIAN_POINT('',(23.7,16.,21.));
#596=CARTESIAN_POINT('',(23.7,16.,2.5));
#597=CARTESIAN_POINT('Origin',(26.,16.,2.5));
#598=CARTESIAN_POINT('Origin',(26.,16.,2.5));
#599=CARTESIAN_POINT('Origin',(26.,16.,21.));
#600=CARTESIAN_POINT('Origin',(63.,6.66133814775094E-15,21.));
#601=CARTESIAN_POINT('Origin',(63.,6.66133814775094E-15,2.5));
#602=UNCERTAINTY_MEASURE_WITH_UNIT(LENGTH_MEASURE(0.01),#606,
'DISTANCE_ACCURACY_VALUE',
'Maximum model space distance between geometric entities at asserted c
onnectivities');
#603=UNCERTAINTY_MEASURE_WITH_UNIT(LENGTH_MEASURE(0.01),#606,
'DISTANCE_ACCURACY_VALUE',
'Maximum model space distance between geometric entities at asserted c
onnectivities');
#604=(
GEOMETRIC_REPRESENTATION_CONTEXT(3)
GLOBAL_UNCERTAINTY_ASSIGNED_CONTEXT((#602))
GLOBAL_UNIT_ASSIGNED_CONTEXT((#606,#608,#609))
REPRESENTATION_CONTEXT('','3D')
);
#605=(
GEOMETRIC_REPRESENTATION_CONTEXT(3)
GLOBAL_UNCERTAINTY_ASSIGNED_CONTEXT((#603))
GLOBAL_UNIT_ASSIGNED_CONTEXT((#606,#608,#609))
REPRESENTATION_CONTEXT('','3D')
);
#606=(
LENGTH_UNIT()
NAMED_UNIT(*)
SI_UNIT(.MILLI.,.METRE.)
);
#607=(
LENGTH_UNIT()
NAMED_UNIT(*)
SI_UNIT($,.METRE.)
);
#608=(
NAMED_UNIT(*)
PLANE_ANGLE_UNIT()
SI_UNIT($,.RADIAN.)
);
#609=(
NAMED_UNIT(*)
SI_UNIT($,.STERADIAN.)
SOLID_ANGLE_UNIT()
);
#610=SHAPE_DEFINITION_REPRESENTATION(#611,#612);
#611=PRODUCT_DEFINITION_SHAPE('',$,#614);
#612=SHAPE_REPRESENTATION('',(#362),#604);
#613=PRODUCT_DEFINITION_CONTEXT('part definition',#618,'design');
#614=PRODUCT_DEFINITION('MagGrid','MagGrid v7',#615,#613);
#615=PRODUCT_DEFINITION_FORMATION('',$,#620);
#616=PRODUCT_RELATED_PRODUCT_CATEGORY('MagGrid v7','MagGrid v7',(#620));
#617=APPLICATION_PROTOCOL_DEFINITION('international standard',
'automotive_design',2009,#618);
#618=APPLICATION_CONTEXT(
'Core Data for Automotive Mechanical Design Process');
#619=PRODUCT_CONTEXT('part definition',#618,'mechanical');
#620=PRODUCT('MagGrid','MagGrid v7',$,(#619));
#621=PRESENTATION_STYLE_ASSIGNMENT((#622));
#622=SURFACE_STYLE_USAGE(.BOTH.,#623);
#623=SURFACE_SIDE_STYLE('',(#624));
#624=SURFACE_STYLE_FILL_AREA(#625);
#625=FILL_AREA_STYLE('Steel - Satin',(#626));
#626=FILL_AREA_STYLE_COLOUR('Steel - Satin',#627);
#627=COLOUR_RGB('Steel - Satin',0.627450980392157,0.627450980392157,0.627450980392157);
ENDSEC;
END-ISO-10303-21;
